<?xml version="1.0" standalone="no"?>
<!DOCTYPE svg PUBLIC "-//W3C//DTD SVG 20010904//EN"
 "http://www.w3.org/TR/2001/REC-SVG-20010904/DTD/svg10.dtd">
<svg version="1.0" xmlns="http://www.w3.org/2000/svg"
 width="72.000000pt" height="72.000000pt" viewBox="0 0 72.000000 72.000000"
 preserveAspectRatio="xMidYMid meet">
<metadata>
Created by potrace 1.14, written by Peter Selinger 2001-2017
</metadata>
<g transform="translate(0.000000,72.000000) scale(0.100000,-0.100000)"
fill="#000000" stroke="none">
<path d="M225 613 c-46 -6 -56 -27 -39 -76 20 -56 26 -62 100 -91 51 -21 69
-24 85 -15 12 6 18 13 15 16 -3 4 -1 12 4 18 7 9 7 21 0 39 -6 18 -6 25 0 21
6 -3 10 -12 10 -20 0 -7 14 -25 31 -39 17 -14 26 -26 20 -26 -5 0 -13 5 -16
10 -11 18 -30 10 -47 -20 -17 -30 -17 -31 10 -69 24 -34 32 -38 62 -35 19 2
39 10 44 17 6 10 17 5 44 -20 20 -18 41 -33 47 -33 17 0 54 37 51 52 -5 29
-37 78 -64 97 -24 17 -32 18 -53 7 -15 -7 -24 -20 -23 -34 0 -11 -3 -19 -8
-16 -4 3 -8 11 -8 19 0 7 -6 16 -12 18 -8 3 -5 6 5 6 36 2 48 28 38 83 0 4
-19 19 -40 34 -31 20 -47 24 -70 19 -17 -4 -29 -10 -26 -15 3 -5 1 -11 -3 -14
-5 -3 -14 5 -21 17 -12 22 -61 50 -91 52 -8 1 -28 0 -45 -2z m105 -68 c10 -6
14 -55 5 -55 -4 0 -19 7 -35 15 -39 20 -42 58 -5 51 13 -3 29 -7 35 -11z m164
-33 c2 -4 1 -14 -3 -21 -7 -10 -13 -9 -30 8 -25 25 -19 46 9 31 10 -6 21 -14
24 -18z m-14 -141 c0 -13 -34 -8 -48 5 -17 17 -17 25 0 35 12 8 48 -22 48 -40z
m110 18 c18 -32 6 -45 -18 -21 -13 13 -20 27 -17 32 10 16 23 12 35 -11z"/>
<path d="M143 582 c-8 -5 -9 -13 -3 -22 24 -37 5 -92 -52 -154 -20 -22 -23
-54 -7 -76 8 -12 9 -9 5 12 -5 21 3 37 38 81 45 54 52 82 32 129 -4 9 -5 22
-1 28 7 12 4 12 -12 2z"/>
<path d="M157 407 c-20 -24 -35 -51 -33 -59 3 -21 50 -88 85 -122 23 -22 37
-27 77 -27 73 1 88 5 101 32 32 61 2 144 -64 181 -18 9 -33 15 -33 13 0 -3
-13 1 -30 10 -46 24 -65 18 -103 -28z m166 -55 c21 -19 22 -36 2 -56 -24 -23
-85 8 -85 44 0 40 43 47 83 12z"/>
<path d="M473 318 c-38 -8 -42 -12 -47 -46 -8 -62 -4 -72 42 -110 52 -43 62
-45 108 -26 43 18 48 30 37 85 -7 35 -17 49 -53 74 -41 29 -49 31 -87 23z m75
-58 c27 -25 28 -46 3 -59 -15 -8 -24 -5 -45 14 -31 28 -31 29 -10 49 20 21 26
20 52 -4z"/>
<path d="M158 204 c22 -42 69 -73 104 -68 121 15 140 15 175 -7 47 -29 52 -18
6 14 -32 21 -46 25 -88 21 -130 -13 -126 -13 -168 25 -28 25 -37 29 -29 15z"/>
</g>
</svg>
