<svg width="37" height="38" viewBox="0 0 37 38" fill="none" xmlns="http://www.w3.org/2000/svg"><path d="M15 12C15 11.4477 15.4477 11 16 11H35C35.5523 11 36 11.4477 36 12V33C36 33.5523 35.5523 34 35 34H16C15.4477 34 15 33.5523 15 33V31V30V28V27V12Z" stroke="#0091EA" stroke-width="2"/><path d="M16.7662 34H34.2338L32.7251 36.5145C32.5444 36.8157 32.2189 37 31.8676 37H19.1324C18.7811 37 18.4556 36.8157 18.2749 36.5145L16.7662 34L16.7662 34Z" stroke="#0091EA" stroke-width="2"/><path d="M23 12C23 11.4477 23.4477 11 24 11H32C32.5523 11 33 11.4477 33 12V29C33 29.5523 32.5523 30 32 30H24C23.4477 30 23 29.5523 23 29V26.5V25V23V22V20V19V17V16V12Z" fill="#E1EAEE" stroke="#0091EA" stroke-width="2"/><circle cx="28" cy="17" r="1" transform="rotate(90 28 17)" stroke="#0091EA"/><circle cx="28" cy="22" r="1" transform="rotate(90 28 22)" stroke="#0091EA"/><path d="M23 10C23 10.5523 23.4477 11 24 11H32C32.5523 11 33 10.5523 33 10V2C33 1.44772 32.5523 1 32 1H24C23.4477 1 23 1.44772 23 2V10Z" fill="#E1EAEE" stroke="#0091EA" stroke-width="2"/><circle cx="29.5" cy="4.5" r=".5" fill="#0091EA"/><circle cx="26.5" cy="4.5" r=".5" fill="#0091EA"/><circle cx="29.5" cy="27.5" r=".5" fill="#0091EA"/><circle cx="26.5" cy="27.5" r=".5" fill="#0091EA"/><path d="M23 11H19C18.4477 11 18 10.5523 18 10V7V6V3V2.5C18 2.22386 18.2239 2 18.5 2H23V11Z" stroke="#0091EA" stroke-width="2"/><path d="M18 4V8H15C14.4477 8 14 7.55229 14 7V5C14 4.44772 14.4477 4 15 4H18Z" stroke="#0091EA" stroke-width="2"/><path d="M23 14V18H20C19.4477 18 19 17.5523 19 17V15C19 14.4477 19.4477 14 20 14H23Z" stroke="#0091EA" stroke-width="2"/><path d="M23 21V25H20C19.4477 25 19 24.5523 19 24V22C19 21.4477 19.4477 21 20 21H23Z" stroke="#0091EA" stroke-width="2"/><path d="M15 28V32H12C11.4477 32 11 31.5523 11 31V29C11 28.4477 11.4477 28 12 28H15Z" stroke="#0091EA" stroke-width="2"/><path d="M20 23L9.5 23C4.80558 23 0.999999 19.1944 1 14.5V14.5C1 9.80558 4.80558 6 9.5 6L15 6" stroke="#0091EA" stroke-width="2"/><path d="M20 16L9 16C5.13401 16 2 19.134 2 23V23C2 26.866 5.13401 30 9 30L12 30" stroke="#0091EA" stroke-width="2"/></svg>