<svg width="48" height="48" viewBox="0 0 48 48" fill="none" xmlns="http://www.w3.org/2000/svg"><path d="M21.7589 19.0306C21.2411 19.0306 20.8214 19.4505 20.8214 19.9681C20.8214 20.4858 21.2411 20.9056 21.7589 20.9056H34.7641C35.2819 20.9056 35.7016 20.4858 35.7016 19.9681C35.7016 19.4505 35.2819 19.0306 34.7641 19.0306H21.7589Z" fill="#0091EA"/><path d="M34.7641 25.0612H32.8011C32.2834 25.0612 31.8636 25.481 31.8636 25.9987C31.8636 26.5163 32.2834 26.9362 32.8011 26.9362H34.7641C35.2819 26.9362 35.7016 26.5163 35.7016 25.9987C35.7016 25.481 35.2819 25.0612 34.7641 25.0612Z" fill="#0091EA"/><path d="M29.9806 25.9987C29.9806 25.481 29.5608 25.0612 29.0431 25.0612H18.941C18.4233 25.0612 18.0035 25.481 18.0035 25.9987C18.0035 26.5163 18.4233 26.9362 18.941 26.9362H29.0431C29.5608 26.9362 29.9806 26.5164 29.9806 25.9987Z" fill="#0091EA"/><path d="M43.3346 3.53751L38.6591 0.239672C38.303 -0.0796406 37.7634 -0.0799219 37.4072 0.239484L33.355 2.97614L29.3027 0.239484C28.9466 -0.0799219 28.407 -0.0797344 28.0508 0.239672L24.0013 2.97605L19.9492 0.239484C19.593 -0.0798281 19.0536 -0.0798281 18.6974 0.239484L14.6454 2.97595L10.5959 0.239672C10.2397 -0.0796406 9.70022 -0.0799219 9.34397 0.239484L4.66587 3.53733C4.4675 3.71508 4.35425 3.96895 4.35425 4.2353V43.7618C4.35425 44.028 4.4675 44.2817 4.66559 44.4595L9.34369 47.76C9.70003 48.0797 10.24 48.0797 10.5962 47.7598L14.6454 45.0216L18.6972 47.76C18.8753 47.9199 19.0992 47.9998 19.3233 47.9998C19.5474 47.9998 19.7713 47.9199 19.9495 47.76L24.0012 45.0216L28.0504 47.7598C28.4067 48.0796 28.9468 48.0798 29.3029 47.76L33.3549 45.0213L37.4068 47.76C37.7631 48.0797 38.3031 48.0797 38.6593 47.7598L43.3348 44.4593C43.5328 44.2815 43.6458 44.0279 43.6458 43.7618V4.23539C43.6459 3.96914 43.5328 3.71545 43.3346 3.53751ZM41.7709 43.3438L38.0328 45.8026L33.981 43.0642C33.6248 42.7445 33.085 42.7445 32.7288 43.0642L28.6771 45.8026L24.6278 43.0644C24.2717 42.7447 23.7316 42.7445 23.3753 43.0642L19.3234 45.8029L15.2715 43.0642C15.0933 42.9044 14.8694 42.8244 14.6453 42.8244C14.4212 42.8244 14.1971 42.9044 14.0189 43.0644L9.96965 45.8026L6.22934 43.3437V4.65398L9.96965 2.19689L14.0192 4.93326C14.3754 5.25267 14.9149 5.25295 15.2711 4.93345L19.3233 2.1968L23.3755 4.93345C23.7318 5.25286 24.2714 5.25267 24.6275 4.93326L28.677 2.19689L32.729 4.93336C33.0852 5.25267 33.6246 5.25267 33.9808 4.93336L38.0328 2.19689L41.7709 4.6538V43.3438Z" fill="#0091EA"/><path d="M16.4535 31.0942H13.2388C12.721 31.0942 12.3013 31.5141 12.3013 32.0317C12.3013 32.5494 12.721 32.9692 13.2388 32.9692H16.4535C16.9712 32.9692 17.391 32.5494 17.391 32.0317C17.391 31.5141 16.9712 31.0942 16.4535 31.0942Z" fill="#0091EA"/><path d="M34.7639 31.0942H20.2114C19.6936 31.0942 19.2739 31.5141 19.2739 32.0317C19.2739 32.5494 19.6936 32.9692 20.2114 32.9692H34.764C35.2818 32.9692 35.7015 32.5494 35.7015 32.0317C35.7015 31.5141 35.2817 31.0942 34.7639 31.0942Z" fill="#0091EA"/><path d="M34.7639 37.1248H20.2114C19.6936 37.1248 19.2739 37.5446 19.2739 38.0623C19.2739 38.58 19.6936 38.9998 20.2114 38.9998H34.764C35.2818 38.9998 35.7015 38.58 35.7015 38.0623C35.7015 37.5446 35.2817 37.1248 34.7639 37.1248Z" fill="#0091EA"/><path d="M16.4535 37.1248H13.2388C12.721 37.1248 12.3013 37.5446 12.3013 38.0623C12.3013 38.58 12.721 38.9998 13.2388 38.9998H16.4535C16.9712 38.9998 17.391 38.58 17.391 38.0623C17.391 37.5446 16.9712 37.1248 16.4535 37.1248Z" fill="#0091EA"/><path d="M17.1987 16.8894C17.1987 17.2452 16.9103 17.5337 16.5544 17.5337H15.1548V19.2002C15.1548 19.6419 14.7967 20 14.355 20C13.9133 20 13.5552 19.6419 13.5552 19.2002V17.5337H12.8982C12.5424 17.5337 12.2539 17.2452 12.2539 16.8894C12.2539 16.5336 12.5424 16.2451 12.8982 16.2451H13.5552V14.5659H12.8982C12.5424 14.5659 12.2539 14.2775 12.2539 13.9216C12.2539 13.5658 12.5424 13.2773 12.8982 13.2773H13.5552V9.75781C13.5552 9.20553 14.0029 8.75781 14.5552 8.75781H17.0908C18.1107 8.75781 18.9253 9.02441 19.5347 9.55762C20.144 10.0866 20.4487 10.7912 20.4487 11.6714C20.4487 12.5685 20.1589 13.2731 19.5791 13.7852C18.9993 14.293 18.1932 14.5532 17.1606 14.5659H15.1548V16.2451H16.5544C16.9103 16.2451 17.1987 16.5336 17.1987 16.8894ZM15.1548 13.2773H17.0654C17.641 13.2773 18.0811 13.144 18.3857 12.8774C18.6904 12.6108 18.8428 12.2131 18.8428 11.6841C18.8428 11.2101 18.6925 10.8229 18.3921 10.5225C18.0959 10.222 17.6854 10.0654 17.1606 10.0527H15.1548V13.2773Z" fill="#0091EA"/><path fill-rule="evenodd" clip-rule="evenodd" d="M23.7589 8.90442H34.764V13.9349H23.7589V8.90442Z" fill="#E1EAEE"/></svg>