<svg width="40" height="40" viewBox="0 0 40 40" fill="none" xmlns="http://www.w3.org/2000/svg"><g clip-path="url(#clip0)"><path d="M12.1608 4.14453H27.839V17.4189H12.1608V4.14453Z"/><path d="M31.4589 20.8563V24.5213H24.2182V20.8563H31.4589Z"/><path d="M15.7812 20.8564V24.5215H8.54055V20.8564H15.7812Z"/><path d="M16.9062 10.9065C17.1307 11.0501 17.413 11.0693 17.6551 10.9573L19.9999 9.87241L22.3447 10.9573C22.4492 11.0056 22.5612 11.0295 22.6727 11.0295C22.8197 11.0295 22.9659 10.9881 23.0936 10.9065C23.3182 10.763 23.454 10.5148 23.454 10.2483V6.44983C23.454 6.01842 23.1042 5.66858 22.6728 5.66858C22.2414 5.66858 21.8915 6.01842 21.8915 6.44983V9.026L20.328 8.30256C20.1198 8.20631 19.88 8.20631 19.6719 8.30256L18.1083 9.026V6.44983C18.1083 6.01842 17.7584 5.66858 17.327 5.66858C16.8956 5.66858 16.5458 6.01842 16.5458 6.44983V10.2483C16.5458 10.5148 16.6816 10.763 16.9062 10.9065Z" fill="#fff"/><path d="M39.2188 30.6932H36.4595V17.4188C36.4595 16.9874 36.1096 16.6376 35.6782 16.6376H4.3218C3.89039 16.6376 3.54055 16.9874 3.54055 17.4188V30.6932H0.78125C0.349844 30.6932 0 31.043 0 31.4744V35.0741C0 35.5055 0.349844 35.8553 0.78125 35.8553H39.2188C39.6502 35.8553 40 35.5055 40 35.0741V31.4744C40 31.043 39.6502 30.6932 39.2188 30.6932ZM34.897 30.6932H20.7812V18.2001H34.897V30.6932ZM5.10305 18.2001H19.2188V30.6932H5.10305V18.2001ZM38.4375 34.2928H1.5625V32.2557H38.4375V34.2928Z"/></g><defs><clipPath id="clip0"><path fill="#fff" d="M0 0H40V40H0z"/></clipPath></defs></svg>