<svg width="40" height="34" viewBox="0 0 40 34" fill="none" xmlns="http://www.w3.org/2000/svg"><path d="M18.8689 2.61303C19.0119 2.07957 19.5602 1.76299 20.0937 1.90593L37.3272 6.52362C37.8606 6.66656 38.1772 7.2149 38.0343 7.74837L31.7678 31.1352C31.6248 31.6686 31.0765 31.9852 30.543 31.8423L13.3096 27.2246C12.7761 27.0816 12.4595 26.5333 12.6025 25.9998L18.8689 2.61303Z" fill="#fff" stroke="#0091EA" stroke-width="2"/><path d="M20.7678 2.61303C20.6248 2.07957 20.0765 1.76299 19.543 1.90593L2.30957 6.52362C1.7761 6.66656 1.45952 7.2149 1.60246 7.74837L7.86893 31.1352C8.01188 31.6686 8.56021 31.9852 9.09368 31.8423L26.3271 27.2246C26.8606 27.0816 27.1772 26.5333 27.0343 25.9998L20.7678 2.61303Z" fill="#fff" stroke="#0091EA" stroke-width="2"/><path d="M9 2C9 1.44772 9.44772 1 10 1H30C30.5523 1 31 1.44772 31 2V31C31 31.5523 30.5523 32 30 32H10C9.44772 32 9 31.5523 9 31V2Z" fill="#E1EAEE" stroke="#0091EA" stroke-width="2"/><circle cx="12.5" cy="4.5" r=".5" fill="#0091EA"/><circle cx="27.5" cy="4.5" r=".5" fill="#0091EA"/><circle cx="12.5" cy="28.5" r=".5" fill="#0091EA"/><circle cx="27.5" cy="28.5" r=".5" fill="#0091EA"/><circle cx="34.5" cy="9.5" r=".5" fill="#0091EA"/><circle cx="5.5" cy="9.5" r=".5" fill="#0091EA"/><path d="M19.9999 8L22 12L26.6573 12.8369L23.5 16L24.1144 20.6631L20 18.5L15.8854 20.6631L16.5 16L13.3425 12.8369L18 12L19.9999 8Z" fill="#fff" stroke="#0091EA" stroke-width="2" stroke-linejoin="round"/></svg>