<svg width="48" height="48" viewBox="0 0 48 48" fill="none" xmlns="http://www.w3.org/2000/svg"><g clip-path="url(#clip0)"><path d="M34.64 17.6201H41.6851V47.8372H34.64V17.6201Z" fill="#E1EAEE"/><path d="M7.95569 24.0391H14.0368V47.8372H7.95569V24.0391Z" fill="#E1EAEE"/><path d="M30.7505 9.40493H26.4319C25.9138 9.40493 25.4939 9.82483 25.4939 10.3429V14.6688C25.4939 15.1869 25.9138 15.6068 26.4319 15.6068H30.7505C31.2685 15.6068 31.6884 15.1869 31.6884 14.6688V10.3429C31.6884 9.82483 31.2685 9.40493 30.7505 9.40493ZM29.8125 13.7307H27.3698V11.2809H29.8125V13.7307Z" fill="#0091EA"/><path d="M22.245 9.40493H17.9264C17.4083 9.40493 16.9884 9.82483 16.9884 10.3429V14.6688C16.9884 15.1869 17.4083 15.6068 17.9264 15.6068H22.245C22.763 15.6068 23.1829 15.1869 23.1829 14.6688V10.3429C23.183 9.82483 22.763 9.40493 22.245 9.40493ZM21.307 13.7307H18.8643V11.2809H21.307V13.7307Z" fill="#0091EA"/><path d="M30.7505 18.9276H26.4319C25.9138 18.9276 25.4939 19.3476 25.4939 19.8656V24.1915C25.4939 24.7096 25.9138 25.1295 26.4319 25.1295H30.7505C31.2685 25.1295 31.6884 24.7096 31.6884 24.1915V19.8656C31.6884 19.3476 31.2685 18.9276 30.7505 18.9276ZM29.8125 23.2535H27.3698V20.8036H29.8125V23.2535Z" fill="#0091EA"/><path d="M22.245 18.9276H17.9264C17.4083 18.9276 16.9884 19.3476 16.9884 19.8656V24.1915C16.9884 24.7096 17.4083 25.1295 17.9264 25.1295H22.245C22.763 25.1295 23.1829 24.7096 23.1829 24.1915V19.8656C23.183 19.3476 22.763 18.9276 22.245 18.9276ZM21.307 23.2535H18.8643V20.8036H21.307V23.2535Z" fill="#0091EA"/><path d="M30.7505 28.4504H26.4319C25.9138 28.4504 25.4939 28.8703 25.4939 29.3884V33.7142C25.4939 34.2323 25.9138 34.6522 26.4319 34.6522H30.7505C31.2685 34.6522 31.6884 34.2323 31.6884 33.7142V29.3884C31.6884 28.8704 31.2685 28.4504 30.7505 28.4504ZM29.8125 32.7762H27.3698V30.3263H29.8125V32.7762Z" fill="#0091EA"/><path d="M22.245 28.4504H17.9264C17.4083 28.4504 16.9884 28.8703 16.9884 29.3884V33.7142C16.9884 34.2323 17.4083 34.6522 17.9264 34.6522H22.245C22.763 34.6522 23.1829 34.2323 23.1829 33.7142V29.3884C23.183 28.8704 22.763 28.4504 22.245 28.4504ZM21.307 32.7762H18.8643V30.3263H21.307V32.7762Z" fill="#0091EA"/><path d="M43.4943 46.1241H35.578V5.24634C35.578 4.72828 35.1581 4.30838 34.64 4.30838H32.6433V0.938062C32.6433 0.419906 32.2233 0 31.7053 0H16.9715C16.4535 0 16.0336 0.419906 16.0336 0.937969V4.30828H14.0368C13.5187 4.30828 13.0988 4.72828 13.0988 5.24625V46.1241H4.5056C3.98753 46.1241 3.56763 46.544 3.56763 47.062C3.56763 47.5801 3.98753 48 4.5056 48H43.4943C44.0124 48 44.4323 47.5801 44.4323 47.062C44.4323 46.544 44.0124 46.1241 43.4943 46.1241ZM17.9095 1.87594H30.7673V4.30828H17.9095V1.87594ZM21.5163 46.1241V40.8772H27.1605V46.1241H21.5163ZM29.0365 46.1241V39.9392C29.0365 39.4211 28.6166 39.0012 28.0985 39.0012H20.5783C20.0602 39.0012 19.6403 39.4211 19.6403 39.9392V46.1241H14.9748V6.18431H33.7021V46.1241H29.0365Z" fill="#0091EA"/></g><defs><clipPath id="clip0"><path fill="#fff" d="M0 0H48V48H0z"/></clipPath></defs></svg>