<svg version="1.1" id="Слой_1" xmlns="http://www.w3.org/2000/svg" x="0" y="0" viewBox="0 0 18 18" xml:space="preserve"><style>.st0{fill:#0091ea}</style><path class="st0" d="M17,18H1c-0.6,0-1-0.4-1-1V3c0-0.6,0.4-1,1-1h16c0.6,0,1,0.4,1,1v14C18,17.6,17.6,18,17,18z M2,16h14V4H2V16z"/><path class="st0" d="M17,9H1C0.4,9,0,8.6,0,8V3c0-0.6,0.4-1,1-1h16c0.6,0,1,0.4,1,1v5C18,8.6,17.6,9,17,9z M2,7h14V4H2V7z"/><path class="st0" d="M13,6c-0.6,0-1-0.4-1-1V1c0-0.6,0.4-1,1-1s1,0.4,1,1v4C14,5.6,13.6,6,13,6z"/><path class="st0" d="M10 11H12V13H10z"/><path class="st0" d="M5,6C4.4,6,4,5.6,4,5V1c0-0.6,0.4-1,1-1s1,0.4,1,1v4C6,5.6,5.6,6,5,6z"/></svg>