<svg version="1.1" id="Слой_1" xmlns="http://www.w3.org/2000/svg" x="0" y="0" viewBox="0 0 23 20" xml:space="preserve"><style>.st0{fill:#7d939d}</style><path class="st0" d="M10.3,14.7c-1.3,0-2.6-0.9-2.9-2.2L4.6,2H1C0.4,2,0,1.6,0,1s0.4-1,1-1h4.4c0.5,0,0.9,0.3,1,0.7L7,3h15 c0.3,0,0.6,0.2,0.8,0.4C23,3.7,23,4,23,4.3l-2.1,6.8c-0.3,1.1-1.2,1.9-2.3,2.1l-7.7,1.4C10.7,14.7,10.5,14.7,10.3,14.7z M7.5,5 l1.8,6.9c0.1,0.5,0.6,0.8,1.2,0.7l7.7-1.4c0.4-0.1,0.7-0.3,0.8-0.7L20.6,5H7.5z"/><path class="st0" d="M10.5,17L10.5,17c0.8,0,1.5,0.7,1.5,1.5l0,0c0,0.8-0.7,1.5-1.5,1.5l0,0C9.7,20,9,19.3,9,18.5l0,0 C9,17.7,9.7,17,10.5,17z"/><path class="st0" d="M18.5,17L18.5,17c0.8,0,1.5,0.7,1.5,1.5l0,0c0,0.8-0.7,1.5-1.5,1.5l0,0c-0.8,0-1.5-0.7-1.5-1.5l0,0 C17,17.7,17.7,17,18.5,17z"/></svg>