<svg width="48" height="48" viewBox="0 0 48 48" fill="none" xmlns="http://www.w3.org/2000/svg"><g clip-path="url(#clip0)"><path d="M16.7832 27.3131H31.2167V42.9161H16.7832V27.3131Z" fill="#E1EAEE"/><path d="M12.2743 16.9208H35.7258V22.7413H12.2743V16.9208Z" fill="#E1EAEE"/><path d="M43.749 12.793C44.2667 12.793 44.6865 12.3733 44.6865 11.8555V5.90034C44.6865 5.38256 44.2667 4.96284 43.749 4.96284H32.9076C31.0009 1.88775 27.6379 0 24 0C20.362 0 16.999 1.88775 15.0924 4.96284H4.25085C3.73307 4.96284 3.31335 5.38256 3.31335 5.90034V11.8555C3.31335 12.3733 3.73307 12.793 4.25085 12.793H5.44082V41.9786H4.25085C3.73307 41.9786 3.31335 42.3983 3.31335 42.9161V47.0625C3.31335 47.5803 3.73307 48 4.25085 48H43.749C44.2667 48 44.6865 47.5803 44.6865 47.0625V42.9161C44.6865 42.3983 44.2667 41.9786 43.749 41.9786H42.5591V12.793H43.749ZM5.18835 6.83784H15.6303C15.9726 6.83784 16.2877 6.65128 16.4523 6.35119C17.9665 3.59016 20.8586 1.875 24 1.875C27.1413 1.875 30.0333 3.59016 31.5477 6.35109C31.7122 6.65128 32.0273 6.83775 32.3697 6.83775H42.8116V10.9179H5.18835V6.83784ZM42.8115 46.125H5.18835V43.8536H42.8115V46.125ZM40.6841 41.9786H24.9375V31.5658C24.9375 31.048 24.5176 30.6283 24 30.6283C23.4822 30.6283 23.0625 31.048 23.0625 31.5658V41.9786H7.31582V12.793H40.6841V41.9786Z" fill="#0091EA"/><path d="M14.589 28.2506H33.4108C33.9285 28.2506 34.3483 27.8309 34.3483 27.3131C34.3483 26.7953 33.9285 26.3756 33.4108 26.3756H14.589C14.0712 26.3756 13.6515 26.7953 13.6515 27.3131C13.6515 27.8309 14.0712 28.2506 14.589 28.2506Z" fill="#0091EA"/></g><defs><clipPath id="clip0"><path fill="#fff" d="M0 0H48V48H0z"/></clipPath></defs></svg>