<svg width="38" height="42" viewBox="0 0 38 42" fill="none" xmlns="http://www.w3.org/2000/svg"><path d="M25 19.935H31C31.5523 19.935 32 20.3827 32 20.935V31.935C32 32.4873 31.5523 32.935 31 32.935H17.5M16.5 19.935H7C6.44772 19.935 6 20.3827 6 20.935V31.935C6 32.4873 6.44772 32.935 7 32.935H12" stroke="#0091EA" stroke-width="2"/><path d="M8.71709 25.6928C6.52966 29.4815 7.82778 34.3262 11.6165 36.5136C15.4052 38.701 20.2499 37.4029 22.4373 33.6142L30.9766 18.8236C31.2527 18.3454 31.0889 17.7338 30.6106 17.4576L18.6224 10.5363C18.1441 10.2601 17.5325 10.424 17.2564 10.9023L8.71709 25.6928Z" fill="#E1EAEE" stroke="#0091EA" stroke-width="2"/><circle cx="20.402" cy="15.605" r=".5" transform="rotate(30 20.402 15.605)" fill="#0091EA"/><circle cx="22.134" cy="16.605" r=".5" transform="rotate(30 22.134 16.605)" fill="#0091EA"/><circle cx="23.866" cy="17.605" r=".5" transform="rotate(30 23.866 17.605)" fill="#0091EA"/><circle cx="25.598" cy="18.605" r=".5" transform="rotate(30 25.598 18.605)" fill="#0091EA"/><path d="M2 35.9351C2 36.4874 2.44772 36.9351 3 36.9351H5C5.55228 36.9351 6 36.4874 6 35.9351V16.9351C6 16.3828 5.55229 15.9351 5 15.9351H3C2.44772 15.9351 2 16.3828 2 16.9351V35.9351Z" fill="#E1EAEE" stroke="#0091EA" stroke-width="2"/><path d="M1 31.4351C1 31.7113 1.22386 31.9351 1.5 31.9351C1.77614 31.9351 2 31.7113 2 31.4351V21.4351C2 21.159 1.77614 20.9351 1.5 20.9351C1.22386 20.9351 1 21.159 1 21.4351V31.4351Z" fill="#E1EAEE" stroke="#0091EA" stroke-width="2"/><path d="M32 35.9351C32 36.4873 32.4477 36.9351 33 36.9351H35C35.5523 36.9351 36 36.4873 36 35.9351V16.9351C36 16.3828 35.5523 15.9351 35 15.9351H33C32.4477 15.9351 32 16.3828 32 16.9351V35.9351Z" fill="#E1EAEE" stroke="#0091EA" stroke-width="2"/><mask id="path-10-inside-1_1440_37570" fill="#fff"><path d="M36 31.9351C36 32.4874 36.4477 32.9351 37 32.9351C37.5523 32.9351 38 32.4874 38 31.9351V20.9351C38 20.3828 37.5523 19.9351 37 19.9351C36.4477 19.9351 36 20.3828 36 20.9351V31.9351Z"/></mask><path d="M36 31.9351C36 32.4874 36.4477 32.9351 37 32.9351C37.5523 32.9351 38 32.4874 38 31.9351V20.9351C38 20.3828 37.5523 19.9351 37 19.9351C36.4477 19.9351 36 20.3828 36 20.9351V31.9351Z" fill="#E1EAEE"/><path d="M36 31.9351V20.9351H40V31.9351H36ZM38 20.9351V31.9351H34V20.9351H38ZM37 21.9351C37.5523 21.9351 38 21.4874 38 20.9351H34C34 19.2783 35.3431 17.9351 37 17.9351V21.9351ZM36 20.9351C36 21.4874 36.4477 21.9351 37 21.9351V17.9351C38.6569 17.9351 40 19.2783 40 20.9351H36ZM37 30.9351C36.4477 30.9351 36 31.3828 36 31.9351H40C40 33.592 38.6569 34.9351 37 34.9351V30.9351ZM37 34.9351C35.3431 34.9351 34 33.592 34 31.9351H38C38 31.3828 37.5523 30.9351 37 30.9351V34.9351Z" fill="#0091EA" mask="url(#path-10-inside-1_1440_37570)"/><path d="M26.049 14.8242C26.5272 15.1003 27.1388 14.9364 27.415 14.4581L28.415 12.7261C28.6911 12.2478 28.5272 11.6362 28.049 11.3601L25.4509 9.86006C24.9726 9.58392 24.361 9.74779 24.0849 10.2261L23.0849 11.9581C22.8087 12.4364 22.9726 13.048 23.4509 13.3242L26.049 14.8242Z" fill="#fff" stroke="#0091EA" stroke-width="2"/><path d="M30.6471 12.86C31.1254 13.1362 31.737 12.9723 32.0131 12.494L34.7624 7.73211C35.0386 7.25382 34.8747 6.64223 34.3964 6.36608L26.6022 1.86608C26.1239 1.58994 25.5123 1.75382 25.2361 2.23211L22.4868 6.99402C22.2107 7.47232 22.3746 8.08391 22.8529 8.36005L30.6471 12.86Z" fill="#E1EAEE" stroke="#0091EA" stroke-width="2"/><path d="M29.5 2.93512L25.5 9.93512" stroke="#0091EA" stroke-linecap="round" stroke-linejoin="round"/><path d="M31.5 4.93512L28 11.4351" stroke="#0091EA" stroke-linecap="round" stroke-linejoin="round"/></svg>