<svg width="48" height="48" viewBox="0 0 48 48" fill="none" xmlns="http://www.w3.org/2000/svg"><g clip-path="url(#clip0)"><path fill-rule="evenodd" clip-rule="evenodd" d="M9.17017 8.47803H47.0624V15.2129H9.17017V8.47803Z" fill="#E1EAEE"/><path fill-rule="evenodd" clip-rule="evenodd" d="M5.59592 30.4697H12.3857C12.7817 30.4697 13.1059 30.1462 13.1059 29.7485V25.6493C13.1059 25.2542 12.7817 24.9307 12.3857 24.9307H5.59592C5.19992 24.9307 4.87573 25.2542 4.87573 25.6493V29.7485C4.87583 30.1463 5.20001 30.4697 5.59592 30.4697Z" fill="#E1EAEE"/><path d="M45.3963 1.4552H10.8337C9.39956 1.4552 8.23266 2.62154 8.23266 4.05517V20.0635H2.60372C1.16803 20.0636 0 21.23 0 22.6636V43.9474C0 45.3795 1.16803 46.5447 2.60372 46.5447H37.1636C38.5993 46.5447 39.7673 45.3795 39.7673 43.9474V27.9364H45.3963C46.832 27.9364 48 26.7712 48 25.339V4.05526C48 2.62164 46.832 1.4552 45.3963 1.4552ZM37.8923 43.9474C37.8923 44.3457 37.5654 44.6697 37.1636 44.6697H2.60372C2.20191 44.6697 1.875 44.3457 1.875 43.9474V22.6636C1.875 22.2638 2.20191 21.9386 2.60372 21.9386H37.1636C37.5654 21.9386 37.8923 22.2639 37.8923 22.6636V43.9474ZM46.125 25.339C46.125 25.7306 45.7912 26.0614 45.3963 26.0614H39.7673V22.6636C39.7673 21.23 38.5993 20.0636 37.1636 20.0636H10.1077V4.05526C10.1077 3.65542 10.4333 3.33029 10.8337 3.33029H45.3963C45.7981 3.33029 46.125 3.65551 46.125 4.05526V25.339Z" fill="#0091EA"/><path d="M17.7617 40.7429H4.87585C4.35807 40.7429 3.93835 41.1627 3.93835 41.6804C3.93835 42.1981 4.35807 42.6179 4.87585 42.6179H17.7617C18.2795 42.6179 18.6992 42.1981 18.6992 41.6804C18.6992 41.1627 18.2795 40.7429 17.7617 40.7429Z" fill="#0091EA"/><path d="M4.87585 38.5424H12.1359C12.6537 38.5424 13.0734 38.1225 13.0734 37.6049C13.0734 37.0872 12.6537 36.6674 12.1359 36.6674H4.87585C4.35807 36.6674 3.93835 37.0872 3.93835 37.6049C3.93835 38.1225 4.35807 38.5424 4.87585 38.5424Z" fill="#0091EA"/><path d="M30.6794 34.6364C28.4744 34.6364 26.6805 36.4261 26.6805 38.6259C26.6805 40.827 28.4744 42.6179 30.6794 42.6179C32.8829 42.6179 34.6756 40.827 34.6756 38.6259C34.6756 36.4261 32.8829 34.6364 30.6794 34.6364ZM30.6794 40.7429C29.5083 40.7429 28.5555 39.7932 28.5555 38.6259C28.5555 37.4599 29.5083 36.5114 30.6794 36.5114C31.8491 36.5114 32.8006 37.4599 32.8006 38.6259C32.8006 39.7932 31.8491 40.7429 30.6794 40.7429Z" fill="#0091EA"/></g><defs><clipPath id="clip0"><path fill="#fff" d="M0 0H48V48H0z"/></clipPath></defs></svg>