<svg width="15" height="19" viewBox="0 0 15 19" fill="none" xmlns="http://www.w3.org/2000/svg"><path fill-rule="evenodd" clip-rule="evenodd" d="M5 0.5C4.44772 0.5 4 0.947715 4 1.5C4 2.05228 4.44772 2.5 5 2.5H10C10.5523 2.5 11 2.05228 11 1.5C11 0.947715 10.5523 0.5 10 0.5H5ZM0 4.5C0 3.94772 0.447715 3.5 1 3.5H14C14.5523 3.5 15 3.94772 15 4.5C15 5.05228 14.5523 5.5 14 5.5H1C0.447715 5.5 0 5.05228 0 4.5ZM1 7C1 6.44772 1.44772 6 2 6H13C13.5523 6 14 6.44772 14 7V18C14 18.5523 13.5523 19 13 19H2C1.44772 19 1 18.5523 1 18V7ZM3 8V17H12V8H3Z" fill="#0091EA"/></svg>