<svg width="16" height="12" viewBox="0 0 16 12" fill="none" xmlns="http://www.w3.org/2000/svg"><path fill-rule="evenodd" clip-rule="evenodd" d="M1 0C0.447715 0 0 0.447715 0 1V9.5C0 10.0523 0.447715 10.5 1 10.5H2C2 11.3284 2.67157 12 3.5 12C4.32843 12 5 11.3284 5 10.5H9.5H11C11 11.3284 11.6716 12 12.5 12C13.3284 12 14 11.3284 14 10.5H15C15.5523 10.5 16 10.0523 16 9.5V6C16 5.73478 15.8946 5.48043 15.7071 5.29289L12.7071 2.29289C12.5196 2.10536 12.2652 2 12 2H10.5V1C10.5 0.447715 10.0523 0 9.5 0H5.5H1ZM10.5 4V8.5H14V6.41421L11.5858 4H10.5ZM8.5 3V2H5.5H2V8.5H8.5V3Z" fill="#27AE60"/></svg>