<svg width="16" height="14" viewBox="0 0 16 14" fill="none" xmlns="http://www.w3.org/2000/svg"><path d="M0.175681 0.28687C0.292856 0.169728 0.432052 0.110962 0.592328 0.110962H10.074C10.2344 0.110962 10.3734 0.169728 10.4906 0.28687C10.6079 0.404174 10.6665 0.543143 10.6665 0.703613V2.48144H12.1481C12.3148 2.48144 12.4954 2.52156 12.6899 2.60179C12.8843 2.68216 13.0401 2.78075 13.1574 2.89805L14.9908 4.73143C15.071 4.81167 15.1404 4.90419 15.1991 5.00921C15.2577 5.11396 15.301 5.20834 15.3288 5.29152C15.3565 5.37494 15.3767 5.489 15.3889 5.63419C15.4012 5.77932 15.409 5.8858 15.4121 5.95374C15.415 6.02159 15.415 6.13892 15.4121 6.30562C15.409 6.47238 15.4074 6.58031 15.4074 6.62977V9.5927C15.5679 9.5927 15.7067 9.65131 15.8241 9.76874C15.9413 9.88579 16 10.0248 16 10.1853C16 10.2778 15.9877 10.3597 15.963 10.4306C15.9383 10.5016 15.8967 10.5586 15.8379 10.6019C15.7793 10.6452 15.7284 10.6806 15.6852 10.7085C15.6419 10.7362 15.5694 10.7547 15.4675 10.764C15.3657 10.7733 15.2963 10.7795 15.2592 10.7826C15.2222 10.7855 15.1435 10.7855 15.0232 10.7826C14.9027 10.7795 14.8333 10.7779 14.8147 10.7779H14.2222C14.2222 11.4321 13.9906 11.9908 13.5278 12.4538C13.0648 12.9167 12.5062 13.1483 11.8518 13.1483C11.1975 13.1483 10.6388 12.9167 10.1759 12.4538C9.71288 11.9908 9.48152 11.4321 9.48152 10.7779H5.92583C5.92583 11.4321 5.69431 11.9908 5.23141 12.4538C4.76858 12.9167 4.20989 13.1483 3.55552 13.1483C2.90102 13.1483 2.34268 12.9167 1.87963 12.4538C1.4166 11.9908 1.18521 11.4321 1.18521 10.7779C1.16679 10.7779 1.09728 10.7795 0.976996 10.7826C0.856579 10.7855 0.777867 10.7855 0.74083 10.7826C0.70373 10.7795 0.634164 10.7733 0.532394 10.764C0.430592 10.7547 0.358141 10.7362 0.314845 10.7085C0.271549 10.6807 0.220761 10.6452 0.162125 10.6019C0.103424 10.5586 0.0616856 10.5016 0.0370703 10.4306C0.0120974 10.3596 9.53674e-07 10.2778 9.53674e-07 10.1853V0.703711C-0.0001297 0.543208 0.0584745 0.404401 0.175681 0.28687ZM11.0186 11.6113C11.2531 11.8457 11.531 11.9633 11.8519 11.9633C12.1729 11.9633 12.4507 11.8459 12.6853 11.6113C12.9199 11.3769 13.0371 11.0989 13.0371 10.778C13.0371 10.457 12.9198 10.179 12.6853 9.94449C12.4508 9.71007 12.173 9.59267 11.8519 9.59267C11.531 9.59267 11.2531 9.70998 11.0186 9.94449C10.784 10.179 10.6667 10.457 10.6667 10.778C10.6667 11.0989 10.784 11.3769 11.0186 11.6113ZM10.6667 6.03706H14.2223V5.75938C14.2223 5.67911 14.1946 5.6112 14.139 5.55561L12.3334 3.75009C12.2779 3.6945 12.2099 3.66681 12.1297 3.66681H10.6667V6.03706ZM2.72226 11.6113C2.95674 11.8457 3.23458 11.9633 3.55552 11.9633C3.87659 11.9633 4.15453 11.8459 4.38901 11.6113C4.62352 11.3769 4.74086 11.0989 4.74086 10.778C4.74086 10.457 4.62355 10.179 4.38901 9.94449C4.15453 9.71007 3.87659 9.59267 3.55552 9.59267C3.23458 9.59267 2.95674 9.70998 2.72226 9.94449C2.48775 10.1791 2.37031 10.457 2.37031 10.778C2.37031 11.0989 2.48752 11.3769 2.72226 11.6113Z" fill="#0091EA"/></svg>