<svg width="18" height="18" viewBox="0 0 18 18" fill="none" xmlns="http://www.w3.org/2000/svg"><path fill-rule="evenodd" clip-rule="evenodd" d="M8.74637 12.5961C10.8544 12.5961 12.5634 10.8872 12.5634 8.7791C12.5634 8.65824 12.5578 8.53869 12.5468 8.42069L17.5255 5.54623V8.7791V17.5582H12.5634V16.6872C11.4092 17.2453 10.1143 17.5582 8.74637 17.5582C4.15501 17.5582 0.386856 14.0336 0 9.5425H5.00572C5.35938 11.2848 6.89974 12.5961 8.74637 12.5961ZM12.0836 6.92508C11.4318 5.7542 10.1816 4.9621 8.74637 4.9621C6.89974 4.9621 5.35938 6.27344 5.00572 8.0157H0C0.386856 3.52459 4.15501 0 8.74637 0C10.1143 0 11.4092 0.312877 12.5634 0.870975V0H17.5255V3.78324L12.0836 6.92508Z" fill="#3784F7"/><path d="M10.2731 8.779C10.2731 9.62223 9.58951 10.3058 8.74628 10.3058C7.90305 10.3058 7.21948 9.62223 7.21948 8.779C7.21948 7.93577 7.90305 7.2522 8.74628 7.2522C9.58951 7.2522 10.2731 7.93577 10.2731 8.779Z" fill="#27AE60"/></svg>