<svg width="48" height="48" viewBox="0 0 48 48" fill="none" xmlns="http://www.w3.org/2000/svg"><g clip-path="url(#clip0)"><path fill-rule="evenodd" clip-rule="evenodd" d="M29.9903 43.5441H11.1983V48H42.1956V9.25348H37.7395V35.7947L29.9903 43.5441Z" fill="#E1EAEE"/><path d="M37.7396 3.85975H15.4295V2.86025C15.2711 -0.95487 9.83622 -0.951963 9.67924 2.86025V3.85975H6.74236C6.22442 3.85975 5.80457 4.2796 5.80457 4.79754V43.5441C5.80457 44.062 6.22442 44.4819 6.74236 44.4819H29.9903C30.239 44.4819 30.4776 44.383 30.6534 44.2072L38.4027 36.4578C38.5785 36.282 38.6773 36.0435 38.6773 35.7947V4.79754C38.6773 4.2796 38.2575 3.85975 37.7396 3.85975ZM11.5548 2.86025C11.6099 1.53393 13.4993 1.53496 13.5539 2.86025V3.85975H11.5548V2.86025ZM7.68015 5.73533H13.5539V8.67221C13.4989 9.99844 11.6095 9.99769 11.5548 8.67221C11.5057 7.42851 9.72847 7.42842 9.67924 8.67221C9.83726 12.4866 15.2722 12.4852 15.4295 8.67221V5.73533H36.8018V34.8569H29.9903C29.4724 34.8569 29.0525 35.2768 29.0525 35.7947V42.6063H7.68015V5.73533ZM35.4755 36.7325L30.9281 41.2801V36.7325H35.4755Z" fill="#0091EA"/><path d="M28.0529 11.5474H33.8649C35.1091 11.4979 35.1082 9.72086 33.8649 9.67181H28.0529C26.8086 9.72133 26.8096 11.4983 28.0529 11.5474Z" fill="#0091EA"/><path d="M10.617 15.7449H33.865C35.1092 15.6953 35.1083 13.9183 33.865 13.8693H10.617C9.37267 13.9189 9.3737 15.6958 10.617 15.7449Z" fill="#0091EA"/><path d="M10.617 19.9424H33.865C35.1092 19.8929 35.1083 18.1159 33.865 18.0668H10.617C9.37267 18.1163 9.3737 19.8934 10.617 19.9424Z" fill="#0091EA"/><path d="M10.617 24.1399H22.241C23.4853 24.0904 23.4844 22.3134 22.241 22.2643H10.617C9.37267 22.3139 9.3737 24.0909 10.617 24.1399Z" fill="#0091EA"/><path d="M10.617 28.3375H33.865C35.1092 28.288 35.1083 26.511 33.865 26.4619H10.617C9.37267 26.5114 9.3737 28.2884 10.617 28.3375Z" fill="#0091EA"/><path d="M10.617 32.5351H33.865C35.1092 32.4856 35.1083 30.7086 33.865 30.6595H10.617C9.37267 30.7091 9.3737 32.486 10.617 32.5351Z" fill="#0091EA"/><path d="M16.429 34.8569H10.6169C9.37266 34.9064 9.3736 36.6835 10.6169 36.7325H16.429C17.6732 36.683 17.6723 34.906 16.429 34.8569Z" fill="#0091EA"/></g><defs><clipPath id="clip0"><path fill="#fff" d="M0 0H48V48H0z"/></clipPath></defs></svg>