<svg width="48" height="48" viewBox="0 0 48 48" fill="none" xmlns="http://www.w3.org/2000/svg"><g clip-path="url(#clip0)"><path fill-rule="evenodd" clip-rule="evenodd" d="M29.9903 43.544H11.1982V47.9999H42.1955V9.25342H37.7395V35.7947L29.9903 43.544Z" fill="#E1EAEE"/><path d="M37.7397 3.85975H15.4296V2.86025C15.2712 -0.954871 9.83635 -0.951964 9.67936 2.86025V3.85975H6.74248C6.22454 3.85975 5.80469 4.2796 5.80469 4.79754V43.5441C5.80469 44.062 6.22454 44.4819 6.74248 44.4819H29.9904C30.2391 44.4819 30.4777 44.383 30.6535 44.2072L38.4028 36.4578C38.5786 36.282 38.6775 36.0435 38.6775 35.7947V4.79754C38.6775 4.2796 38.2576 3.85975 37.7397 3.85975ZM11.5549 2.86025C11.61 1.53393 13.4995 1.53497 13.554 2.86025V3.85975H11.5549V2.86025ZM7.68027 5.73533H13.554V8.67221C13.499 9.99844 11.6096 9.99769 11.5549 8.67221C11.5058 7.42851 9.72859 7.42842 9.67936 8.67221C9.83738 12.4866 15.2723 12.4852 15.4296 8.67221V5.73533H36.8019V34.8569H29.9904C29.4725 34.8569 29.0526 35.2768 29.0526 35.7947V42.6063H7.68027V5.73533ZM35.4757 36.7325L30.9282 41.2801V36.7325H35.4757Z" fill="#3784F7"/><path d="M28.053 11.5472H33.8649C35.1092 11.4977 35.1082 9.72068 33.8649 9.67163H28.053C26.8087 9.72115 26.8096 11.4981 28.053 11.5472Z" fill="#3784F7"/><path d="M10.617 15.745H33.8649C35.1092 15.6955 35.1082 13.9184 33.8649 13.8694H10.617C9.37261 13.919 9.37364 15.6959 10.617 15.745Z" fill="#3784F7"/><path d="M10.617 19.9425H33.8649C35.1092 19.893 35.1082 18.1159 33.8649 18.0669H10.617C9.37261 18.1164 9.37364 19.8934 10.617 19.9425Z" fill="#3784F7"/><path d="M10.617 24.14H22.241C23.4852 24.0905 23.4843 22.3135 22.241 22.2644H10.617C9.37261 22.3139 9.37364 24.0909 10.617 24.14Z" fill="#3784F7"/><path d="M10.617 28.3375H33.8649C35.1092 28.288 35.1082 26.511 33.8649 26.4619H10.617C9.37261 26.5114 9.37364 28.2883 10.617 28.3375Z" fill="#3784F7"/><path d="M10.617 32.535H33.8649C35.1092 32.4855 35.1082 30.7085 33.8649 30.6594H10.617C9.37261 30.7089 9.37364 32.4859 10.617 32.535Z" fill="#3784F7"/><path d="M16.429 34.8569H10.6169C9.37266 34.9064 9.3736 36.6835 10.6169 36.7325H16.429C17.6733 36.683 17.6723 34.906 16.429 34.8569Z" fill="#3784F7"/></g><defs><clipPath id="clip0"><path fill="#fff" d="M0 0H48V48H0z"/></clipPath></defs></svg>