<svg width="44" height="35" viewBox="0 0 44 35" fill="#fff" xmlns="http://www.w3.org/2000/svg"><path d="M5 8C5 7.44772 5.44771 7 6 7H38C38.5523 7 39 7.44772 39 8V33C39 33.5523 38.5523 34 38 34H6C5.44772 34 5 33.5523 5 33V8Z" stroke="#0091EA" stroke-width="2"/><path d="M39 12.7513C39 12.0803 39.6574 11.6065 40.2939 11.8187C41.91 12.3574 43 13.8698 43 15.5732V25.4268C43 27.1302 41.91 28.6426 40.2939 29.1813C39.6574 29.3935 39 28.9197 39 28.2487V12.7513Z" fill="#E1EAEE" stroke="#0091EA" stroke-width="2"/><path d="M5 12.7513C5 12.0803 4.34264 11.6065 3.7061 11.8187C2.09004 12.3574 1 13.8698 1 15.5732V25.4268C1 27.1302 2.09004 28.6426 3.7061 29.1813C4.34264 29.3935 5 28.9197 5 28.2487V12.7513Z" fill="#E1EAEE" stroke="#0091EA" stroke-width="2"/><path d="M5 19C5 19.5523 5.44772 20 6 20H38C38.5523 20 39 19.5523 39 19V11C39 10.4477 38.5523 10 38 10H6C5.44772 10 5 10.4477 5 11V19Z" fill="#E1EAEE" stroke="#0091EA" stroke-width="2"/><path d="M5 21C5 20.4477 5.44772 20 6 20H38C38.5523 20 39 20.4477 39 21V30C39 30.5523 38.5523 31 38 31H6C5.44772 31 5 30.5523 5 30V21Z" stroke="#0091EA" stroke-width="2"/><path d="M16 7H28V5C28 4.44772 27.5523 4 27 4H17C16.4477 4 16 4.44772 16 5V7Z" stroke="#0091EA" stroke-width="2"/><path d="M18.2749 1.4855L16.7662 4H27.2338L25.7251 1.4855C25.5444 1.1843 25.2189 1 24.8676 1H19.1324C18.7811 1 18.4556 1.1843 18.2749 1.4855Z" stroke="#0091EA" stroke-width="2"/><path d="M16.1773 13.575L17 13.1344L17.8227 13.575L18.6157 14.0672L18.6455 15L18.6157 15.9328L17.8227 16.425L17 16.8656L16.1773 16.425L15.3843 15.9328L15.3545 15L15.3843 14.0672L16.1773 13.575Z" stroke="#0091EA" stroke-width="2"/><path d="M26.1773 13.575L27 13.1344L27.8227 13.575L28.6157 14.0672L28.6455 15L28.6157 15.9328L27.8227 16.425L27 16.8656L26.1773 16.425L25.3843 15.9328L25.3545 15L25.3843 14.0672L26.1773 13.575Z" stroke="#0091EA" stroke-width="2"/><circle cx="19.5" cy="25.5" r="1" stroke="#0091EA"/><circle cx="24.5" cy="25.5" r="1" stroke="#0091EA"/><circle cx="19.5" cy="22.5" r=".5" fill="#0091EA"/><circle cx="17.5" cy="22.5" r=".5" fill="#0091EA"/><circle cx="26.5" cy="28.5" r=".5" fill="#0091EA"/><circle cx="24.5" cy="28.5" r=".5" fill="#0091EA"/></svg>