<svg width="48" height="48" viewBox="0 0 48 48" fill="none" xmlns="http://www.w3.org/2000/svg"><path d="M24.0002 38.12C31.875 38.12 38.2588 31.7982 38.2588 23.9999C38.2588 16.2016 31.875 9.87988 24.0002 9.87988C16.1255 9.87988 9.7417 16.2016 9.7417 23.9999C9.7417 31.7982 16.1255 38.12 24.0002 38.12Z" fill="#E1EAEE"/><path d="M45.4077 18.0426H44.7924C44.3474 16.5153 43.7312 15.0427 42.9539 13.6487L43.3877 13.2191C43.8781 12.7335 44.1482 12.0876 44.1482 11.4003C44.1482 10.7131 43.8781 10.0671 43.3878 9.58159L38.5552 4.79575C37.5451 3.79543 35.9016 3.79543 34.8915 4.79575L34.4565 5.22662C33.0449 4.45337 31.5535 3.84071 30.0067 3.39887V2.79456C30.0067 1.37725 28.8438 0.224121 27.4145 0.224121H20.5857C19.1563 0.224121 17.9935 1.37725 17.9935 2.79456V3.39887C16.4467 3.84081 14.9552 4.45337 13.5437 5.22662L13.1087 4.79593C12.0986 3.79534 10.4551 3.79553 9.44494 4.79575L4.61222 9.5815C4.12191 10.0672 3.85181 10.7132 3.85181 11.4004C3.85181 12.0876 4.12191 12.7336 4.61222 13.2191L5.046 13.6487C4.26872 15.0427 3.6525 16.5153 3.20747 18.0426H2.59219C1.16287 18.0426 0 19.1957 0 20.6132V27.387C0 28.8043 1.16287 29.9574 2.59228 29.9574H3.20756C3.65259 31.4847 4.26881 32.9574 5.04609 34.3514L4.61231 34.7809C4.12191 35.2665 3.85181 35.9123 3.85181 36.5996C3.85181 37.2869 4.12181 37.9329 4.61222 38.4185L9.44484 43.2043C10.4549 44.2046 12.0984 44.2046 13.1085 43.2043L13.5435 42.7734C14.955 43.5467 16.4465 44.1593 17.9933 44.6012V45.2056C17.9933 46.6229 19.1562 47.776 20.5855 47.776H27.4143C28.8437 47.776 30.0065 46.6229 30.0065 45.2056V44.6012C31.5533 44.1593 33.0448 43.5467 34.4563 42.7734L34.8913 43.2043C35.9014 44.2046 37.5449 44.2046 38.555 43.2043L43.3876 38.4185C43.878 37.9328 44.1481 37.2869 44.148 36.5996C44.148 35.9123 43.8779 35.2664 43.3875 34.7809L42.9538 34.3514C43.7312 32.9573 44.3473 31.4847 44.7923 29.9574H45.4076C46.837 29.9574 47.9999 28.8043 47.9999 27.387V20.6132C48 19.1957 46.8371 18.0426 45.4077 18.0426ZM46.125 27.387C46.125 27.7704 45.8032 28.0824 45.4077 28.0824H44.0766C43.6478 28.0824 43.2736 28.3734 43.1679 28.789C42.7002 30.629 41.9631 32.39 40.9768 34.023C40.753 34.3936 40.8121 34.8692 41.1196 35.1737L42.0683 36.1132C42.2004 36.2441 42.2731 36.4168 42.2731 36.5998C42.2732 36.7828 42.2004 36.9556 42.0682 37.0863L37.2356 41.8721C36.9531 42.152 36.4933 42.1518 36.2107 41.8721L35.2702 40.9406C34.9673 40.6405 34.4998 40.5827 34.1328 40.8001C32.4824 41.7777 30.7024 42.5085 28.8423 42.972C28.4246 43.076 28.1315 43.4511 28.1315 43.8816V45.2057C28.1315 45.5891 27.8097 45.9011 27.4143 45.9011H20.5855C20.1901 45.9011 19.8683 45.5891 19.8683 45.2057V43.8816C19.8683 43.4511 19.5753 43.076 19.1575 42.972C17.2973 42.5084 15.5174 41.7777 13.867 40.8001C13.7185 40.712 13.5535 40.6692 13.3896 40.6692C13.1486 40.6692 12.9099 40.7619 12.7296 40.9406L11.7891 41.8721C11.5065 42.1518 11.0467 42.1518 10.7641 41.8721L5.93156 37.0863C5.79947 36.9556 5.72672 36.7828 5.72672 36.5998C5.72672 36.4169 5.79947 36.2441 5.93156 36.1132L6.88031 35.1737C7.18791 34.8692 7.24697 34.3936 7.02319 34.023C6.03694 32.39 5.29978 30.629 4.83206 28.789C4.72641 28.3733 4.35225 28.0824 3.92344 28.0824H2.59228C2.19675 28.0824 1.875 27.7704 1.875 27.387V20.6132C1.875 20.2296 2.19675 19.9176 2.59228 19.9176H3.92344C4.35225 19.9176 4.72641 19.6266 4.83206 19.2111C5.29978 17.371 6.03694 15.6101 7.02319 13.9772C7.24697 13.6066 7.18791 13.131 6.88031 12.8264L5.93156 11.8868C5.79947 11.756 5.72672 11.5833 5.72672 11.4003C5.72672 11.2173 5.79947 11.0445 5.93156 10.9138L10.7642 6.12803C11.0468 5.84828 11.5066 5.84828 11.7892 6.12812L12.7297 7.05953C13.0327 7.35962 13.5001 7.41747 13.8671 7.20006C15.5175 6.22253 17.2974 5.49175 19.1576 5.02815C19.5753 4.92409 19.8684 4.5489 19.8684 4.1185V2.79446C19.8684 2.41103 20.1902 2.09903 20.5856 2.09903H27.4144C27.8098 2.09903 28.1316 2.41103 28.1316 2.79446V4.1184C28.1316 4.54881 28.4246 4.924 28.8424 5.02806C30.7024 5.49165 32.4824 6.22243 34.1329 7.19997C34.4998 7.41728 34.9673 7.35943 35.2703 7.05943L36.2108 6.12803C36.4934 5.84828 36.9533 5.84828 37.2358 6.12803L42.0684 10.9139C42.2005 11.0447 42.2733 11.2174 42.2733 11.4003C42.2733 11.5832 42.2005 11.7561 42.0684 11.8868L41.1197 12.8264C40.8121 13.131 40.753 13.6066 40.9769 13.9772C41.9632 15.6101 42.7003 17.371 43.168 19.2111C43.2737 19.6267 43.6478 19.9176 44.0767 19.9176H45.4078C45.8033 19.9176 46.1251 20.2296 46.1251 20.6132V27.387H46.125Z" fill="#3784F7"/><path d="M24 16.4414C17.445 16.4414 12.9046 23.1954 12.7145 23.483C12.5073 23.7965 12.5073 24.2035 12.7145 24.5169C12.9046 24.8045 17.445 31.5585 24 31.5585C30.555 31.5585 35.0954 24.8045 35.2854 24.5169C35.4927 24.2034 35.4927 23.7965 35.2854 23.483C35.0954 23.1954 30.555 16.4414 24 16.4414ZM24 29.6836C19.4217 29.6836 15.7985 25.49 14.656 24C15.799 22.5094 19.422 18.3164 24 18.3164C28.578 18.3164 32.2008 22.5094 33.3438 24C32.2008 25.4906 28.578 29.6836 24 29.6836Z" fill="#3784F7"/><path d="M24.0002 19.8665C21.721 19.8665 19.8667 21.7207 19.8667 24C19.8667 26.2792 21.721 28.1335 24.0002 28.1335C26.2795 28.1335 28.1338 26.2792 28.1338 24C28.1338 21.7207 26.2794 19.8665 24.0002 19.8665ZM24.0002 26.2585C22.7549 26.2585 21.7417 25.2454 21.7417 24C21.7417 22.7546 22.7549 21.7415 24.0002 21.7415C25.2456 21.7415 26.2588 22.7546 26.2588 24C26.2588 25.2454 25.2456 26.2585 24.0002 26.2585Z" fill="#3784F7"/></svg>