<svg width="40" height="40" viewBox="0 0 40 40" fill="none" xmlns="http://www.w3.org/2000/svg"><path d="M20 31.7667C26.5623 31.7667 31.8821 26.4986 31.8821 20C31.8821 13.5014 26.5623 8.23328 20 8.23328C13.4377 8.23328 8.11792 13.5014 8.11792 20C8.11792 26.4986 13.4377 31.7667 20 31.7667Z"/><path fill-rule="evenodd" clip-rule="evenodd" d="M12.5592 14.9468C12.5868 14.6234 12.8574 14.375 13.1819 14.375H14.8959C15.2166 14.375 15.4853 14.6178 15.5177 14.9368L16.1106 20.7746L19.6876 22.8658L23.2646 20.7746L23.8575 14.9368C23.8899 14.6178 24.1585 14.375 24.4793 14.375H26.1933C26.5178 14.375 26.7884 14.6234 26.816 14.9468L27.085 18.095C27.3638 21.3592 26.4118 24.6098 24.4161 27.2078L22.7605 29.363V32.5C22.7605 32.8452 22.4807 33.125 22.1355 33.125H17.2397C16.8945 33.125 16.6147 32.8452 16.6147 32.5V29.363L14.9591 27.2078C12.9633 24.6098 12.0113 21.3592 12.2902 18.095L12.5592 14.9468ZM13.7558 15.625L13.5357 18.2014C13.2834 21.1548 14.1447 24.0957 15.9504 26.4463L17.7353 28.7699C17.8192 28.8791 17.8647 29.0129 17.8647 29.1506V31.875H21.5105V29.1506C21.5105 29.0129 21.556 28.8791 21.6399 28.7699L23.4248 26.4463C25.2305 24.0957 26.0918 21.1548 25.8395 18.2014L25.6194 15.625H25.044L24.5082 20.9009C24.4678 21.2982 24.2401 21.6522 23.8954 21.8537L20.3185 23.9449C19.9287 24.1727 19.4464 24.1727 19.0567 23.9449L15.4798 21.8537C15.1351 21.6522 14.9074 21.2982 14.867 20.9009L14.3312 15.625H13.7558Z" fill="#fff"/><path d="M37.8398 15.0355H37.327C36.9562 13.7628 36.4427 12.5356 35.7949 11.3739L36.1564 11.0159C36.5651 10.6112 36.7902 10.073 36.7902 9.50028C36.7902 8.92755 36.5651 8.38927 36.1565 7.98466L32.1293 3.99646C31.2876 3.16286 29.918 3.16286 29.0763 3.99646L28.7138 4.35552C27.5374 3.71114 26.2946 3.2006 25.0055 2.83239V2.3288C25.0055 1.14771 24.0365 0.186768 22.8454 0.186768H17.1548C15.9636 0.186768 14.9946 1.14771 14.9946 2.3288V2.83239C13.7055 3.20067 12.4627 3.71114 11.2864 4.35552L10.9239 3.99661C10.0822 3.16278 8.71258 3.16294 7.87078 3.99646L3.84352 7.98458C3.43492 8.38935 3.20984 8.92763 3.20984 9.50036C3.20984 10.073 3.43492 10.6113 3.84352 11.0159L4.205 11.3739C3.55727 12.5356 3.04375 13.7628 2.67289 15.0355H2.16016C0.969062 15.0355 0 15.9965 0 17.1776V22.8225C0 24.0036 0.969062 24.9645 2.16023 24.9645H2.67297C3.04383 26.2372 3.55734 27.4645 4.20508 28.6261L3.84359 28.9841C3.43492 29.3887 3.20984 29.9269 3.20984 30.4997C3.20984 31.0724 3.43484 31.6108 3.84352 32.0154L7.8707 36.0036C8.71242 36.8372 10.082 36.8372 10.9237 36.0036L11.2863 35.6445C12.4625 36.289 13.7054 36.7994 14.9945 37.1677V37.6713C14.9945 38.8524 15.9635 39.8133 17.1546 39.8133H22.8452C24.0364 39.8133 25.0054 38.8524 25.0054 37.6713V37.1677C26.2945 36.7994 27.5373 36.289 28.7136 35.6445L29.0761 36.0036C29.9178 36.8372 31.2874 36.8372 32.1291 36.0036L36.1563 32.0154C36.565 31.6107 36.7901 31.0724 36.79 30.4997C36.79 29.9269 36.5649 29.3886 36.1562 28.9841L35.7948 28.6261C36.4427 27.4644 36.9561 26.2372 37.327 24.9645H37.8397C39.0309 24.9645 39.9999 24.0036 39.9999 22.8225V17.1776C40 15.9965 39.0309 15.0355 37.8398 15.0355ZM38.4375 22.8225C38.4375 23.142 38.1694 23.402 37.8398 23.402H36.7305C36.3731 23.402 36.0613 23.6445 35.9733 23.9908C35.5835 25.5242 34.9692 26.9917 34.1473 28.3525C33.9609 28.6613 34.0101 29.0576 34.2663 29.3115L35.057 30.0943C35.167 30.2034 35.2276 30.3473 35.2276 30.4998C35.2277 30.6523 35.167 30.7963 35.0569 30.9053L31.0297 34.8934C30.7942 35.1267 30.4111 35.1265 30.1756 34.8934L29.3919 34.1172C29.1395 33.8671 28.7498 33.819 28.444 34.0001C27.0687 34.8147 25.5853 35.4237 24.0352 35.81C23.6872 35.8967 23.4429 36.2093 23.4429 36.568V37.6714C23.4429 37.9909 23.1748 38.2509 22.8452 38.2509H17.1546C16.8251 38.2509 16.557 37.9909 16.557 37.6714V36.568C16.557 36.2093 16.3127 35.8967 15.9646 35.81C14.4145 35.4236 12.9312 34.8147 11.5559 34.0001C11.4321 33.9267 11.2946 33.891 11.158 33.891C10.9572 33.891 10.7583 33.9683 10.608 34.1172L9.82422 34.8934C9.58875 35.1265 9.20555 35.1265 8.97008 34.8934L4.94297 30.9053C4.83289 30.7963 4.77227 30.6523 4.77227 30.4998C4.77227 30.3474 4.83289 30.2034 4.94297 30.0943L5.73359 29.3115C5.98992 29.0576 6.03914 28.6613 5.85266 28.3525C5.03078 26.9917 4.41648 25.5242 4.02672 23.9908C3.93867 23.6444 3.62687 23.402 3.26953 23.402H2.16023C1.83062 23.402 1.5625 23.142 1.5625 22.8225V17.1776C1.5625 16.858 1.83062 16.598 2.16023 16.598H3.26953C3.62687 16.598 3.93867 16.3555 4.02672 16.0093C4.41648 14.4758 5.03078 13.0084 5.85266 11.6476C6.03914 11.3388 5.98992 10.9425 5.73359 10.6886L4.94297 9.90567C4.83289 9.79669 4.77227 9.65278 4.77227 9.50028C4.77227 9.34778 4.83289 9.20372 4.94297 9.09481L8.97016 5.10669C9.20563 4.87356 9.58883 4.87356 9.8243 5.10677L10.608 5.88294C10.8605 6.13302 11.2501 6.18122 11.5559 6.00005C12.9312 5.18544 14.4145 4.57646 15.9647 4.19013C16.3127 4.10341 16.557 3.79075 16.557 3.43208V2.32872C16.557 2.00919 16.8252 1.74919 17.1547 1.74919H22.8453C23.1748 1.74919 23.443 2.00919 23.443 2.32872V3.432C23.443 3.79067 23.6872 4.10333 24.0353 4.19005C25.5853 4.57638 27.0687 5.18536 28.4441 5.99997C28.7498 6.18106 29.1394 6.13286 29.392 5.88286L30.1757 5.10669C30.4112 4.87356 30.7944 4.87356 31.0298 5.10669L35.057 9.09489C35.1671 9.20388 35.2277 9.34786 35.2277 9.50028C35.2277 9.65271 35.1671 9.79677 35.057 9.90567L34.2664 10.6886C34.0101 10.9425 33.9609 11.3388 34.1474 11.6476C34.9693 13.0084 35.5836 14.4758 35.9734 16.0093C36.0614 16.3556 36.3732 16.598 36.7305 16.598H37.8398C38.1695 16.598 38.4376 16.858 38.4376 17.1776V22.8225H38.4375Z"/></svg>