<svg width="45" height="42" viewBox="0 0 45 42" fill="none" xmlns="http://www.w3.org/2000/svg"><mask id="path-1-inside-1_1440_37607" fill="#fff"><path fill-rule="evenodd" clip-rule="evenodd" d="M16.5 33C25.6127 33 33 25.6127 33 16.5C33 7.3873 25.6127 0 16.5 0C7.3873 0 0 7.3873 0 16.5C0 25.6127 7.3873 33 16.5 33ZM16.5 22C19.5376 22 22 19.5376 22 16.5C22 13.4624 19.5376 11 16.5 11C13.4624 11 11 13.4624 11 16.5C11 19.5376 13.4624 22 16.5 22Z"/></mask><path fill-rule="evenodd" clip-rule="evenodd" d="M16.5 33C25.6127 33 33 25.6127 33 16.5C33 7.3873 25.6127 0 16.5 0C7.3873 0 0 7.3873 0 16.5C0 25.6127 7.3873 33 16.5 33ZM16.5 22C19.5376 22 22 19.5376 22 16.5C22 13.4624 19.5376 11 16.5 11C13.4624 11 11 13.4624 11 16.5C11 19.5376 13.4624 22 16.5 22Z" fill="#E1EAEE"/><path d="M31 16.5C31 24.5081 24.5081 31 16.5 31V35C26.7173 35 35 26.7173 35 16.5H31ZM16.5 2C24.5081 2 31 8.49187 31 16.5H35C35 6.28273 26.7173 -2 16.5 -2V2ZM2 16.5C2 8.49187 8.49187 2 16.5 2V-2C6.28273 -2 -2 6.28273 -2 16.5H2ZM16.5 31C8.49187 31 2 24.5081 2 16.5H-2C-2 26.7173 6.28273 35 16.5 35V31ZM20 16.5C20 18.433 18.433 20 16.5 20V24C20.6421 24 24 20.6421 24 16.5H20ZM16.5 13C18.433 13 20 14.567 20 16.5H24C24 12.3579 20.6421 9 16.5 9V13ZM13 16.5C13 14.567 14.567 13 16.5 13V9C12.3579 9 9 12.3579 9 16.5H13ZM16.5 20C14.567 20 13 18.433 13 16.5H9C9 20.6421 12.3579 24 16.5 24V20Z" fill="#0091EA" mask="url(#path-1-inside-1_1440_37607)"/><mask id="path-3-inside-2_1440_37607" fill="#fff"><path fill-rule="evenodd" clip-rule="evenodd" d="M28.5 42C37.6127 42 45 34.6127 45 25.5C45 16.3873 37.6127 9 28.5 9C19.3873 9 12 16.3873 12 25.5C12 34.6127 19.3873 42 28.5 42ZM28.5 33C32.6421 33 36 29.6421 36 25.5C36 21.3579 32.6421 18 28.5 18C24.3579 18 21 21.3579 21 25.5C21 29.6421 24.3579 33 28.5 33Z"/></mask><path fill-rule="evenodd" clip-rule="evenodd" d="M28.5 42C37.6127 42 45 34.6127 45 25.5C45 16.3873 37.6127 9 28.5 9C19.3873 9 12 16.3873 12 25.5C12 34.6127 19.3873 42 28.5 42ZM28.5 33C32.6421 33 36 29.6421 36 25.5C36 21.3579 32.6421 18 28.5 18C24.3579 18 21 21.3579 21 25.5C21 29.6421 24.3579 33 28.5 33Z" fill="#fff"/><path d="M43 25.5C43 33.5081 36.5081 40 28.5 40V44C38.7173 44 47 35.7173 47 25.5H43ZM28.5 11C36.5081 11 43 17.4919 43 25.5H47C47 15.2827 38.7173 7 28.5 7V11ZM14 25.5C14 17.4919 20.4919 11 28.5 11V7C18.2827 7 10 15.2827 10 25.5H14ZM28.5 40C20.4919 40 14 33.5081 14 25.5H10C10 35.7173 18.2827 44 28.5 44V40ZM34 25.5C34 28.5376 31.5376 31 28.5 31V35C33.7467 35 38 30.7467 38 25.5H34ZM28.5 20C31.5376 20 34 22.4624 34 25.5H38C38 20.2533 33.7467 16 28.5 16V20ZM23 25.5C23 22.4624 25.4624 20 28.5 20V16C23.2533 16 19 20.2533 19 25.5H23ZM28.5 31C25.4624 31 23 28.5376 23 25.5H19C19 30.7467 23.2533 35 28.5 35V31Z" fill="#0091EA" mask="url(#path-3-inside-2_1440_37607)"/><path fill-rule="evenodd" clip-rule="evenodd" d="M28.5 13C28.7761 13 29 13.2239 29 13.5C29 13.7761 28.7761 14 28.5 14C28.2239 14 28 13.7761 28 13.5C28 13.2239 28.2239 13 28.5 13ZM28.5 15C27.6716 15 27 14.3284 27 13.5C27 12.6716 27.6716 12 28.5 12C29.3284 12 30 12.6716 30 13.5C30 14.3284 29.3284 15 28.5 15ZM28.5 37C28.7761 37 29 37.2239 29 37.5C29 37.7761 28.7761 38 28.5 38C28.2239 38 28 37.7761 28 37.5C28 37.2239 28.2239 37 28.5 37ZM28.5 39C27.6716 39 27 38.3284 27 37.5C27 36.6716 27.6716 36 28.5 36C29.3284 36 30 36.6716 30 37.5C30 38.3284 29.3284 39 28.5 39ZM40.5 26C40.7761 26 41 25.7761 41 25.5C41 25.2239 40.7761 25 40.5 25C40.2239 25 40 25.2239 40 25.5C40 25.7761 40.2239 26 40.5 26ZM40.5 24C39.6716 24 39 24.6716 39 25.5C39 26.3284 39.6716 27 40.5 27C41.3284 27 42 26.3284 42 25.5C42 24.6716 41.3284 24 40.5 24ZM17 25.5C17 25.7761 16.7761 26 16.5 26C16.2239 26 16 25.7761 16 25.5C16 25.2239 16.2239 25 16.5 25C16.7761 25 17 25.2239 17 25.5ZM15 25.5C15 24.6716 15.6716 24 16.5 24C17.3284 24 18 24.6716 18 25.5C18 26.3284 17.3284 27 16.5 27C15.6716 27 15 26.3284 15 25.5ZM37.3389 17.3682C37.5342 17.1729 37.5342 16.8564 37.3389 16.6611C37.1437 16.4658 36.8271 16.4658 36.6318 16.6611C36.4366 16.8564 36.4366 17.1729 36.6318 17.3682C36.8271 17.5635 37.1437 17.5635 37.3389 17.3682ZM35.9247 15.954C35.3389 16.5398 35.3389 17.4895 35.9247 18.0753C36.5105 18.6611 37.4602 18.6611 38.046 18.0753C38.6318 17.4895 38.6318 16.5398 38.046 15.954C37.4602 15.3682 36.5105 15.3682 35.9247 15.954ZM20.3682 33.6318C20.5635 33.8271 20.5635 34.1436 20.3682 34.3389C20.173 34.5342 19.8564 34.5342 19.6611 34.3389C19.4659 34.1436 19.4659 33.8271 19.6611 33.6318C19.8564 33.4365 20.173 33.4365 20.3682 33.6318ZM18.954 35.046C18.3682 34.4602 18.3682 33.5105 18.954 32.9247C19.5398 32.3389 20.4895 32.3389 21.0753 32.9247C21.6611 33.5105 21.6611 34.4602 21.0753 35.046C20.4895 35.6318 19.5398 35.6318 18.954 35.046ZM36.6318 34.3389C36.8271 34.5342 37.1436 34.5342 37.3389 34.3389C37.5342 34.1437 37.5342 33.8271 37.3389 33.6318C37.1436 33.4366 36.8271 33.4366 36.6318 33.6318C36.4365 33.8271 36.4365 34.1437 36.6318 34.3389ZM38.046 32.9247C37.4602 32.3389 36.5105 32.3389 35.9247 32.9247C35.3389 33.5105 35.3389 34.4602 35.9247 35.046C36.5105 35.6318 37.4602 35.6318 38.046 35.046C38.6318 34.4602 38.6318 33.5105 38.046 32.9247ZM20.3682 17.3682C20.1729 17.5635 19.8564 17.5635 19.6611 17.3682C19.4658 17.173 19.4658 16.8564 19.6611 16.6611C19.8564 16.4659 20.1729 16.4659 20.3682 16.6611C20.5635 16.8564 20.5635 17.173 20.3682 17.3682ZM18.954 15.954C19.5398 15.3682 20.4895 15.3682 21.0753 15.954C21.6611 16.5398 21.6611 17.4895 21.0753 18.0753C20.4895 18.6611 19.5398 18.6611 18.954 18.0753C18.3682 17.4895 18.3682 16.5398 18.954 15.954Z" fill="#0091EA"/></svg>