<svg version="1.1" id="Слой_1" xmlns="http://www.w3.org/2000/svg" x="0" y="0" viewBox="0 0 20 22" xml:space="preserve"><style>.st0{fill:#fff}</style><path class="st0" d="M19,21.5H4c-0.6,0-1-0.4-1-1v-4c0-0.6,0.4-1,1-1s1,0.4,1,1v3h13V8h-5c-0.6,0-1-0.4-1-1V2H5v6.5 c0,0.6-0.4,1-1,1s-1-0.4-1-1V1c0-0.6,0.4-1,1-1h9c0,0,0,0,0,0l0,0c0.1,0,0.3,0,0.4,0.1c0.1,0,0.2,0.1,0.3,0.2l6,6 c0.1,0.1,0.2,0.2,0.2,0.3C20,6.7,20,6.9,20,7l0,0c0,0,0,0,0,0v13.5C20,21.1,19.6,21.5,19,21.5z M14,6h2.6L14,3.4V6z"/><path class="st0" d="M8.5,16c-0.3,0-0.5-0.1-0.7-0.3c-0.4-0.4-0.4-1,0-1.4l0.8-0.8H1c-0.6,0-1-0.4-1-1c0-0.6,0.4-1,1-1h7.6 l-0.8-0.8c-0.4-0.4-0.4-1,0-1.4s1-0.4,1.4,0l2.5,2.5c0.1,0.1,0.2,0.2,0.2,0.3c0,0.1,0.1,0.2,0.1,0.4l0,0c0,0,0,0,0,0l0,0 c0,0.1,0,0.3-0.1,0.4c0,0.1-0.1,0.2-0.2,0.3l-2.5,2.5C9,15.9,8.8,16,8.5,16z"/></svg>