<svg width="20" height="20" viewBox="0 0 20 20" fill="none" xmlns="http://www.w3.org/2000/svg"><g id="Gmail"><g id="Gmail_2"><rect id="Rectangle" width="20" height="20" rx="10" fill="#FFD6D3"/><g id="Group"><path id="Vector" opacity=".3" d="M15.6247 5.41724H4.37549L4.79215 14.4791H15.208L15.6247 5.41724Z" fill="#fff"/><path id="Vector_2" d="M15.6247 5.41724H4.37549L9.5573 9.28397H10.5208L15.6247 5.41724Z" fill="#fff"/><path id="Vector 2" d="M5.3125 14.4792L10 10.2605L14.6875 14.4792H5.3125Z" fill="#fff"/><g id="Group_2" fill-rule="evenodd" clip-rule="evenodd" fill="#D93025"><path id="Vector_3" d="M5.31288 6.19843C5.31288 5.76721 4.96353 5.41724 4.53168 5.41724C4.10046 5.41724 3.75049 5.76721 3.75049 6.19843C3.75049 7.86206 3.75049 11.7487 3.75049 13.5417C3.75049 14.0598 4.17046 14.4791 4.68792 14.4791C5.0204 14.4791 5.31288 14.4791 5.31288 14.4791C5.31288 14.4791 5.31288 8.39765 5.31288 6.19843Z"/><path id="Vector_4" d="M14.6875 6.19843C14.6875 5.76721 15.0375 5.41724 15.4687 5.41724C15.4693 5.41724 15.4699 5.41724 15.4699 5.41724C15.9012 5.41724 16.2499 5.76659 16.2499 6.19718C16.2499 7.86019 16.2499 11.748 16.2499 13.5417C16.2499 14.0598 15.8305 14.4791 15.3125 14.4791C14.9806 14.4791 14.6875 14.4791 14.6875 14.4791C14.6875 14.4791 14.6875 8.39765 14.6875 6.19843Z"/><path id="Vector_5" d="M4.14041 6.87459C3.96105 6.77084 3.83043 6.60085 3.77669 6.40087C3.72294 6.20088 3.75106 5.9884 3.85481 5.80904C3.85481 5.80904 3.85543 5.80841 3.85543 5.80779C3.95918 5.62842 4.12979 5.49781 4.32977 5.44406C4.52976 5.39032 4.74287 5.41844 4.92223 5.52218L10 8.45385L15.079 5.52156C15.2584 5.41781 15.4709 5.38969 15.6709 5.44344C15.8708 5.49718 16.0408 5.6278 16.1446 5.80716L16.1452 5.80779C16.2489 5.98715 16.2771 6.20088 16.2233 6.40087C16.1696 6.60085 16.0383 6.77147 15.859 6.87521L11.5624 9.35566L10 10.2581L8.43761 9.35566L4.14041 6.87459Z"/></g></g></g></g></svg>