<svg width="24" height="24" viewBox="0 0 24 24" fill="none" xmlns="http://www.w3.org/2000/svg"><path fill-rule="evenodd" clip-rule="evenodd" d="M4 8C4 3.58172 7.58172 0 12 0C16.4183 0 20 3.58172 20 8V9.02746C22.25 9.27619 24 11.1837 24 13.5C24 15.8163 22.25 17.7238 20 17.9725C19.9724 17.9756 19.9446 17.9784 19.9168 17.9809C19.7771 18.837 19.4461 19.8279 18.8115 20.7093C17.981 21.8629 16.6657 22.7739 14.753 22.9636C14.4127 23.5814 13.7552 24 13 24H12C10.8954 24 10 23.1046 10 22C10 20.8954 10.8954 20 12 20H13C13.7221 20 14.3548 20.3827 14.7064 20.9562C15.9507 20.7948 16.7087 20.2071 17.1885 19.5407C17.7898 18.7055 18 17.6733 18 17V16V15V11V9V8C18 4.68629 15.3137 2 12 2C8.68629 2 6 4.68629 6 8V9V11V15V16V18H4.5C4.331 18 4.16417 17.9907 4 17.9725C1.75002 17.7238 0 15.8163 0 13.5C0 11.1837 1.75002 9.27619 4 9.02746V8ZM2 13.5C2 12.2905 2.85888 11.2816 4 11.05V15V15.95C2.85888 15.7184 2 14.7095 2 13.5ZM20 11.05V15V15.95C21.1411 15.7184 22 14.7095 22 13.5C22 12.2905 21.1411 11.2816 20 11.05Z" fill="#fff"/></svg>