<svg width="48" height="48" viewBox="0 0 48 48" fill="none" xmlns="http://www.w3.org/2000/svg"><path d="M43.2181 24.2029H42.6783V18.67C42.6783 8.37534 34.2993 0 24.0002 0C13.7011 0 5.32209 8.37534 5.32209 18.67V24.2029H4.7819C3.15055 24.2029 1.82324 25.5301 1.82324 27.1615V32.7847C1.82324 34.416 3.15046 35.7433 4.7819 35.7433H10.6378C11.1555 35.7433 11.5753 35.3235 11.5753 34.8058C11.5753 34.2881 11.1555 33.8683 10.6378 33.8683H4.7819C4.18443 33.8683 3.69824 33.3821 3.69824 32.7847V27.1615C3.69824 26.5641 4.18443 26.0779 4.7819 26.0779H10.638C11.1557 26.0779 11.5755 25.6581 11.5755 25.1404V18.67C11.5755 11.8223 17.1492 6.25134 24.0002 6.25134C30.8512 6.25134 36.4249 11.8223 36.4249 18.67V25.126C36.4248 25.1308 36.4247 25.1356 36.4247 25.1404C36.4247 25.6581 36.8445 26.0779 37.3622 26.0779H43.2181C43.8156 26.0779 44.3017 26.5641 44.3017 27.1615V32.7847C44.3017 33.3821 43.8156 33.8683 43.2181 33.8683H37.3622C36.8445 33.8683 36.4247 34.2881 36.4247 34.8058C36.4247 35.3235 36.8445 35.7433 37.3622 35.7433H40.3632V39.4442C40.3632 42.1532 38.1581 44.357 35.4477 44.357H28.6895C28.1718 44.357 27.752 44.7768 27.752 45.2945C27.752 45.8122 28.1718 46.232 28.6895 46.232H35.4477C39.1919 46.232 42.2382 43.187 42.2382 39.4442V35.7433H43.2181C44.8494 35.7433 46.1767 34.4161 46.1767 32.7847V27.1615C46.1767 25.5301 44.8495 24.2029 43.2181 24.2029ZM38.2999 24.2029V18.67C38.2999 10.7885 31.885 4.37634 24.0002 4.37634C16.1153 4.37634 9.70049 10.7885 9.70049 18.67V24.2029H7.19709V18.67C7.19709 9.40922 14.7349 1.875 24.0002 1.875C33.2655 1.875 40.8033 9.40922 40.8033 18.67V24.2029H38.2999Z" fill="#3784F7"/><path d="M26.3269 47.9999H21.6729C20.1786 47.9999 18.9673 46.7886 18.9673 45.2943C18.9673 43.8 20.1786 42.5886 21.6729 42.5886H26.3269C27.8212 42.5886 29.0326 43.8 29.0326 45.2943C29.0326 46.7886 27.8212 47.9999 26.3269 47.9999Z" fill="#E1EAEE"/><path d="M13.1165 38.0182C11.1262 38.0182 9.5127 36.4047 9.5127 34.4143V25.5321C9.5127 23.5418 11.1261 21.9282 13.1165 21.9282C15.1069 21.9282 16.7204 23.5417 16.7204 25.5321V34.4143C16.7204 36.4046 15.1069 38.0182 13.1165 38.0182Z" fill="#E1EAEE"/><path d="M34.8836 21.9282C36.8739 21.9282 38.4875 23.5417 38.4875 25.5321V34.4143C38.4875 36.4046 36.874 38.0182 34.8836 38.0182C32.8933 38.0182 31.2798 36.4047 31.2798 34.4143V25.5321C31.2798 23.5417 32.8933 21.9282 34.8836 21.9282Z" fill="#E1EAEE"/></svg>