<svg width="28" height="28" viewBox="0 0 28 28" fill="none" xmlns="http://www.w3.org/2000/svg"><circle cx="14" cy="14" r="14" fill="#0091EA"/><path d="M15.3691 8.84131C15.6719 8.84131 15.9258 8.94629 16.1309 9.15625C16.3408 9.36621 16.4458 9.62012 16.4458 9.91797C16.4458 10.2158 16.3408 10.4697 16.1309 10.6797C15.9209 10.8896 15.667 10.9946 15.3691 10.9946C15.0762 10.9946 14.8247 10.8896 14.6147 10.6797C14.4048 10.4697 14.2998 10.2158 14.2998 9.91797C14.2998 9.62012 14.4023 9.36621 14.6074 9.15625C14.8174 8.94629 15.0713 8.84131 15.3691 8.84131ZM15.8232 12.2104L14.3218 17.418C14.2388 17.7158 14.1973 17.9111 14.1973 18.0039C14.1973 18.0576 14.2192 18.1089 14.2632 18.1577C14.3071 18.2017 14.3535 18.2236 14.4023 18.2236C14.4854 18.2236 14.5684 18.187 14.6514 18.1138C14.8711 17.9331 15.1348 17.606 15.4424 17.1323L15.6914 17.2788C14.9541 18.563 14.1704 19.2051 13.3403 19.2051C13.0229 19.2051 12.769 19.1172 12.5786 18.9414C12.3931 18.7607 12.3003 18.5337 12.3003 18.2603C12.3003 18.0796 12.3418 17.8501 12.4248 17.5718L13.4429 14.0708C13.5405 13.7339 13.5894 13.48 13.5894 13.3091C13.5894 13.2017 13.543 13.1064 13.4502 13.0234C13.3574 12.9404 13.2305 12.8989 13.0693 12.8989C12.9961 12.8989 12.9082 12.9014 12.8057 12.9062L12.9009 12.6133L15.3838 12.2104H15.8232Z" fill="#fff"/></svg>