<svg width="20" height="16" viewBox="0 0 20 16" fill="none" xmlns="http://www.w3.org/2000/svg"><path fill-rule="evenodd" clip-rule="evenodd" d="M4.29289 4.29289C4.68342 3.90237 5.31658 3.90237 5.70711 4.29289L9.29289 7.87868C9.68342 8.2692 10.3166 8.26921 10.7071 7.87868L14.2929 4.29289C14.6834 3.90237 15.3166 3.90237 15.7071 4.29289C16.0976 4.68342 16.0976 5.31658 15.7071 5.70711L12.1213 9.29289C10.9497 10.4645 9.05025 10.4645 7.87868 9.29289L4.29289 5.70711C3.90237 5.31658 3.90237 4.68342 4.29289 4.29289ZM18 2H2V14H18V2ZM2 0C0.895431 0 0 0.895431 0 2V14C0 15.1046 0.895431 16 2 16H18C19.1046 16 20 15.1046 20 14V2C20 0.895431 19.1046 0 18 0H2Z" fill="#0091EA"/></svg>