<svg width="12" height="16" viewBox="0 0 12 16" fill="none" xmlns="http://www.w3.org/2000/svg"><path fill-rule="evenodd" clip-rule="evenodd" d="M10.5 6.09524C10.5 7.28261 9.93347 8.69423 9.02318 10.1417C8.13343 11.5565 7.02391 12.8361 6.1799 13.7215C6.1164 13.7881 6.0523 13.8069 6 13.8069C5.9477 13.8069 5.8836 13.7881 5.8201 13.7215C4.97609 12.8361 3.86657 11.5565 2.97681 10.1417C2.06653 8.69423 1.5 7.28261 1.5 6.09524C1.5 3.535 3.5369 1.5 6 1.5C8.4631 1.5 10.5 3.535 10.5 6.09524ZM12 6.09524C12 9.31367 9.02603 12.9098 7.26563 14.7565C6.56608 15.4903 5.43392 15.4903 4.73437 14.7565C2.97397 12.9098 0 9.31367 0 6.09524C0 2.72893 2.68629 0 6 0C9.31371 0 12 2.72893 12 6.09524ZM4.75 6C4.75 5.30964 5.30964 4.75 6 4.75C6.69036 4.75 7.25 5.30964 7.25 6C7.25 6.69036 6.69036 7.25 6 7.25C5.30964 7.25 4.75 6.69036 4.75 6ZM6 3.25C4.48122 3.25 3.25 4.48122 3.25 6C3.25 7.51878 4.48122 8.75 6 8.75C7.51878 8.75 8.75 7.51878 8.75 6C8.75 4.48122 7.51878 3.25 6 3.25Z" fill="#fff"/></svg>