<svg width="16" height="16" viewBox="0 0 16 16" fill="none" xmlns="http://www.w3.org/2000/svg"><g clip-path="url(#clip0)" fill="#fff"><path d="M12.8527 8.58707C13.2614 9.3904 12.7974 9.7744 11.7387 10.4304C10.8387 10.9864 9.59538 11.1897 8.79671 11.2711C9.12405 11.5857 7.62405 10.1431 11.944 14.2984C12.86 15.1764 11.3854 16.5851 10.47 15.7257L7.99205 13.3357C7.04338 14.2484 6.13405 15.1231 5.51405 15.7291C4.59805 16.5917 3.12405 15.1951 4.03005 14.3017C4.09805 14.2371 7.38805 11.0811 7.18738 11.2744C6.37871 11.1931 5.15405 10.9777 4.26471 10.4337L4.26538 10.4331C3.20671 9.77373 2.74271 9.3904 3.14538 8.58707C3.38871 8.13107 4.04471 7.74973 4.91805 8.40907C4.91805 8.40907 6.09738 9.3124 7.99938 9.3124C9.90205 9.3124 11.0807 8.40907 11.0807 8.40907C11.9534 7.7464 12.612 8.13107 12.8527 8.58707Z"/><path d="M8.00074 8.09467C5.68207 8.09467 3.78874 6.28267 3.78874 4.052C3.78874 1.812 5.68207 0 8.00074 0C10.3201 0 12.2134 1.812 12.2134 4.052C12.2134 6.28267 10.3201 8.09467 8.00074 8.09467ZM8.00074 2.05267C6.8614 2.05267 5.93207 2.94667 5.93207 4.052C5.93207 5.148 6.8614 6.042 8.00074 6.042C9.14007 6.042 10.0694 5.148 10.0694 4.052C10.0701 2.946 9.14074 2.05267 8.00074 2.05267Z"/></g><defs><clipPath id="clip0"><path fill="#fff" transform="matrix(-1 0 0 1 16 0)" d="M0 0H16V16H0z"/></clipPath></defs></svg>