<svg width="18" height="21" viewBox="0 0 18 21" fill="none" xmlns="http://www.w3.org/2000/svg"><path fill-rule="evenodd" clip-rule="evenodd" d="M12 5C12 6.65685 10.6569 8 9 8C7.34315 8 6 6.65685 6 5C6 3.34315 7.34315 2 9 2C10.6569 2 12 3.34315 12 5ZM14 5C14 7.76142 11.7614 10 9 10C6.23858 10 4 7.76142 4 5C4 2.23858 6.23858 0 9 0C11.7614 0 14 2.23858 14 5ZM9.5 18.4081H2.07982C2.43641 16.7064 3.9456 15.4285 5.75325 15.4285H12.2468C14.0544 15.4285 15.5636 16.7064 15.9202 18.4081H9.5ZM5.75325 13.4285C2.57582 13.4285 0 16.0043 0 19.1817C0 19.859 0.549054 20.4081 1.22635 20.4081H9.5H16.7737C17.4509 20.4081 18 19.859 18 19.1817C18 16.0043 15.4242 13.4285 12.2468 13.4285H5.75325Z" fill="#7D939D"/></svg>