<svg width="42" height="42" viewBox="0 0 42 42" fill="none" xmlns="http://www.w3.org/2000/svg"><path d="M6 11.9454C7.81223 11.7471 9.53291 11.0129 10.9361 9.82556L11.9568 8.96188C17.1767 4.54509 24.8233 4.54509 30.0432 8.96188L31.0639 9.82556C32.4671 11.0129 34.1878 11.7471 36 11.9454V30.0546C34.1878 30.2529 32.4671 30.9871 31.0639 32.1744L30.0432 33.0381C24.8233 37.4549 17.1767 37.4549 11.9568 33.0381L10.9361 32.1744C9.53291 30.9871 7.81223 30.2529 6 30.0546V11.9454Z" fill="#E1EAEE" stroke="#0091EA" stroke-width="2"/><circle cx="32.5" cy="19.5" r=".5" transform="rotate(90 32.5 19.5)" fill="#0091EA"/><circle cx="32.5" cy="17.5" r=".5" transform="rotate(90 32.5 17.5)" fill="#0091EA"/><circle cx="32.5" cy="21.5" r=".5" transform="rotate(90 32.5 21.5)" fill="#0091EA"/><circle cx="32.5" cy="23.5" r=".5" transform="rotate(90 32.5 23.5)" fill="#0091EA"/><circle cx="32.5" cy="25.5" r=".5" transform="rotate(90 32.5 25.5)" fill="#0091EA"/><circle cx="9.5" cy="19.5" r=".5" transform="rotate(90 9.5 19.5)" fill="#0091EA"/><circle cx="9.5" cy="17.5" r=".5" transform="rotate(90 9.5 17.5)" fill="#0091EA"/><circle cx="9.5" cy="21.5" r=".5" transform="rotate(90 9.5 21.5)" fill="#0091EA"/><circle cx="9.5" cy="23.5" r=".5" transform="rotate(90 9.5 23.5)" fill="#0091EA"/><circle cx="9.5" cy="25.5" r=".5" transform="rotate(90 9.5 25.5)" fill="#0091EA"/><path d="M36 33.4998C36 34.052 36.4477 34.4998 37 34.4998H39C39.5523 34.4998 40 34.052 40 33.4998V8.49976C40 7.94747 39.5523 7.49976 39 7.49976H37C36.4477 7.49976 36 7.94747 36 8.49976V33.4998Z" fill="#fff" stroke="#0091EA" stroke-width="2"/><path d="M40 29.5C40 29.7761 40.2239 30 40.5 30C40.7761 30 41 29.7761 41 29.5V12.5C41 12.2239 40.7761 12 40.5 12C40.2239 12 40 12.2239 40 12.5L40 29.5Z" fill="#E1EAEE" stroke="#0091EA" stroke-width="2"/><path d="M2 33.4998C2 34.052 2.44771 34.4998 3 34.4998H5C5.55228 34.4998 6 34.052 6 33.4998V8.49976C6 7.94747 5.55229 7.49976 5 7.49976H3C2.44771 7.49976 2 7.94747 2 8.49976V33.4998Z" fill="#fff" stroke="#0091EA" stroke-width="2"/><path d="M1 29.5C1 29.7761 1.22386 30 1.5 30C1.77614 30 2 29.7761 2 29.5V12.5C2 12.2239 1.77614 12 1.5 12C1.22386 12 1 12.2239 1 12.5V29.5Z" fill="#E1EAEE" stroke="#0091EA" stroke-width="2"/></svg>