<svg width="20" height="20" viewBox="0 0 20 20" fill="none" xmlns="http://www.w3.org/2000/svg"><path fill-rule="evenodd" clip-rule="evenodd" d="M15 2H5V7H15V2ZM3 2V7H1C0.447715 7 0 7.44772 0 8V14C0 14.5523 0.447715 15 1 15H3V18C3 19.1046 3.89543 20 5 20H15C16.1046 20 17 19.1046 17 18V15H19C19.5523 15 20 14.5523 20 14V8C20 7.44772 19.5523 7 19 7H17V2C17 0.895431 16.1046 0 15 0H5C3.89543 0 3 0.89543 3 2ZM15 15H5V18H15V15ZM15 13H18V9H15H5H2V13H5H15ZM14 10H12V12H14V10ZM15 10H17V12H15V10Z" fill="#0091EA"/></svg>