<svg width="37" height="42" viewBox="0 0 37 42" fill="none" xmlns="http://www.w3.org/2000/svg"><path d="M21.6418 4L4.64185 4L4.64185 18.5302L21.6418 11.8196L21.6418 4Z" fill="#E1EAEE" stroke="#0091EA" stroke-width="2"/><path d="M4.22372 30.1275L3.42425 30.7282L4.22372 30.1275C4.00792 29.8403 3.80684 29.5367 3.62227 29.217C1.15451 24.9427 2.61899 19.4772 6.89327 17.0095L23.4502 7.45031L32.412 22.9725L22.5174 29.3888L23.0615 30.2278L22.5174 29.3888C21.9713 29.7429 21.6417 30.3495 21.6417 31.0004V38.0004H4.64172L4.64173 31.3609C4.64173 30.8973 4.48003 30.4687 4.22372 30.1275Z" fill="#fff" stroke="#0091EA" stroke-width="2"/><circle cx="22.325" cy="14.683" r=".5" transform="rotate(60 22.325 14.683)" fill="#0091EA"/><circle cx="23.325" cy="16.415" r=".5" transform="rotate(60 23.325 16.415)" fill="#0091EA"/><circle cx="24.325" cy="18.147" r=".5" transform="rotate(60 24.325 18.147)" fill="#0091EA"/><circle cx="25.325" cy="19.879" r=".5" transform="rotate(60 25.325 19.88)" fill="#0091EA"/><path d="M2.64185 1.00012C2.08956 1.00012 1.64185 1.44784 1.64185 2.00012L1.64185 3.00012C1.64185 3.55241 2.08956 4.00012 2.64185 4.00012L23.6418 4.00012C24.1941 4.00012 24.6418 3.55241 24.6418 3.00012L24.6418 2.00012C24.6418 1.44784 24.1941 1.00012 23.6418 1.00012L2.64185 1.00012Z" fill="#fff" stroke="#0091EA" stroke-width="2"/><path d="M25.6081 5.34155C25.332 4.86326 24.7204 4.69938 24.2421 4.97552L23.0916 5.63976C22.6133 5.9159 22.4494 6.52749 22.7255 7.00579L32.2513 23.5049C32.5274 23.9832 33.139 24.147 33.6173 23.8709L34.7678 23.2067C35.2461 22.9305 35.41 22.3189 35.1339 21.8406L25.6081 5.34155Z" fill="#fff" stroke="#0091EA" stroke-width="2"/><path d="M2.64185 38.0001C2.08956 38.0001 1.64185 38.4478 1.64185 39.0001L1.64185 40.0001C1.64185 40.5524 2.08956 41.0001 2.64185 41.0001L23.6418 41.0001C24.1941 41.0001 24.6418 40.5524 24.6418 40.0001L24.6418 39.0001C24.6418 38.4478 24.1941 38.0001 23.6418 38.0001L2.64185 38.0001Z" fill="#fff" stroke="#0091EA" stroke-width="2"/></svg>