<svg version="1.1" id="Слой_1" xmlns="http://www.w3.org/2000/svg" x="0" y="0" viewBox="0 0 17 16" xml:space="preserve"><path class="st0" d="M9.1,16c-2.5,0-4.9-1.2-6.4-3.3c-0.3-0.4-0.2-1.1,0.2-1.4C3.4,11,4,11.1,4.3,11.6C5.4,13.1,7.2,14,9.1,14	c3.3,0,5.9-2.7,5.9-6s-2.7-6-5.9-6C7,2,5.1,3.1,4,4.8l0.6-0.1c0.5-0.1,1.1,0.2,1.2,0.7C6,6,5.6,6.5,5.1,6.6L2.6,7.3H2.5	c-0.1,0-0.1,0-0.2,0c-0.1,0-0.2,0-0.3-0.1c-0.1,0-0.2-0.1-0.2-0.1l0,0l0,0C1.7,7.1,1.7,7,1.6,7c0-0.1-0.1-0.1-0.1-0.2L0.1,4.6	c-0.2-0.4-0.1-1,0.4-1.3C0.9,3,1.6,3.1,1.9,3.6l0.3,0.5C3.5,1.6,6.1,0,9.1,0C13.4,0,17,3.6,17,8S13.4,16,9.1,16z"/></svg>