<svg width="33" height="31" viewBox="0 0 33 31" fill="none" xmlns="http://www.w3.org/2000/svg"><path d="M22.5 11L27.7059 9.39818C28.349 9.20032 29 9.68115 29 10.354V23.3406C29 23.7406 28.7616 24.1022 28.3939 24.2597L22 27M10.5 8L4.58094 10.7319C4.22679 10.8953 4 11.2498 4 11.6398V24.6126C4 25.2951 4.6687 25.7771 5.31623 25.5613L10 24" stroke="#0091EA" stroke-width="2"/><path d="M9 22.5C9 26.6421 12.3579 30 16.5 30C20.6421 30 24 26.6421 24 22.5V5C24 4.44772 23.5523 4 23 4H10C9.44772 4 9 4.44772 9 5V22.5Z" fill="#E1EAEE" stroke="#0091EA" stroke-width="2"/><circle cx="13.5" cy="7.5" r=".5" fill="#0091EA"/><circle cx="15.5" cy="7.5" r=".5" fill="#0091EA"/><circle cx="17.5" cy="7.5" r=".5" fill="#0091EA"/><circle cx="19.5" cy="7.5" r=".5" fill="#0091EA"/><path d="M1 27C1 27.5523 1.44772 28 2 28H3C3.55228 28 4 27.5523 4 27V8C4 7.44771 3.55228 7 3 7H2C1.44772 7 1 7.44772 1 8V27Z" fill="#E1EAEE" stroke="#0091EA" stroke-width="2"/><path d="M29 27C29 27.5523 29.4477 28 30 28H31C31.5523 28 32 27.5523 32 27V8C32 7.44771 31.5523 7 31 7H30C29.4477 7 29 7.44772 29 8V27Z" fill="#E1EAEE" stroke="#0091EA" stroke-width="2"/><path d="M26 4C26.5523 4 27 3.55228 27 3L27 2C27 1.44772 26.5523 1 26 1L7 1C6.44771 1 6 1.44772 6 2L6 3C6 3.55229 6.44772 4 7 4L26 4Z" fill="#E1EAEE" stroke="#0091EA" stroke-width="2"/></svg>