<svg width="37" height="52" viewBox="0 0 37 52" fill="none" xmlns="http://www.w3.org/2000/svg"><path d="M28 40.5712L28 46.9998C28 47.552 27.5523 47.9998 27 47.9998L12 47.9998C11.4477 47.9998 11 47.552 11 46.9998L11 39.9998" stroke="#0091EA" stroke-width="2"/><path d="M14.5 27.9998C10.3579 27.9998 7 31.3576 7 35.4998C7 39.6419 10.3579 42.9998 14.5 42.9998L32 42.9998C32.5523 42.9998 33 42.552 33 41.9998L33 28.9998C33 28.4475 32.5523 27.9998 32 27.9998L14.5 27.9998Z" fill="#E1EAEE" stroke="#0091EA" stroke-width="2"/><path d="M26.3559 16.7354C26.2234 15.7418 25.3759 14.9998 24.3735 14.9998L14.6266 14.9998C13.6241 14.9998 12.7766 15.7418 12.6441 16.7354L11.1422 27.9998L26.7156 27.9998C27.3204 27.9998 27.7868 27.4671 27.7069 26.8676L26.3559 16.7354Z" fill="#fff" stroke="#0091EA" stroke-width="2"/><path d="M23 2.99976C23 1.89519 22.1046 0.999756 21 0.999756L18 0.999756C16.8954 0.999755 16 1.89519 16 2.99976L16 13.9998L22 13.9998C22.5523 13.9998 23 13.552 23 12.9998L23 2.99976Z" fill="#E1EAEE" stroke="#0091EA" stroke-width="2"/><path d="M26 15C26.5523 15 27 14.5523 27 14L27 13C27 12.4477 26.5523 12 26 12L13 12C12.4477 12 12 12.4477 12 13L12 14C12 14.5523 12.4477 15 13 15L26 15Z" fill="#E1EAEE" stroke="#0091EA" stroke-width="2"/><path d="M4.01343 21.6519C3.80265 21.8979 3.81673 22.2646 4.04575 22.4936C4.27476 22.7226 4.64149 22.7367 4.8874 22.5259L20.8901 8.80932C21.8813 7.95973 21.9394 6.44614 21.0163 5.52303C20.0932 4.59993 18.5796 4.65806 17.73 5.64924L4.01343 21.6519Z" fill="#fff" stroke="#0091EA" stroke-width="2"/><circle cx="29.5" cy="32.5" r=".5" transform="rotate(90 29.5 32.5)" fill="#0091EA"/><circle cx="29.5" cy="34.5" r=".5" transform="rotate(90 29.5 34.5)" fill="#0091EA"/><circle cx="29.5" cy="36.5" r=".5" transform="rotate(90 29.5 36.5)" fill="#0091EA"/><circle cx="29.5" cy="38.5" r=".5" transform="rotate(90 29.5 38.5)" fill="#0091EA"/><path d="M10 47.9998C9.44772 47.9998 9 48.4475 9 48.9998L9 49.9998C9 50.552 9.44772 50.9998 10 50.9998L29 50.9998C29.5523 50.9998 30 50.552 30 49.9998L30 48.9998C30 48.4475 29.5523 47.9998 29 47.9998L10 47.9998Z" fill="#E1EAEE" stroke="#0091EA" stroke-width="2"/><path d="M33 44.4998C33 45.0521 33.4477 45.4998 34 45.4998H35C35.5523 45.4998 36 45.0521 36 44.4998V25.4998C36 24.9475 35.5523 24.4998 35 24.4998H34C33.4477 24.4998 33 24.9475 33 25.4998L33 44.4998Z" fill="#E1EAEE" stroke="#0091EA" stroke-width="2"/></svg>