<svg width="19" height="20" viewBox="0 0 19 20" fill="none" xmlns="http://www.w3.org/2000/svg"><path clip-rule="evenodd" d="M2.92334 9.0393C2.92334 5.66141 5.66166 2.9231 9.03954 2.9231C12.4174 2.9231 15.1557 5.66141 15.1557 9.0393C15.1557 12.4172 12.4174 15.1555 9.03954 15.1555C5.66166 15.1555 2.92334 12.4172 2.92334 9.0393ZM9.03954 0.923096C4.55709 0.923096 0.92334 4.55684 0.92334 9.0393C0.92334 13.5217 4.55709 17.1555 9.03954 17.1555C10.8063 17.1555 12.4412 16.591 13.7737 15.6325L17.2275 19.0864C17.6181 19.4769 18.2512 19.4769 18.6418 19.0864C19.0323 18.6958 19.0323 18.0627 18.6418 17.6721L15.2429 14.2733C16.4363 12.8602 17.1557 11.0338 17.1557 9.0393C17.1557 4.55684 13.522 0.923096 9.03954 0.923096Z"/></svg>