<svg width="34" height="51" viewBox="0 0 34 51" fill="none" xmlns="http://www.w3.org/2000/svg"><path d="M2 2C2 1.44772 2.44772 1 3 1H6V7H3C2.44772 7 2 6.55228 2 6V2Z" fill="#E1EAEE" stroke="#0091EA" stroke-width="2"/><path d="M1 3H2V5H1L1 3Z" fill="#E1EAEE" stroke="#0091EA" stroke-width="2"/><path d="M3 36C3 35.4477 3.44772 35 4 35H32C32.5523 35 33 35.4477 33 36V41C33 41.5523 32.5523 42 32 42H4C3.44772 42 3 41.5523 3 41V36Z" fill="#fff" stroke="#0091EA" stroke-width="2"/><path d="M27 35V42" stroke="#0091EA" stroke-linecap="round" stroke-linejoin="round"/><path d="M18 35V42" stroke="#0091EA" stroke-linecap="round" stroke-linejoin="round"/><path d="M9 35V42" stroke="#0091EA" stroke-linecap="round" stroke-linejoin="round"/><path d="M5.27489 32.4855C5.45561 32.1843 5.78112 32 6.13238 32H29.8676C30.2189 32 30.5444 32.1843 30.7251 32.4855L32.2338 35L3.76619 35L5.27489 32.4855Z" fill="#fff" stroke="#0091EA" stroke-width="2"/><mask id="path-8-inside-1_1440_37590" fill="#fff"><path d="M7 0C5.89543 0 5 0.89543 5 2V6C5 7.10457 5.89543 8 7 8H8.30769L5.52268 12.641C5.27076 13.296 5.75425 14 6.45603 14H29.544C30.2457 14 30.7292 13.296 30.4773 12.641L26.4931 1.28204C26.196 0.509658 25.4539 0 24.6264 0H7Z"/></mask><path d="M7 0C5.89543 0 5 0.89543 5 2V6C5 7.10457 5.89543 8 7 8H8.30769L5.52268 12.641C5.27076 13.296 5.75425 14 6.45603 14H29.544C30.2457 14 30.7292 13.296 30.4773 12.641L26.4931 1.28204C26.196 0.509658 25.4539 0 24.6264 0H7Z" fill="#fff"/><path d="M8.30769 8L10.0226 9.0291C10.3934 8.41124 10.4031 7.64171 10.0481 7.01466C9.69312 6.38761 9.02826 6 8.30769 6V8ZM5.52268 12.641L3.80776 11.6119L3.71836 11.7609L3.65599 11.9231L5.52268 12.641ZM30.4773 12.641L28.59 13.303L28.5999 13.3311L28.6106 13.359L30.4773 12.641ZM26.4931 1.28204L28.3804 0.620071L28.3705 0.591923L28.3598 0.564082L26.4931 1.28204ZM7 2V2V-2C4.79086 -2 3 -0.209139 3 2H7ZM7 6V2H3V6H7ZM7 6H7H3C3 8.20914 4.79086 10 7 10V6ZM8.30769 6H7V10H8.30769V6ZM7.23761 13.6701L10.0226 9.0291L6.59277 6.9709L3.80776 11.6119L7.23761 13.6701ZM6.45603 12C7.15781 12 7.6413 12.704 7.38938 13.359L3.65599 11.9231C2.90022 13.8881 4.35069 16 6.45603 16V12ZM29.544 12H6.45603V16H29.544V12ZM28.6106 13.359C28.3587 12.704 28.8422 12 29.544 12V16C31.6493 16 33.0998 13.8881 32.344 11.9231L28.6106 13.359ZM24.6058 1.94401L28.59 13.303L32.3646 11.979L28.3804 0.620071L24.6058 1.94401ZM24.6264 2V2L28.3598 0.564082C27.7656 -0.980684 26.2815 -2 24.6264 -2V2ZM7 2H24.6264V-2H7V2Z" fill="#0091EA" mask="url(#path-8-inside-1_1440_37590)"/><path d="M8 43C8 42.4477 8.44772 42 9 42H27C27.5523 42 28 42.4477 28 43V44C28 44.5523 27.5523 45 27 45H9C8.44772 45 8 44.5523 8 44V43Z" fill="#fff" stroke="#0091EA" stroke-width="2"/><path d="M6 14C6 13.4477 6.44772 13 7 13H29C29.5523 13 30 13.4477 30 14V31C30 31.5523 29.5523 32 29 32H7C6.44772 32 6 31.5523 6 31V14Z" fill="#E1EAEE" stroke="#0091EA" stroke-width="2"/><path d="M13 46C13 45.4477 13.4477 45 14 45H22C22.5523 45 23 45.4477 23 46V49C23 49.5523 22.5523 50 22 50H14C13.4477 50 13 49.5523 13 49V46Z" fill="#E1EAEE" stroke="#0091EA" stroke-width="2"/><path d="M13 47.5H23" stroke="#0091EA" stroke-linecap="round" stroke-linejoin="round"/></svg>