<svg width="40" height="40" viewBox="0 0 40 40" fill="none" xmlns="http://www.w3.org/2000/svg"><path clip-rule="evenodd" d="M21.1487 22.6088L22.6086 21.149C22.7692 20.9884 23.0077 21.017 23.1925 21.149L24.2083 21.8745C25.1583 21.2318 26.2429 20.773 27.4107 20.548L27.6159 19.3168C27.6533 19.0928 27.8017 18.904 28.0288 18.904H28.2003C28.7733 12.9307 23.9739 7.66163 17.9685 7.69437C12.2941 7.69437 7.69412 12.2943 7.69412 17.9687C7.66146 23.9737 12.9304 28.7742 18.9037 28.2005V28.029C18.9037 27.8019 19.0926 27.6534 19.3165 27.6161L20.5477 27.4109C20.7727 26.2431 21.2316 25.1586 21.8743 24.2084L21.1487 23.1926C21.0168 23.008 20.9882 22.7694 21.1487 22.6088Z"/><path clip-rule="evenodd" d="M29.061 33.7488C31.6428 33.7488 33.7485 31.6431 33.7485 29.0613C33.4838 22.8422 24.6374 22.8441 24.3735 29.0613C24.3736 31.6431 26.4793 33.7488 29.061 33.7488Z"/><path d="M22.1607 15.681C22.0282 15.4167 21.758 15.2498 21.4624 15.2498H20.0584L21.3313 12.0468C21.4269 11.8061 21.3972 11.5338 21.2517 11.3195C21.1063 11.1052 20.8642 10.9769 20.6053 10.9769H16.3623C16.0172 10.9769 15.7131 11.2032 15.6139 11.5337L13.7271 17.8244C13.6562 18.061 13.7013 18.3172 13.8487 18.5153C13.9961 18.7134 14.2286 18.8301 14.4755 18.8301H15.7145L14.6139 24.0171C14.5378 24.376 14.7217 24.7395 15.0559 24.8909C15.3852 25.0412 15.7839 24.9428 16.0042 24.6467L22.0883 16.4986C22.2653 16.2616 22.2932 15.9453 22.1607 15.681ZM16.881 20.8609L17.4432 18.2111C17.4921 17.9806 17.4344 17.7403 17.2861 17.5572C17.1377 17.374 16.9146 17.2677 16.6789 17.2677H15.5255L16.9436 12.5395H19.4541L18.1812 15.7426C18.0856 15.9832 18.1154 16.2555 18.2608 16.4698C18.4062 16.6841 18.6483 16.8124 18.9072 16.8124H19.904L16.881 20.8609Z" fill="#fff"/><path d="M38.9343 26.8455L38.2223 26.7269C37.9998 25.8485 37.6541 25.0138 37.1897 24.2343L37.6093 23.6468C37.9791 23.1291 37.9448 22.4751 37.526 22.0564L36.0662 20.5966C36.0254 20.5558 35.9823 20.5187 35.9375 20.4852V16.222C35.9375 15.4895 35.3817 14.8852 34.5861 14.7527L33.0286 14.4931C32.6445 12.8181 31.9891 11.2362 31.0751 9.77773L31.993 8.4925C32.4618 7.83602 32.4276 7.01594 31.9097 6.49805L29.4395 4.02781C28.9215 3.50992 28.1013 3.47578 27.4449 3.94453L26.1598 4.8625C24.7019 3.94852 23.1202 3.2932 21.4444 2.90891L21.1848 1.35141C21.0521 0.555703 20.448 0 19.7155 0H16.222C15.4896 0 14.8854 0.555703 14.7528 1.35141L14.4932 2.90891C12.8174 3.2932 11.2357 3.94852 9.77766 4.8625L8.49258 3.94453C7.83625 3.4757 7.01602 3.51 6.49805 4.02781L4.02789 6.49805C3.50992 7.01586 3.47563 7.83609 3.94453 8.49258L4.86242 9.77773C3.94844 11.2362 3.29305 12.8181 2.90891 14.4931L1.35156 14.7528C0.555703 14.8853 0 15.4895 0 16.2221V19.7155C0 20.4478 0.555703 21.0521 1.35141 21.1848L2.90891 21.4443C3.29305 23.1194 3.94852 24.7013 4.86242 26.1598L3.94445 27.4449C3.47562 28.1013 3.50992 28.9215 4.02781 29.4395L6.49789 31.9095C7.0157 32.4275 7.83594 32.4616 8.4925 31.9929L9.77758 31.0749C11.2357 31.989 12.8174 32.6443 14.4931 33.0285L14.7527 34.5859C14.8853 35.3817 15.4895 35.9374 16.222 35.9374H20.4853C20.5188 35.9823 20.5559 36.0253 20.5966 36.0661L22.0564 37.5259C22.4752 37.9448 23.1292 37.9791 23.6469 37.6092L24.2344 37.1897C25.0137 37.6539 25.8484 37.9998 26.727 38.2223L26.8456 38.9342C26.9502 39.5616 27.4369 39.9999 28.0291 39.9999H30.0937C30.6859 39.9999 31.1726 39.5617 31.2772 38.9341L31.3959 38.2223C32.2744 37.9998 33.1091 37.654 33.8884 37.1896L34.4759 37.6092C34.9935 37.9788 35.6476 37.9447 36.0663 37.5259L37.5262 36.066C37.9448 35.6473 37.9791 34.9933 37.6095 34.4757L37.1898 33.8882C37.6541 33.1087 37.9999 32.274 38.2224 31.3956L38.9343 31.277C39.5619 31.1724 40.0002 30.6857 40 30.0935V28.0289C40 27.4367 39.5618 26.9501 38.9343 26.8455ZM16.294 34.3291L15.9467 32.2459C15.893 31.9237 15.6446 31.669 15.3239 31.6072C13.4789 31.2516 11.7534 30.5368 10.1951 29.4825C9.92453 29.2995 9.56883 29.3041 9.30313 29.4938L7.58438 30.7216C7.56961 30.7321 7.55602 30.7401 7.54406 30.7461L5.19141 28.3934C5.19742 28.3816 5.20547 28.3679 5.21594 28.3531L6.44367 26.6343C6.63344 26.3686 6.63797 26.013 6.45508 25.7425C5.4007 24.1836 4.68586 22.458 4.33031 20.6135C4.26852 20.2929 4.01375 20.0445 3.69164 19.9907L1.60836 19.6435C1.59047 19.6405 1.57523 19.6366 1.56258 19.6324V16.3052C1.57523 16.301 1.59047 16.297 1.60836 16.2941L3.69164 15.9468C4.01375 15.893 4.26852 15.6447 4.33031 15.324C4.68578 13.4797 5.4007 11.754 6.45508 10.195C6.63797 9.92453 6.63344 9.56883 6.44367 9.3032L5.21602 7.58445C5.20547 7.56969 5.1975 7.55602 5.19148 7.54414L7.54414 5.19141C7.55602 5.19742 7.56969 5.20547 7.58438 5.21594L9.3032 6.44367C9.56883 6.63344 9.92453 6.63797 10.1952 6.455C11.7533 5.40078 13.4789 4.68586 15.3241 4.33031C15.6447 4.26852 15.8931 4.01375 15.9468 3.69164L16.2941 1.60828C16.297 1.59039 16.301 1.57516 16.3052 1.5625H19.6324C19.6366 1.57516 19.6405 1.59039 19.6435 1.60836L19.9908 3.69164C20.0445 4.01375 20.2929 4.26852 20.6135 4.33031C22.4587 4.68594 24.1843 5.40078 25.7424 6.455C26.013 6.63805 26.3687 6.63344 26.6344 6.44367L28.3531 5.21594C28.3679 5.20539 28.3815 5.19742 28.3934 5.19141L30.7462 7.54414C30.7402 7.55594 30.7321 7.56961 30.7216 7.58438L29.4939 9.3032C29.3041 9.56883 29.2996 9.92453 29.4825 10.195C30.537 11.754 31.2518 13.4797 31.6073 15.324C31.6691 15.6446 31.9238 15.893 32.2459 15.9468L34.3294 16.2941C34.3472 16.297 34.3624 16.301 34.375 16.3052V20.5853L33.8884 20.933C33.1091 20.4687 32.2743 20.1228 31.3958 19.9003L31.2771 19.1884C31.1725 18.5609 30.6859 18.1227 30.0936 18.1227H28.0291C27.4368 18.1227 26.9502 18.5609 26.8455 19.1884L26.7269 19.9003C25.8483 20.1228 25.0136 20.4686 24.2343 20.9329L23.6469 20.5134C23.1291 20.1436 22.4751 20.1779 22.0565 20.5966L20.5966 22.0564C20.1779 22.4751 20.1435 23.1291 20.5133 23.6469L20.9329 24.2344C20.4687 25.0138 20.1227 25.8486 19.9002 26.727L19.1884 26.8456C18.5609 26.9502 18.1226 27.4368 18.1226 28.0291V30.0937C18.1226 30.6859 18.5608 31.1727 19.1883 31.2771L19.9002 31.3958C20.1227 32.2741 20.4686 33.1091 20.9329 33.8884L20.5852 34.375H16.3051C16.301 34.3623 16.297 34.3471 16.294 34.3291ZM38.4375 29.7759L37.4463 29.941C37.1241 29.9948 36.8694 30.2431 36.8076 30.5638C36.6058 31.6111 36.1998 32.5911 35.601 33.4764C35.4181 33.7469 35.4227 34.1025 35.6124 34.3682L36.1966 35.186L35.1861 36.1965L34.3682 35.6123C34.1025 35.4226 33.7467 35.418 33.4764 35.6009C32.5913 36.1997 31.6114 36.6056 30.5638 36.8075C30.2432 36.8693 29.9948 37.1241 29.941 37.4463L29.7759 38.4375H28.3468L28.1816 37.4463C28.1279 37.1241 27.8795 36.8693 27.5588 36.8075C26.5112 36.6056 25.5312 36.1997 24.6463 35.601C24.3758 35.4179 24.0202 35.4226 23.7545 35.6123L22.9366 36.1965L21.9261 35.186L22.5102 34.3682C22.7 34.1026 22.7045 33.7469 22.5216 33.4764C21.9229 32.5912 21.517 31.6112 21.3151 30.5638C21.2533 30.2432 20.9985 29.9948 20.6764 29.941L19.6852 29.7759V28.3468L20.6764 28.1816C20.9986 28.1279 21.2533 27.8795 21.3151 27.5588C21.517 26.5115 21.9229 25.5315 22.5216 24.6462C22.7045 24.3758 22.7 24.0201 22.5102 23.7545L21.9261 22.9366L22.9366 21.9262L23.7545 22.5103C24.0201 22.7 24.3758 22.7046 24.6463 22.5216C25.5312 21.923 26.5112 21.5171 27.5588 21.3152C27.8795 21.2534 28.1279 20.9986 28.1816 20.6765L28.3468 19.6852H29.7759L29.941 20.6765C29.9948 20.9986 30.2431 21.2534 30.5638 21.3152C31.6114 21.517 32.5913 21.923 33.4764 22.5217C33.7467 22.7046 34.1025 22.7001 34.3682 22.5103L35.1861 21.9262L36.1966 22.9366L35.6124 23.7545C35.4227 24.0202 35.4181 24.3758 35.601 24.6462C36.1998 25.5316 36.6058 26.5116 36.8076 27.5588C36.8694 27.8795 37.1241 28.1279 37.4463 28.1816L38.4375 28.3468V29.7759Z"/></svg>