<svg width="48" height="48" viewBox="0 0 48 48" fill="none" xmlns="http://www.w3.org/2000/svg"><g clip-path="url(#clip0)"><path d="M12.8218 5.3366V11.5533H17.1297V7.27038H30.8702V11.5533H35.1781V5.3366C35.1781 4.02073 34.1134 2.95404 32.8002 2.95404H15.1997C13.8864 2.95413 12.8218 4.02082 12.8218 5.3366Z" fill="#E1EAEE"/><path d="M43.4635 10.6158H4.53647C2.03503 10.6158 0 12.6509 0 15.1523V40.5058C0 43.0092 2.03353 45.0459 4.53309 45.0459H43.467C45.9666 45.0459 48.0001 43.0092 48.0001 40.5058V15.1523C48 12.6509 45.965 10.6158 43.4635 10.6158ZM46.125 40.5058C46.125 41.9754 44.9326 43.1709 43.4669 43.1709H4.53309C3.06741 43.1709 1.875 41.9754 1.875 40.5058V28.6573C3.17766 30.0767 5.04722 30.9678 7.12106 30.9678H9.87562C10.3934 30.9678 10.8131 30.5481 10.8131 30.0303C10.8131 29.5125 10.3934 29.0928 9.87562 29.0928H7.12106C4.22841 29.0929 1.875 26.7395 1.875 23.8468V15.1523C1.875 13.6848 3.06891 12.4909 4.53647 12.4909H43.4635C44.9311 12.4909 46.125 13.6848 46.125 15.1523V23.8468C46.125 26.7396 43.7716 29.0929 40.8789 29.0929H37.5938C37.076 29.0929 36.6562 29.5126 36.6562 30.0304C36.6562 30.5482 37.076 30.9679 37.5938 30.9679H40.8789C42.9528 30.9679 44.8223 30.0768 46.125 28.6574V40.5058Z" fill="#0091EA"/><path d="M34.3145 29.0929H13.8013C13.2835 29.0929 12.8638 29.5126 12.8638 30.0304C12.8638 30.5482 13.2835 30.9679 13.8013 30.9679H34.3146C34.8324 30.9679 35.2521 30.5482 35.2521 30.0304C35.2521 29.5126 34.8323 29.0929 34.3145 29.0929Z" fill="#0091EA"/><path d="M35.1202 15.6304H12.8799C12.3621 15.6304 11.9424 16.0501 11.9424 16.5679C11.9424 17.0857 12.3621 17.5054 12.8799 17.5054H35.1201C35.6379 17.5054 36.0576 17.0857 36.0576 16.5679C36.0577 16.0501 35.638 15.6304 35.1202 15.6304Z" fill="#0091EA"/><path d="M33.2262 25.1168H38.9336V34.0065H33.2262V25.1168Z" fill="#E1EAEE"/><path d="M9.06628 25.1168H14.7737V34.0065H9.06628V25.1168Z" fill="#E1EAEE"/></g><defs><clipPath id="clip0"><path fill="#fff" d="M0 0H48V48H0z"/></clipPath></defs></svg>