<svg width="78" height="78" viewBox="0 0 78 78" fill="none" xmlns="http://www.w3.org/2000/svg"><g filter="url(#filter0_d)"><circle cx="39" cy="36" r="24" fill="#fff"/></g><g clip-path="url(#clip0)" fill="#0091EA"><path d="M47.7177 26.8256H42.2392C41.9872 26.8256 41.7827 27.0301 41.7827 27.2821C41.7827 27.5341 41.9872 27.7387 42.2392 27.7387H47.7177C47.9697 27.7387 48.1742 27.5341 48.1742 27.2821C48.1742 27.0301 47.9697 26.8256 47.7177 26.8256Z"/><path d="M48.0408 26.9597L46.2147 25.1335C46.0366 24.9555 45.7471 24.9555 45.5691 25.1335C45.391 25.3116 45.391 25.601 45.5691 25.7791L47.072 27.282L45.5682 28.7859C45.3901 28.9639 45.3901 29.2534 45.5682 29.4314C45.6577 29.52 45.7745 29.5647 45.8914 29.5647C46.0083 29.5647 46.1252 29.52 46.2147 29.4314L48.0408 27.6053C48.2189 27.4272 48.2189 27.1377 48.0408 26.9597Z"/><path d="M35.8479 26.8256H30.3695C30.1174 26.8256 29.9129 27.0301 29.9129 27.2821C29.9129 27.5341 30.1174 27.7387 30.3695 27.7387H35.8479C36.0999 27.7387 36.3044 27.5341 36.3044 27.2821C36.3044 27.0301 36.0999 26.8256 35.8479 26.8256Z"/><path d="M31.0149 27.2819L32.5179 25.779C32.6959 25.6009 32.6959 25.3115 32.5179 25.1334C32.3398 24.9554 32.0503 24.9554 31.8723 25.1334L30.0462 26.9596C29.8681 27.1377 29.8681 27.4271 30.0462 27.6052L31.8723 29.4313C31.9618 29.5199 32.0787 29.5647 32.1956 29.5647C32.3125 29.5647 32.4293 29.5199 32.5179 29.4304C32.6959 29.2524 32.6959 28.9629 32.5179 28.7849L31.0149 27.2819Z"/><path d="M47.2612 34.1301C46.8859 34.1301 46.5362 34.2443 46.2458 34.4388C45.9957 33.7284 45.3173 33.2171 44.522 33.2171C44.1467 33.2171 43.797 33.3312 43.5066 33.5257C43.2565 32.8154 42.578 32.304 41.7828 32.304C41.4504 32.304 41.1381 32.3935 40.8697 32.5497V29.5648C40.8697 28.5577 40.0507 27.7386 39.0435 27.7386C38.0364 27.7386 37.2174 28.5577 37.2174 29.5648V37.3259L35.6305 36.1362C34.69 35.4304 33.3514 35.5244 32.5178 36.3572C31.9837 36.8913 31.9837 37.7597 32.5178 38.2938L39.0198 44.7967C39.7959 45.5728 40.8286 46.0001 41.9261 46.0001H44.0655C46.8339 46.0001 49.0874 43.7476 49.0874 40.9782V35.9563C49.0874 34.9492 48.2683 34.1301 47.2612 34.1301ZM48.1743 40.9782C48.1743 43.2435 46.3308 45.087 44.0655 45.087H41.9261C41.0715 45.087 40.2689 44.7547 39.6654 44.1511L33.1634 37.6482C32.9853 37.4702 32.9853 37.1807 33.1634 37.0027C33.4464 36.7205 33.8244 36.5754 34.2043 36.5754C34.5129 36.5754 34.8234 36.6712 35.0836 36.8666L37.4001 38.6042C37.5389 38.7083 37.7251 38.7238 37.8785 38.6471C38.0328 38.5695 38.1305 38.4115 38.1305 38.239V29.5648C38.1305 29.0617 38.5396 28.6517 39.0436 28.6517C39.5476 28.6517 39.9566 29.0617 39.9566 29.5648V36.4129C39.9566 36.6649 40.1612 36.8694 40.4132 36.8694C40.6652 36.8694 40.8697 36.6649 40.8697 36.4129V34.1302C40.8697 33.6271 41.2788 33.2171 41.7828 33.2171C42.2868 33.2171 42.6959 33.6271 42.6959 34.1302V36.4129C42.6959 36.6649 42.9004 36.8694 43.1524 36.8694C43.4044 36.8694 43.609 36.6649 43.609 36.4129V35.0432C43.609 34.5401 44.018 34.1302 44.522 34.1302C45.026 34.1302 45.4351 34.5402 45.4351 35.0432V36.4129C45.4351 36.6649 45.6396 36.8694 45.8916 36.8694C46.1436 36.8694 46.3482 36.6649 46.3482 36.4129V35.9563C46.3482 35.4532 46.7572 35.0432 47.2612 35.0432C47.7653 35.0432 48.1743 35.4532 48.1743 35.9563V40.9782Z"/></g><defs><clipPath id="clip0"><path fill="#fff" transform="translate(29 25)" d="M0 0H21V21H0z"/></clipPath><filter id="filter0_d" x="0" y="0" width="78" height="78" filterUnits="userSpaceOnUse" color-interpolation-filters="sRGB"><feFlood flood-opacity="0" result="BackgroundImageFix"/><feColorMatrix in="SourceAlpha" values="0 0 0 0 0 0 0 0 0 0 0 0 0 0 0 0 0 0 127 0" result="hardAlpha"/><feOffset dy="3"/><feGaussianBlur stdDeviation="7.5"/><feColorMatrix values="0 0 0 0 0.303698 0 0 0 0 0.514984 0 0 0 0 0.6125 0 0 0 0.2 0"/><feBlend in2="BackgroundImageFix" result="effect1_dropShadow"/><feBlend in="SourceGraphic" in2="effect1_dropShadow" result="shape"/></filter></defs></svg>