<svg width="20" height="20" viewBox="0 0 20 20" fill="none" xmlns="http://www.w3.org/2000/svg"><path d="M10 20C15.5228 20 20 15.5228 20 10C20 4.47715 15.5228 0 10 0C4.47715 0 0 4.47715 0 10C0 15.5228 4.47715 20 10 20Z" fill="#039BE5"/><path d="M14.1 5.76195L4.30409 9.8699C3.87833 10.0484 3.90135 10.6593 4.33934 10.8053L6.09162 11.3894C6.37459 11.4838 6.6849 11.4468 6.93784 11.2887L11.9477 8.15758C12.0486 8.09451 12.1556 8.22894 12.0714 8.31309L8.50817 11.8763C8.28506 12.0994 8.32184 12.4709 8.58437 12.6459L12.0904 14.9833C12.3813 15.1772 12.7763 15.0203 12.8549 14.6797L14.7805 6.33547C14.8722 5.93839 14.4758 5.60435 14.1 5.76195Z" fill="#fff"/></svg>