<svg width="16" height="16" viewBox="0 0 16 16" fill="none" xmlns="http://www.w3.org/2000/svg"><path clip-rule="evenodd" d="M8 2C4.68629 2 2 4.68629 2 8C2 11.3137 4.68629 14 8 14C11.3137 14 14 11.3137 14 8C14 4.68629 11.3137 2 8 2ZM0 8C0 3.58172 3.58172 0 8 0C12.4183 0 16 3.58172 16 8C16 12.4183 12.4183 16 8 16C3.58172 16 0 12.4183 0 8Z"/><path clip-rule="evenodd" d="M13.3838 8.27296C13.4742 8.81779 13.1059 9.33279 12.5611 9.42325L8.16376 10.1533C7.87467 10.2013 7.57907 10.1201 7.3551 9.93111C7.13112 9.74213 7.00131 9.46442 6.99998 9.17137L6.98676 6.2595C6.98426 5.70722 7.42994 5.25748 7.98221 5.25497C8.53449 5.25247 8.98424 5.69814 8.98674 6.25042L8.99463 7.988L12.2335 7.45026C12.7783 7.3598 13.2933 7.72814 13.3838 8.27296Z"/></svg>