<svg width="40" height="40" viewBox="0 0 40 40" fill="none" xmlns="http://www.w3.org/2000/svg"><path d="M18.1983 17.6871C19.0976 15.5175 18.0678 13.0296 15.8982 12.1302C13.7285 11.2309 11.2406 12.2607 10.3413 14.4304C9.44194 16.6 10.4717 19.0879 12.6414 19.9873C14.8111 20.8866 17.299 19.8568 18.1983 17.6871Z"/><path d="M14.1361 17.2311C14.0044 17.2311 13.8718 17.1979 13.7514 17.1296L13.0196 16.7152C12.6441 16.5026 12.5122 16.0259 12.7247 15.6504C12.9373 15.275 13.414 15.1429 13.7895 15.3557L14.0042 15.4772L14.6389 14.8425C14.944 14.5375 15.4386 14.5375 15.7438 14.8425C16.0489 15.1475 16.0489 15.6422 15.7437 15.9474L14.6887 17.0024C14.5383 17.1527 14.3383 17.2311 14.1361 17.2311Z" fill="#fff"/><path d="M14.2651 33.4143C16.6132 33.4143 18.5167 31.5108 18.5167 29.1627C18.5167 26.8145 16.6132 24.911 14.2651 24.911C11.917 24.911 10.0134 26.8145 10.0134 29.1627C10.0134 31.5108 11.917 33.4143 14.2651 33.4143Z"/><path d="M14.1361 30.3392C14.0044 30.3392 13.8718 30.306 13.7514 30.2377L13.0196 29.8232C12.6441 29.6107 12.5122 29.1339 12.7247 28.7585C12.9373 28.383 13.414 28.251 13.7895 28.4637L14.0042 28.5853L14.6389 27.9504C14.944 27.6454 15.4387 27.6454 15.7438 27.9504C16.0489 28.2555 16.0489 28.7502 15.7439 29.0553L14.6889 30.1104C14.5383 30.2607 14.3383 30.3392 14.1361 30.3392Z" fill="#fff"/><path d="M30.9788 16.4373H21.4021C20.9706 16.4373 20.6208 16.787 20.6208 17.2185C20.6208 17.6499 20.9706 17.9998 21.4021 17.9998H30.9788C31.4103 17.9998 31.7601 17.6499 31.7601 17.2185C31.7601 16.7871 31.4103 16.4373 30.9788 16.4373Z"/><path d="M21.4021 13.3219C20.9706 13.3219 20.6208 13.6717 20.6208 14.1031C20.6208 14.5346 20.9706 14.8844 21.4021 14.8844H27.6277C28.0592 14.8844 28.409 14.5346 28.409 14.1031C28.409 13.6717 28.0592 13.3219 27.6277 13.3219H21.4021Z"/><path d="M30.9788 29.5453H21.4021C20.9706 29.5453 20.6208 29.8951 20.6208 30.3265C20.6208 30.7579 20.9706 31.1078 21.4021 31.1078H30.9788C31.4103 31.1078 31.7601 30.7579 31.7601 30.3265C31.7601 29.8951 31.4103 29.5453 30.9788 29.5453Z"/><path d="M21.4021 27.9923H27.6277C28.0592 27.9923 28.409 27.6425 28.409 27.2111C28.409 26.7797 28.0592 26.4298 27.6277 26.4298H21.4021C20.9706 26.4298 20.6208 26.7797 20.6208 27.2111C20.6208 27.6425 20.9706 27.9923 21.4021 27.9923Z"/><path d="M33.3614 1.60156H7.63086C6.48172 1.60156 5.54688 2.53641 5.54688 3.68555V36.3145C5.54688 37.4636 6.48172 38.3984 7.63086 38.3984H33.3614C34.5105 38.3984 35.4454 37.4636 35.4454 36.3145V3.68555C35.4454 2.53641 34.5105 1.60156 33.3614 1.60156ZM33.8829 36.3145C33.8829 36.602 33.649 36.8359 33.3614 36.8359H7.63086C7.34328 36.8359 7.10938 36.602 7.10938 36.3145V3.68555C7.10938 3.39797 7.34328 3.16406 7.63086 3.16406H33.3614C33.649 3.16406 33.8829 3.39797 33.8829 3.68555V36.3145Z"/><path d="M29.2306 7.70691C29.2306 7.2755 28.8808 6.92566 28.4493 6.92566H12.5428C12.1114 6.92566 11.7616 7.2755 11.7616 7.70691C11.7616 8.13832 12.1114 8.48816 12.5428 8.48816H28.4493C28.8808 8.48816 29.2306 8.13839 29.2306 7.70691Z"/></svg>