<svg width="40" height="40" viewBox="0 0 40 40" fill="none" xmlns="http://www.w3.org/2000/svg"><path d="M28.9705 12.5222V19.2455H35.1066L30.5434 12.5222H28.9705Z" fill="#E1EAEE"/><path d="M6.43297 12.5222H21.9924V21.6006H6.43297V12.5222Z" fill="#E1EAEE"/><path d="M39.2188 26.9041H38.7073V23.157C38.7073 20.5695 36.6028 18.4645 34.0161 18.4645H29.7518V6.58594C29.7518 6.15445 29.402 5.80469 28.9705 5.80469H0.78125C0.349844 5.80469 0 6.15445 0 6.58594V31.2979C0 31.7294 0.349844 32.0791 0.78125 32.0791H5.17758C5.75672 33.3274 7.0218 34.1952 8.48578 34.1952C9.94977 34.1952 11.2148 33.3274 11.794 32.0791H16.3733C16.9524 33.3274 18.2175 34.1952 19.6815 34.1952C21.1455 34.1952 22.4105 33.3274 22.9897 32.0791H30.1402C30.7193 33.3274 31.9844 34.1952 33.4484 34.1952C34.9123 34.1952 36.1774 33.3274 36.7566 32.0791H39.2188C39.6502 32.0791 40 31.7294 40 31.2979V27.6853C40 27.2538 39.6502 26.9041 39.2188 26.9041ZM34.0161 20.027C35.7412 20.027 37.1448 21.4311 37.1448 23.157V26.904H29.7518V20.027H34.0161ZM29.8038 30.5166H23.3259C23.3191 29.7552 23.0779 29.049 22.671 28.4665H30.4587C30.0519 29.049 29.8106 29.7553 29.8038 30.5166ZM28.1893 7.36719V26.9041H1.5625V7.36719H28.1893ZM16.037 30.5166H12.1303C12.1235 29.7552 11.8823 29.049 11.4754 28.4665H16.6919C16.285 29.049 16.0437 29.7553 16.037 30.5166ZM1.5625 28.4666H5.49617C5.0893 29.049 4.84805 29.7553 4.84125 30.5166H1.5625V28.4666ZM8.48578 32.6327C7.33766 32.6327 6.40359 31.6982 6.40359 30.5496C6.40359 29.401 7.33766 28.4665 8.48578 28.4665C9.63391 28.4665 10.568 29.4009 10.568 30.5496C10.568 31.6983 9.63391 32.6327 8.48578 32.6327ZM19.6815 32.6327C18.5334 32.6327 17.5993 31.6982 17.5993 30.5496C17.5993 29.401 18.5334 28.4665 19.6815 28.4665C20.8296 28.4665 21.7637 29.4009 21.7637 30.5496C21.7637 31.6983 20.8296 32.6327 19.6815 32.6327ZM33.4484 32.6327C32.3002 32.6327 31.3662 31.6982 31.3662 30.5496C31.3662 29.401 32.3002 28.4665 33.4484 28.4665C34.5965 28.4665 35.5305 29.4009 35.5305 30.5496C35.5305 31.6983 34.5965 32.6327 33.4484 32.6327ZM38.4375 30.5166H37.0928C37.086 29.7552 36.8448 29.049 36.4379 28.4665H38.4375V30.5166Z" fill="#0091EA"/></svg>