<svg width="40" height="39" viewBox="0 0 40 39" fill="none" xmlns="http://www.w3.org/2000/svg"><path d="M28.9706 12.0917V18.5838H35.1067L30.5435 12.0917H28.9706Z"/><path d="M6.43298 12.0917H21.9924V20.8579H6.43298V12.0917Z"/><path d="M39.2188 25.9789H38.7073V22.3607C38.7073 19.8622 36.6028 17.8296 34.0161 17.8296H29.7518V6.35949C29.7518 5.94284 29.402 5.6051 28.9705 5.6051H0.78125C0.349844 5.6051 0 5.94284 0 6.35949V30.2217C0 30.6383 0.349844 30.976 0.78125 30.976H5.17758C5.75672 32.1814 7.0218 33.0194 8.48578 33.0194C9.94977 33.0194 11.2148 32.1814 11.794 30.976H16.3733C16.9524 32.1814 18.2175 33.0194 19.6815 33.0194C21.1455 33.0194 22.4105 32.1814 22.9897 30.976H30.1402C30.7193 32.1814 31.9844 33.0194 33.4484 33.0194C34.9123 33.0194 36.1774 32.1814 36.7566 30.976H39.2188C39.6502 30.976 40 30.6383 40 30.2217V26.7333C40 26.3167 39.6502 25.9789 39.2188 25.9789ZM34.0161 19.3384C35.7412 19.3384 37.1448 20.6942 37.1448 22.3607V25.9789H29.7518V19.3384H34.0161ZM29.8038 29.4672H23.3259C23.3191 28.7321 23.0779 28.0501 22.671 27.4876H30.4587C30.0519 28.0501 29.8106 28.7321 29.8038 29.4672ZM28.1893 7.11387V25.9789H1.5625V7.11387H28.1893ZM16.037 29.4672H12.1303C12.1235 28.7321 11.8823 28.0501 11.4754 27.4876H16.6919C16.285 28.0501 16.0437 28.7321 16.037 29.4672ZM1.5625 27.4877H5.49617C5.0893 28.0501 4.84805 28.7321 4.84125 29.4673H1.5625V27.4877ZM8.48578 31.5105C7.33766 31.5105 6.40359 30.6082 6.40359 29.4991C6.40359 28.39 7.33766 27.4876 8.48578 27.4876C9.63391 27.4876 10.568 28.3899 10.568 29.4991C10.568 30.6083 9.63391 31.5105 8.48578 31.5105ZM19.6815 31.5105C18.5334 31.5105 17.5993 30.6082 17.5993 29.4991C17.5993 28.39 18.5334 27.4876 19.6815 27.4876C20.8296 27.4876 21.7637 28.3899 21.7637 29.4991C21.7637 30.6083 20.8296 31.5105 19.6815 31.5105ZM33.4484 31.5105C32.3002 31.5105 31.3662 30.6082 31.3662 29.4991C31.3662 28.39 32.3002 27.4876 33.4484 27.4876C34.5965 27.4876 35.5305 28.3899 35.5305 29.4991C35.5305 30.6083 34.5965 31.5105 33.4484 31.5105ZM38.4375 29.4672H37.0928C37.086 28.7321 36.8448 28.0501 36.4379 27.4876H38.4375V29.4672Z"/></svg>