<svg width="33" height="38" viewBox="0 0 33 38" fill="none" xmlns="http://www.w3.org/2000/svg"><path d="M25.5 17H28C28.5523 17 29 17.4477 29 18V33C29 33.5523 28.5523 34 28 34H23M7.5 17H5C4.44772 17 4 17.4477 4 18V33C4 33.5523 4.44772 34 5 34H10" stroke="#0091EA" stroke-width="2"/><path d="M8 28.5C8 33.1944 11.8056 37 16.5 37C21.1944 37 25 33.1944 25 28.5V18C25 16.3431 23.6569 15 22 15H11C9.34315 15 8 16.3431 8 18V28.5Z" fill="#E1EAEE" stroke="#0091EA" stroke-width="2"/><circle cx="13.5" cy="18.5" r=".5" fill="#0091EA"/><circle cx="15.5" cy="18.5" r=".5" fill="#0091EA"/><circle cx="17.5" cy="18.5" r=".5" fill="#0091EA"/><circle cx="19.5" cy="18.5" r=".5" fill="#0091EA"/><circle cx="21.5" cy="18.5" r=".5" fill="#0091EA"/><circle cx="11.5" cy="18.5" r=".5" fill="#0091EA"/><path d="M10.618 15L21.382 15L19.6584 11.5528C19.489 11.214 19.1427 11 18.7639 11H13.2361C12.8573 11 12.511 11.214 12.3416 11.5528L10.618 15Z" stroke="#0091EA" stroke-width="2"/><path d="M1 4C1 4.55228 1.44772 5 2 5H31C31.5523 5 32 4.55228 32 4V2C32 1.44772 31.5523 1 31 1H2C1.44772 1 1 1.44772 1 2V4Z" stroke="#0091EA" stroke-width="2"/><path d="M14 10C14 10.5523 14.4477 11 15 11H17C17.5523 11 18 10.5523 18 10V6C18 5.44772 17.5523 5 17 5H15C14.4477 5 14 5.44772 14 6V10Z" stroke="#0091EA" stroke-width="2"/><path d="M1 36C1 36.5523 1.44772 37 2 37H3C3.55228 37 4 36.5523 4 36V15C4 14.4477 3.55228 14 3 14H2C1.44772 14 1 14.4477 1 15V36Z" fill="#E1EAEE" stroke="#0091EA" stroke-width="2"/><path d="M29 36C29 36.5523 29.4477 37 30 37H31C31.5523 37 32 36.5523 32 36V15C32 14.4477 31.5523 14 31 14H30C29.4477 14 29 14.4477 29 15V36Z" fill="#E1EAEE" stroke="#0091EA" stroke-width="2"/></svg>