<svg width="22" height="13" viewBox="0 0 22 13" fill="none" xmlns="http://www.w3.org/2000/svg"><path fill-rule="evenodd" clip-rule="evenodd" d="M10.3956 12.0173H11.6514C11.6514 12.0173 12.0307 11.9757 12.2244 11.7669C12.4027 11.5752 12.3969 11.2153 12.3969 11.2153C12.3969 11.2153 12.3724 9.53022 13.1545 9.28209C13.9254 9.03766 14.9154 10.9107 15.9647 11.6308C16.7582 12.1759 17.3611 12.0564 17.3611 12.0564L20.1668 12.0173C20.1668 12.0173 21.6345 11.9269 20.9386 10.7729C20.8815 10.6785 20.5333 9.91926 18.8525 8.35913C17.0933 6.72627 17.3289 6.99038 19.448 4.1659C20.7386 2.44577 21.2546 1.3956 21.0934 0.945819C20.9397 0.517426 19.9905 0.630657 19.9905 0.630657L16.8315 0.650336C16.8315 0.650336 16.5973 0.618392 16.4236 0.72221C16.2539 0.824032 16.1447 1.06133 16.1447 1.06133C16.1447 1.06133 15.6447 2.39243 14.9779 3.52445C13.5712 5.91313 13.0087 6.03919 12.7789 5.89088C12.2441 5.5452 12.3776 4.50217 12.3776 3.76118C12.3776 1.44637 12.7287 0.481204 11.6939 0.231356C11.3505 0.148358 11.0978 0.0935971 10.2196 0.0847554C9.09245 0.0730616 8.1384 0.0881776 7.59821 0.352857C7.23883 0.528835 6.9616 0.921006 7.13045 0.943538C7.33923 0.971489 7.81212 1.07103 8.06282 1.41243C8.38654 1.8528 8.37513 2.84193 8.37513 2.84193C8.37513 2.84193 8.56109 5.56687 7.94075 5.90543C7.51492 6.13759 6.9308 5.66356 5.67671 3.4965C5.03412 2.38644 4.54897 1.15945 4.54897 1.15945C4.54897 1.15945 4.45542 0.930132 4.28857 0.80749C4.08607 0.658893 3.80313 0.611548 3.80313 0.611548L0.801242 0.631227C0.801242 0.631227 0.350602 0.643777 0.185178 0.83972C0.0380065 1.01399 0.173484 1.3745 0.173484 1.3745C0.173484 1.3745 2.52366 6.87287 5.18471 9.64374C7.62473 12.1842 10.3956 12.0173 10.3956 12.0173Z" fill="#fff"/></svg>