<svg width="48" height="48" viewBox="0 0 48 48" fill="none" xmlns="http://www.w3.org/2000/svg"><g clip-path="url(#clip0)"><path fill-rule="evenodd" clip-rule="evenodd" d="M16.3135 29.3747C14.7235 29.752 12.63 30.3074 10.6885 31.4262V47.0625H23.9999H37.3113V31.4262C35.3698 30.3074 33.2763 29.752 31.6837 29.3747V35.6276L26.6393 33.5124C26.6313 33.9508 26.2691 34.3096 25.8269 34.3096H23.9999H22.1729C21.7254 34.3096 21.3605 33.9429 21.3605 33.4991L16.3135 35.6277V30.1772V29.3747Z" fill="#E1EAEE"/><path d="M39.3191 31.6502C37.2492 30.0285 34.8207 29.2015 32.6212 28.64V26.5241C34.2869 24.8209 35.5773 22.7786 36.2333 20.7294H36.4831C38.7535 20.7294 40.6006 18.8867 40.6006 16.6216V15.3434C40.6006 13.7817 39.3293 12.5112 37.7668 12.5112H36.7121V11.4716C36.7122 5.14612 31.0096 0 24 0C16.9904 0 11.2877 5.14612 11.2877 11.4715V12.5111H10.2331C8.67053 12.5111 7.39928 13.7816 7.39928 15.3433V16.6215C7.39928 18.8866 9.24512 20.7293 11.5142 20.7293H11.7671C12.423 22.7766 13.7122 24.8177 15.3761 26.5205V28.64C13.1773 29.2017 10.7496 30.0287 8.68047 31.6501C5.74497 33.9503 4.25659 37.3046 4.25659 41.6199V47.0625C4.25659 47.5803 4.6764 48 5.19409 48H42.8059C43.3236 48 43.7434 47.5803 43.7434 47.0625V41.6201C43.7434 37.3047 42.2549 33.9503 39.3191 31.6502ZM36.7122 17.8574V14.3862H37.7669C38.2865 14.3862 38.7257 14.8246 38.7257 15.3434V16.6216C38.7257 17.7965 37.8094 18.7616 36.6512 18.8475C36.6909 18.5144 36.7122 18.1838 36.7122 17.8574ZM9.27437 16.6216V15.3434C9.27437 14.8156 9.7045 14.3862 10.2332 14.3862H11.2878V17.8574C11.2878 18.1838 11.3091 18.5145 11.3491 18.8478C10.1909 18.7631 9.27437 17.7974 9.27437 16.6216ZM22.2981 33.372V30.5695C22.8782 30.6948 23.4391 30.7595 23.9993 30.7595C24.5599 30.7595 25.1213 30.6946 25.7019 30.5691V33.2496C25.6907 33.2902 25.6825 33.331 25.6769 33.372H22.2981ZM17.2511 34.2147V28.1701C18.2428 28.9154 19.312 29.5358 20.4231 29.9837V32.8769L17.2511 34.2147ZM27.5768 29.9832C28.6871 29.5358 29.7554 28.9162 30.7462 28.1722V34.2181L27.5768 32.8898V29.9832ZM13.1627 11.4715C13.1627 6.18 18.0243 1.875 24 1.875C29.9756 1.875 34.8372 6.18 34.8372 11.4715V12.4705C31.9678 12.2088 30.9993 10.707 29.8031 8.85094C29.6467 8.60831 29.3872 8.45119 29.0997 8.42513C28.8122 8.39916 28.5287 8.50688 28.3313 8.71753C25.0689 12.1964 20.8884 12.0231 13.962 11.7353C13.6992 11.7245 13.4327 11.7134 13.1629 11.7024V11.4715H13.1627ZM13.1627 13.5791C13.4058 13.5891 13.6467 13.599 13.884 13.6088C20.5726 13.8865 25.1535 14.0768 28.8557 10.8188C30.0139 12.4925 31.5475 14.0949 34.8371 14.3499V17.8573C34.8371 21.8222 30.9911 26.7249 26.6063 28.3494C24.6781 29.0644 23.31 29.0632 21.3785 28.3446C17.0018 26.7157 13.1627 21.8151 13.1627 17.8574V13.5791H13.1627ZM41.8684 46.125H6.1315V41.6201C6.1315 34.3981 10.6307 31.8862 15.376 30.5817V35.6276C15.376 35.9418 15.5334 36.235 15.7952 36.4088C15.9512 36.5123 16.1318 36.5651 16.3136 36.5651C16.4369 36.5651 16.5608 36.5407 16.6778 36.4914L20.9104 34.7063C21.2292 35.0387 21.6767 35.247 22.1729 35.247H23.0625V40.8362C23.0625 41.354 23.4823 41.7737 24 41.7737C24.5177 41.7737 24.9375 41.354 24.9375 40.8362V35.247H25.827C26.3188 35.247 26.7631 35.0425 27.0812 34.7152L31.3214 36.4922C31.4378 36.541 31.561 36.565 31.6836 36.565C31.8658 36.565 32.0468 36.512 32.2029 36.4081C32.4642 36.2343 32.6212 35.9413 32.6212 35.6275V30.5814C37.3679 31.8855 41.8684 34.397 41.8684 41.6201V46.125Z" fill="#0091EA"/><path d="M18.8384 18.6008C19.3561 18.6008 19.7759 18.1811 19.7759 17.6633V16.6216C19.7759 16.1038 19.3561 15.6841 18.8384 15.6841C18.3207 15.6841 17.9009 16.1038 17.9009 16.6216V17.6633C17.9009 18.1811 18.3207 18.6008 18.8384 18.6008Z" fill="#0091EA"/><path d="M29.1615 18.6008C29.6792 18.6008 30.099 18.1811 30.099 17.6633V16.6216C30.099 16.1038 29.6792 15.6841 29.1615 15.6841C28.6438 15.6841 28.224 16.1038 28.224 16.6216V17.6633C28.224 18.1811 28.6437 18.6008 29.1615 18.6008Z" fill="#0091EA"/><path d="M21.6984 24.4495C22.4181 25.0351 23.1946 25.3239 24 25.3084C24.0206 25.3088 24.0411 25.309 24.0616 25.309C24.8471 25.309 25.6003 25.02 26.3016 24.4495C26.7032 24.1227 26.7638 23.5322 26.437 23.1306C26.1102 22.7289 25.5195 22.6683 25.1182 22.9951C24.7435 23.2999 24.3824 23.443 24.0254 23.4335C24.0083 23.433 23.9918 23.433 23.9747 23.4335C23.6156 23.4427 23.2564 23.2999 22.8819 22.9951C22.4806 22.6683 21.89 22.729 21.5631 23.1306C21.2363 23.5322 21.2968 24.1228 21.6984 24.4495Z" fill="#0091EA"/><path d="M18.8384 40.8579H15.067C14.5493 40.8579 14.1295 41.2776 14.1295 41.7954C14.1295 42.3132 14.5493 42.7329 15.067 42.7329H18.8384C19.3561 42.7329 19.7759 42.3132 19.7759 41.7954C19.7759 41.2776 19.3562 40.8579 18.8384 40.8579Z" fill="#0091EA"/></g><defs><clipPath id="clip0"><path fill="#fff" d="M0 0H48V48H0z"/></clipPath></defs></svg>