<svg width="40" height="40" viewBox="0 0 40 40" fill="none" xmlns="http://www.w3.org/2000/svg"><g clip-path="url(#clip0)"><path d="M25.131 16.9415L27.7295 12.0198C26.2901 11.2632 25.7379 9.48569 26.4962 8.04941L22.3958 5.89429C21.6375 7.33049 19.8559 7.88144 18.4165 7.12486L13.2335 16.9415H25.131V16.9415Z" fill="#E1EAEE"/><path d="M35.4782 24.1273H34.5858V19.3771C34.5858 17.6034 33.1428 16.1604 31.3691 16.1604H30.2909L33.4353 10.2048C33.7627 9.58461 33.8288 8.87413 33.6211 8.20428C33.4132 7.53364 32.9561 6.98417 32.3338 6.65706L20.2425 0.301855C18.9602 -0.372221 17.367 0.120836 16.691 1.40078L8.89838 16.1604H6.9571C5.18339 16.1604 3.74039 17.6034 3.74039 19.3771V36.7832C3.74039 38.5569 5.18339 40 6.9571 40H31.3691C33.1428 40 34.5859 38.5569 34.5859 36.7832V32.033H35.4783C35.9098 32.033 36.2596 31.6832 36.2596 31.2518V24.9086C36.2595 24.4771 35.9097 24.1273 35.4782 24.1273ZM18.0728 2.13033C18.3471 1.61079 18.9943 1.41102 19.5155 1.68493L31.607 8.04013C31.8593 8.17271 32.0446 8.39529 32.1288 8.66678C32.2127 8.93741 32.186 9.22453 32.0536 9.47524L28.5241 16.1604H10.6653L18.0728 2.13033ZM33.0234 36.7832C33.0234 37.6954 32.2813 38.4374 31.3691 38.4374H6.9571C6.04497 38.4374 5.30292 37.6954 5.30292 36.7832V19.3771C5.30292 18.4649 6.04497 17.7229 6.9571 17.7229H31.3691C32.2813 17.7229 33.0234 18.4649 33.0234 19.3771V24.1273H29.9729C27.7933 24.1273 26.02 25.9006 26.02 28.0802C26.02 30.2599 27.7932 32.0331 29.9729 32.0331H33.0234V36.7832ZM34.6969 30.4705H29.9728C28.6547 30.4705 27.5824 29.3981 27.5824 28.0801C27.5824 26.7621 28.6547 25.6898 29.9728 25.6898H34.6969V30.4705Z" fill="#0091EA"/></g><defs><clipPath id="clip0"><path fill="#fff" d="M0 0H40V40H0z"/></clipPath></defs></svg>