<svg width="48" height="48" viewBox="0 0 48 48" fill="none" xmlns="http://www.w3.org/2000/svg"><g clip-path="url(#clip0)"><path d="M22.0885 20.4537V7.60172C20.686 7.60172 19.5492 6.46491 19.5492 5.0625H13.3167C13.3167 6.46491 12.1799 7.60172 10.7775 7.60172C10.7291 7.60172 10.6809 7.60031 10.6331 7.59769V20.4537H22.0885Z" fill="#E1EAEE"/><path d="M10.1145 42V25.5162H31.5293C32.047 25.5162 32.4668 25.0965 32.4668 24.5787C32.4668 24.061 32.047 23.6412 31.5293 23.6412H9.177C8.65922 23.6412 8.2395 24.061 8.2395 24.5787V42.9375C8.2395 43.4553 8.65922 43.875 9.177 43.875H31.5293C32.047 43.875 32.4668 43.4553 32.4668 42.9375C32.4668 42.4197 32.047 42 31.5293 42H10.1145Z" fill="#0091EA"/><path d="M42.9482 29.0078H41.9043V20.4536C41.9043 19.9358 41.4845 19.5161 40.9668 19.5161H40.1285L42.6125 14.2778C43.2128 13.0119 42.6788 11.4952 41.4227 10.8825L28.4414 3.83906C28.4265 3.831 28.4113 3.82331 28.396 3.816C28.0011 3.62869 27.5723 3.55003 27.151 3.57478V2.55816C27.1509 1.14759 26.0033 0 24.5928 0H8.12869C6.71813 0 5.57053 1.14759 5.57053 2.55816V19.8521C4.704 20.3234 4.1145 21.2422 4.1145 22.2961V45.2201C4.1145 46.7529 5.36156 48 6.89438 48H40.9669C41.4846 48 41.9044 47.5803 41.9044 47.0625V38.5083H42.9483C43.466 38.5083 43.8858 38.0886 43.8858 37.5708V29.9453C43.8857 29.4277 43.466 29.0078 42.9482 29.0078ZM27.5743 5.50181L40.5485 12.5414C40.5634 12.5495 40.5786 12.5572 40.5938 12.5645C40.9343 12.7259 41.0799 13.1341 40.9185 13.4745L38.0535 19.5162H27.1509V5.46094C27.2907 5.42991 27.4393 5.44256 27.5743 5.50181ZM7.44553 2.55816C7.44553 2.18147 7.752 1.875 8.12869 1.875H24.5928C24.9696 1.875 25.2759 2.18147 25.2759 2.55816V19.5162H7.44553V2.55816ZM40.0294 46.125H6.89438C6.39544 46.125 5.9895 45.7191 5.9895 45.2201V22.2961C5.9895 21.8206 6.35813 21.4296 6.82472 21.3938C6.82538 21.3938 6.82613 21.3937 6.82678 21.3937C6.83363 21.3933 6.84056 21.3928 6.84741 21.3924C6.85078 21.3923 6.85425 21.3922 6.85763 21.3921C6.86203 21.3919 6.86644 21.3917 6.87085 21.3916C6.87872 21.3914 6.8866 21.3913 6.89438 21.3913H40.0294V29.008H31.5293C31.0117 29.008 30.5918 29.4278 30.5918 29.9455V37.571C30.5918 38.0887 31.0117 38.5085 31.5293 38.5085H40.0294V46.125ZM42.0107 36.6333H32.4668V30.8828H42.0108V36.6333H42.0107Z" fill="#0091EA"/><path d="M35.627 34.72H37.1498C37.6675 34.72 38.0873 34.3003 38.0873 33.7825C38.0873 33.2648 37.6675 32.845 37.1498 32.845H35.627C35.1093 32.845 34.6895 33.2648 34.6895 33.7825C34.6895 34.3003 35.1093 34.72 35.627 34.72Z" fill="#0091EA"/></g><defs><clipPath id="clip0"><path fill="#fff" d="M0 0H48V48H0z"/></clipPath></defs></svg>