<svg width="48" height="48" viewBox="0 0 48 48" fill="none" xmlns="http://www.w3.org/2000/svg"><path d="M38.5698 23.3837C39.0876 23.3837 39.5073 22.9639 39.5073 22.4462V13.1896C39.5073 12.8776 39.3521 12.586 39.0932 12.4117L20.886 0.159752C20.5695 -0.0531541 20.1556 -0.0531541 19.8391 0.159752L1.63187 12.4117C1.37302 12.5859 1.21777 12.8776 1.21777 13.1896V47.0625C1.21777 47.5802 1.63749 48 2.15527 48H38.5697C39.0875 48 39.5072 47.5802 39.5072 47.0625V31.7095C39.5072 31.1918 39.0875 30.772 38.5697 30.772C38.052 30.772 37.6322 31.1918 37.6322 31.7095V46.125H29.071V32.8828C29.071 32.3651 28.6513 31.9453 28.1335 31.9453H12.5916C12.0738 31.9453 11.6541 32.3651 11.6541 32.8828V46.125H3.09287V13.6887L20.3626 2.06756L37.6323 13.6887V22.4462C37.6323 22.964 38.0521 23.3837 38.5698 23.3837ZM18.306 33.8203H22.4192V37.1531L20.8169 36.2655C20.5342 36.1089 20.1909 36.1089 19.9083 36.2655L18.3061 37.1531V33.8203H18.306ZM13.5291 33.8203H16.431V38.7442C16.431 39.0762 16.6066 39.3834 16.8925 39.5519C17.1787 39.7206 17.5325 39.7252 17.8227 39.5643L20.3625 38.1573L22.9023 39.5643C23.1926 39.7251 23.5465 39.7206 23.8325 39.5519C24.1186 39.3834 24.2941 39.0762 24.2941 38.7442V33.8203H27.1959V46.125H13.5291V33.8203Z" fill="#0091EA"/><path d="M34.8191 16.4537C35.1188 16.4537 35.4133 16.3103 35.5947 16.0438C35.8861 15.6159 35.7755 15.0327 35.3475 14.7412L20.8902 4.89679C20.5719 4.67995 20.1534 4.67995 19.8349 4.89679L5.37771 14.7413C4.94974 15.0327 4.83902 15.6159 5.13049 16.0439C5.42196 16.472 6.00527 16.5824 6.43305 16.2912L20.3626 6.80592L34.2922 16.2911C34.4537 16.401 34.6373 16.4537 34.8191 16.4537Z" fill="#0091EA"/><path d="M28.1334 19.9529H12.5916C12.0738 19.9529 11.6541 20.3727 11.6541 20.8904C11.6541 21.4081 12.0738 21.8279 12.5916 21.8279H28.1335C28.6513 21.8279 29.071 21.4081 29.071 20.8904C29.071 20.3727 28.6512 19.9529 28.1334 19.9529Z" fill="#0091EA"/><path d="M28.1334 15.5495H12.5916C12.0738 15.5495 11.6541 15.9693 11.6541 16.487C11.6541 17.0047 12.0738 17.4245 12.5916 17.4245H28.1335C28.6513 17.4245 29.071 17.0047 29.071 16.487C29.071 15.9693 28.6512 15.5495 28.1334 15.5495Z" fill="#0091EA"/><path d="M42.8948 35.8946L30.4463 26.9701L42.8948 18.0456V23.4512H46.782V30.489H42.8948V35.8946Z" fill="#E1EAEE"/></svg>