<svg width="40" height="40" viewBox="0 0 40 40" fill="none" xmlns="http://www.w3.org/2000/svg"><path d="M32.1416 19.4863C32.5731 19.4863 32.9229 19.1365 32.9229 18.7051V10.9913C32.9229 10.7313 32.7935 10.4883 32.5778 10.3431L17.405 0.133066C17.1413 -0.0443555 16.7965 -0.0443555 16.5327 0.133066L1.35997 10.3431C1.14427 10.4882 1.01489 10.7313 1.01489 10.9913V39.2187C1.01489 39.6501 1.36466 39.9999 1.79614 39.9999H32.1415C32.573 39.9999 32.9228 39.6501 32.9228 39.2187V26.4245C32.9228 25.9931 32.573 25.6433 32.1415 25.6433C31.71 25.6433 31.3603 25.9931 31.3603 26.4245V38.4374H24.2259V27.4023C24.2259 26.9709 23.8761 26.621 23.4447 26.621H10.4931C10.0616 26.621 9.71184 26.9709 9.71184 27.4023V38.4374H2.57747V11.4072L16.9689 1.72291L31.3604 11.4072V18.7051C31.3604 19.1366 31.7101 19.4863 32.1416 19.4863ZM15.255 28.1835H18.6828V30.9609L17.3475 30.2212C17.1119 30.0907 16.8258 30.0907 16.5904 30.2212L15.2551 30.9609V28.1835H15.255ZM11.2743 28.1835H13.6925V32.2868C13.6925 32.5635 13.8389 32.8195 14.0772 32.9599C14.3157 33.1005 14.6105 33.1043 14.8523 32.9702L16.9688 31.7977L19.0854 32.9702C19.3272 33.1042 19.6222 33.1004 19.8605 32.9599C20.0989 32.8195 20.2451 32.5635 20.2451 32.2868V28.1835H22.6633V38.4374H11.2743V28.1835Z"/><path d="M29.0158 13.7114C29.2656 13.7114 29.5111 13.5918 29.6622 13.3697C29.9051 13.0132 29.8129 12.5272 29.4562 12.2843L17.4085 4.0806C17.1432 3.89989 16.7944 3.89989 16.529 4.0806L4.48138 12.2843C4.12474 12.5272 4.03248 13.0132 4.27537 13.3698C4.51826 13.7266 5.00435 13.8186 5.36084 13.5759L16.9688 5.67153L28.5768 13.5758C28.7114 13.6675 28.8643 13.7114 29.0158 13.7114Z"/><path d="M23.4446 16.6274H10.493C10.0616 16.6274 9.71179 16.9773 9.71179 17.4087C9.71179 17.8401 10.0616 18.1899 10.493 18.1899H23.4447C23.8762 18.1899 24.2259 17.8401 24.2259 17.4087C24.2259 16.9773 23.8761 16.6274 23.4446 16.6274Z"/><path d="M23.4446 12.9579H10.493C10.0616 12.9579 9.71179 13.3077 9.71179 13.7391C9.71179 14.1705 10.0616 14.5204 10.493 14.5204H23.4447C23.8762 14.5204 24.2259 14.1705 24.2259 13.7391C24.2259 13.3077 23.8761 12.9579 23.4446 12.9579Z"/><path d="M35.7457 29.9122L25.3719 22.4751L35.7457 15.038V19.5427H38.985V25.4075H35.7457V29.9122Z"/></svg>