<svg version="1.1" id="Слой_1" xmlns="http://www.w3.org/2000/svg" x="0" y="0" viewBox="0 0 16 16" xml:space="preserve" enable-background="new 0 0 16 16"><style>.st2{fill:#fff}</style><defs><filter id="Adobe_OpacityMaskFilter" filterUnits="userSpaceOnUse" x="-2" y="-2" width="20" height="10.8"><feColorMatrix values="1 0 0 0 0 0 1 0 0 0 0 0 1 0 0 0 0 0 1 0"/></filter></defs><mask maskUnits="userSpaceOnUse" x="-2" y="-2" width="20" height="10.8" id="path-1-inside-1_2_"><path d="M16,1v4.8c0,0.6-0.4,1-1,1H1c-0.6,0-1-0.4-1-1V1c0-0.6,0.4-1,1-1h14C15.6,0,16,0.4,16,1z" fill="#fff" filter="url(#Adobe_OpacityMaskFilter)"/></mask><g mask="url(#path-1-inside-1_2_)"><path class="st2" d="M15,8.8H1c-1.7,0-3-1.3-3-3V1c0-1.7,1.3-3,3-3h14c1.7,0,3,1.3,3,3v4.8C18,7.5,16.7,8.8,15,8.8z M2,4.8h12V2H2 V4.8z"/></g><defs><filter id="Adobe_OpacityMaskFilter_1_" filterUnits="userSpaceOnUse" x="-2" y="7.2" width="20" height="10.8"><feColorMatrix values="1 0 0 0 0 0 1 0 0 0 0 0 1 0 0 0 0 0 1 0"/></filter></defs><mask maskUnits="userSpaceOnUse" x="-2" y="7.2" width="20" height="10.8" id="path-2-inside-2_2_"><path d="M16,10.2V15c0,0.6-0.4,1-1,1H1c-0.6,0-1-0.4-1-1v-4.8c0-0.6,0.4-1,1-1h14C15.6,9.2,16,9.6,16,10.2z" fill="#fff" filter="url(#Adobe_OpacityMaskFilter_1_)"/></mask><g mask="url(#path-2-inside-2_2_)"><path class="st2" d="M15,18H1c-1.7,0-3-1.3-3-3v-4.8c0-1.7,1.3-3,3-3h14c1.7,0,3,1.3,3,3V15C18,16.7,16.7,18,15,18z M2,14h12v-2.8 H2V14z"/></g></svg>