<svg xmlns="http://www.w3.org/2000/svg" viewBox="0 0 194.97 39.83"><path d="M53.89,28.15H52.65v5.64a2.34,2.34,0,0,1-.49,1.64,1.67,1.67,0,0,1-1.28.53,1.63,1.63,0,0,1-1.32-.55,2.44,2.44,0,0,1-.47-1.61V20.29a2.28,2.28,0,0,1,.51-1.66,2.28,2.28,0,0,1,1.66-.51H57a17.49,17.49,0,0,1,2,.1,5.1,5.1,0,0,1,1.53.41,4.4,4.4,0,0,1,1.46,1,4.36,4.36,0,0,1,1,1.5,5,5,0,0,1,.33,1.81,4.38,4.38,0,0,1-1.11,3.14,6.37,6.37,0,0,1-3.36,1.66,6.48,6.48,0,0,1,1.81,1.48,14.93,14.93,0,0,1,1.54,2.09,15.42,15.42,0,0,1,1.05,2,3.91,3.91,0,0,1,.38,1.23,1.26,1.26,0,0,1-.22.69,1.56,1.56,0,0,1-.61.54,1.89,1.89,0,0,1-.88.2,1.72,1.72,0,0,1-1-.28,2.68,2.68,0,0,1-.7-.71q-.29-.43-.8-1.27l-1.42-2.37a13.17,13.17,0,0,0-1.37-2,3.39,3.39,0,0,0-1.23-.93,4.19,4.19,0,0,0-1.57-.25m2-7.37H52.65V25.6h3.18A9,9,0,0,0,58,25.38a2.54,2.54,0,0,0,1.33-.75,2.17,2.17,0,0,0,.46-1.47A2.22,2.22,0,0,0,58.37,21a7.38,7.38,0,0,0-2.45-.26" fill="#030504"/><path d="M66.15,28.4V20a2.35,2.35,0,0,1,.48-1.61,1.63,1.63,0,0,1,1.27-.54,1.67,1.67,0,0,1,1.31.54A2.35,2.35,0,0,1,69.7,20v8.63A7.85,7.85,0,0,0,70,31a2.83,2.83,0,0,0,1.17,1.53,4.28,4.28,0,0,0,2.35.54A3.51,3.51,0,0,0,76.49,32a5.42,5.42,0,0,0,.86-3.35V20a2.36,2.36,0,0,1,.48-1.62,1.64,1.64,0,0,1,1.28-.53,1.69,1.69,0,0,1,1.3.53A2.31,2.31,0,0,1,80.9,20V28.4a12.49,12.49,0,0,1-.4,3.43A5.32,5.32,0,0,1,79,34.25a5.91,5.91,0,0,1-2.23,1.29,9.77,9.77,0,0,1-3,.41,12.24,12.24,0,0,1-3.48-.44,5.56,5.56,0,0,1-2.38-1.35,5.46,5.46,0,0,1-1.35-2.34,11.93,11.93,0,0,1-.43-3.42" fill="#030504"/><path d="M98.07,30.38a5.15,5.15,0,0,1-.82,2.86,5.44,5.44,0,0,1-2.4,2,9,9,0,0,1-3.74.72,8.44,8.44,0,0,1-4.28-1,5.71,5.71,0,0,1-1.94-1.89,4.26,4.26,0,0,1-.75-2.29,1.55,1.55,0,0,1,1.59-1.57,1.35,1.35,0,0,1,1,.36,2.83,2.83,0,0,1,.67,1.07,7.14,7.14,0,0,0,.72,1.4,2.93,2.93,0,0,0,1.1.93,4.05,4.05,0,0,0,1.85.36,4.18,4.18,0,0,0,2.57-.74,2.21,2.21,0,0,0,1-1.84A2,2,0,0,0,94,29.35a3.45,3.45,0,0,0-1.38-.83q-.84-.29-2.26-.61a16.47,16.47,0,0,1-3.16-1,5.11,5.11,0,0,1-2-1.61,4.19,4.19,0,0,1-.75-2.54,4.37,4.37,0,0,1,.79-2.57,5,5,0,0,1,2.29-1.73,9.37,9.37,0,0,1,3.52-.6,8.7,8.7,0,0,1,2.79.4,5.91,5.91,0,0,1,2,1.06,4.43,4.43,0,0,1,1.14,1.39,3.21,3.21,0,0,1,.36,1.42,1.68,1.68,0,0,1-.45,1.14,1.43,1.43,0,0,1-1.12.51,1.29,1.29,0,0,1-.93-.3,4.1,4.1,0,0,1-.69-1A4.54,4.54,0,0,0,93,20.89a3.36,3.36,0,0,0-2.15-.56,3.73,3.73,0,0,0-2.22.6,1.76,1.76,0,0,0-.84,1.45,1.47,1.47,0,0,0,.29.91,2.4,2.4,0,0,0,.79.66,5.28,5.28,0,0,0,1,.43q.51.15,1.7.45a26.58,26.58,0,0,1,2.69.77,8.16,8.16,0,0,1,2,1,4.17,4.17,0,0,1,1.31,1.51,4.83,4.83,0,0,1,.47,2.24" fill="#030504"/><path d="M104.66,20v5h7.67V20a2.35,2.35,0,0,1,.48-1.61,1.63,1.63,0,0,1,1.27-.54,1.69,1.69,0,0,1,1.3.53,2.31,2.31,0,0,1,.5,1.62V33.78a2.31,2.31,0,0,1-.5,1.63,1.69,1.69,0,0,1-1.29.54,1.62,1.62,0,0,1-1.28-.54,2.4,2.4,0,0,1-.48-1.62v-5.9h-7.67v5.9a2.31,2.31,0,0,1-.5,1.63,1.69,1.69,0,0,1-1.29.54,1.62,1.62,0,0,1-1.28-.54,2.4,2.4,0,0,1-.48-1.62V20a2.39,2.39,0,0,1,.47-1.61,1.62,1.62,0,0,1,1.29-.54,1.69,1.69,0,0,1,1.3.53,2.3,2.3,0,0,1,.5,1.62" fill="#030504"/><path d="M132.11,32.88l-2.84-10.51-2.87,10.51c-.22.8-.4,1.37-.53,1.72a2.29,2.29,0,0,1-.69.93,2,2,0,0,1-1.3.41,2.15,2.15,0,0,1-1.08-.25,1.88,1.88,0,0,1-.69-.69,4.45,4.45,0,0,1-.43-1.07q-.17-.62-.3-1.14L118.46,21a6.92,6.92,0,0,1-.26-1.57,1.54,1.54,0,0,1,.48-1.15,1.63,1.63,0,0,1,1.18-.47,1.35,1.35,0,0,1,1.3.62,7.08,7.08,0,0,1,.59,1.8l2.3,10.24,2.57-9.58a15.51,15.51,0,0,1,.51-1.67,2.42,2.42,0,0,1,.74-1,2.15,2.15,0,0,1,1.4-.42,2,2,0,0,1,1.39.44,2.39,2.39,0,0,1,.69,1q.19.51.51,1.7l2.6,9.58,2.3-10.24a12.37,12.37,0,0,1,.32-1.25,2,2,0,0,1,.51-.81,1.45,1.45,0,0,1,1.06-.36,1.65,1.65,0,0,1,1.18.46,1.53,1.53,0,0,1,.48,1.15,7.47,7.47,0,0,1-.26,1.57L137.14,32.8q-.3,1.2-.5,1.75a2.35,2.35,0,0,1-.67,1,2,2,0,0,1-1.33.42,2,2,0,0,1-1.3-.41,2.2,2.2,0,0,1-.68-.91q-.19-.51-.54-1.74" fill="#030504"/><path d="M150.69,17.81a9.36,9.36,0,0,1,4.68,1.11,7.18,7.18,0,0,1,3,3.14,10.73,10.73,0,0,1,1,4.79,11.72,11.72,0,0,1-.55,3.7,8,8,0,0,1-1.65,2.88,7.21,7.21,0,0,1-2.7,1.87,9.78,9.78,0,0,1-3.67.64,9.65,9.65,0,0,1-3.68-.66,7.3,7.3,0,0,1-2.72-1.87,8,8,0,0,1-1.64-2.91,11.71,11.71,0,0,1-.56-3.67,11.34,11.34,0,0,1,.58-3.71,8,8,0,0,1,1.68-2.87,7.25,7.25,0,0,1,2.68-1.81,9.64,9.64,0,0,1,3.59-.63m5,9a8.24,8.24,0,0,0-.62-3.34,4.66,4.66,0,0,0-1.78-2.14,4.89,4.89,0,0,0-2.65-.72,4.8,4.8,0,0,0-2,.4,4.33,4.33,0,0,0-1.55,1.17,5.56,5.56,0,0,0-1,2,8.85,8.85,0,0,0-.38,2.67,9.06,9.06,0,0,0,.38,2.7,5.54,5.54,0,0,0,1.07,2,4.47,4.47,0,0,0,1.58,1.19,5,5,0,0,0,4.46-.29,4.7,4.7,0,0,0,1.82-2.1,8.13,8.13,0,0,0,.68-3.51" fill="#030504"/><path d="M167.15,28.15h-1.24v5.64a2.34,2.34,0,0,1-.49,1.64,1.67,1.67,0,0,1-1.28.53,1.63,1.63,0,0,1-1.32-.55,2.44,2.44,0,0,1-.47-1.61V20.29a2.28,2.28,0,0,1,.51-1.66,2.28,2.28,0,0,1,1.66-.51h5.78a17.49,17.49,0,0,1,2,.1,5.1,5.1,0,0,1,1.53.41,4.42,4.42,0,0,1,2.42,2.49,5,5,0,0,1,.33,1.81,4.38,4.38,0,0,1-1.11,3.14,6.37,6.37,0,0,1-3.36,1.66A6.48,6.48,0,0,1,174,29.21a14.93,14.93,0,0,1,1.54,2.09,15.43,15.43,0,0,1,1.05,2,3.91,3.91,0,0,1,.38,1.23,1.26,1.26,0,0,1-.22.69,1.56,1.56,0,0,1-.61.54,1.89,1.89,0,0,1-.88.2,1.72,1.72,0,0,1-1-.28,2.68,2.68,0,0,1-.7-.71q-.29-.43-.8-1.27l-1.42-2.37a13.17,13.17,0,0,0-1.37-2,3.39,3.39,0,0,0-1.23-.93,4.19,4.19,0,0,0-1.57-.25m2-7.37h-3.28V25.6h3.18a9,9,0,0,0,2.15-.22,2.54,2.54,0,0,0,1.33-.75,2.17,2.17,0,0,0,.46-1.47,2.22,2.22,0,0,0-1.4-2.12,7.38,7.38,0,0,0-2.45-.26" fill="#030504"/><path d="M183.58,20v6.15l7-7.27a6.36,6.36,0,0,1,.85-.78,1.59,1.59,0,0,1,.94-.25,1.73,1.73,0,0,1,1.24.45,1.46,1.46,0,0,1,.47,1.09,2.18,2.18,0,0,1-.8,1.54L188.94,25l5,7.13a9,9,0,0,1,.79,1.3A2.52,2.52,0,0,1,195,34.5a1.35,1.35,0,0,1-.46,1,1.76,1.76,0,0,1-1.25.43,2.11,2.11,0,0,1-1.21-.32,2.73,2.73,0,0,1-.79-.84l-.57-1-4.2-6.46-2.91,2.79v3.63a2.31,2.31,0,0,1-.5,1.63,1.7,1.7,0,0,1-1.29.53,1.73,1.73,0,0,1-.87-.24,1.68,1.68,0,0,1-.65-.64,2.13,2.13,0,0,1-.2-.78c0-.3,0-.72,0-1.28V20a2.39,2.39,0,0,1,.47-1.61,1.62,1.62,0,0,1,1.29-.54,1.69,1.69,0,0,1,1.3.53,2.3,2.3,0,0,1,.5,1.62" fill="#030504"/><path d="M35.08,8l.59,2.48a1.58,1.58,0,0,1-.55,1.63l-1.67,1.44a1.75,1.75,0,0,1-2.32-.08L27.7,11.2A3.22,3.22,0,0,1,26,9L24.68,5.16c-.21-.79.06-1.37,1-1.64l2.18-.41a3,3,0,0,1,2.34.61L34,6.38A2.81,2.81,0,0,1,35.08,8M23.52,5.47a3.52,3.52,0,0,0-1.87-2.38L18,.82A3.58,3.58,0,0,0,14.71.14L10.18.91A2,2,0,0,0,8.5,3.4L9.92,7.9A4.76,4.76,0,0,0,13,11.5l8,3.22a2.25,2.25,0,0,0,2.53-.6l1.29-2.25a2.72,2.72,0,0,0,0-2.61Zm-2.4.91.52,1.46a1,1,0,0,1,0,1l-.5.87a.86.86,0,0,1-1,.23L16.81,8.66a1.83,1.83,0,0,1-1.19-1.39l-.55-1.73a.75.75,0,0,1,.64-1l1.94-.32a1.38,1.38,0,0,1,1.27.26l1.47.94a1.35,1.35,0,0,1,.72.92m-8.65,6.93c-1.64-.43-2.73-.17-3.46.56L5.25,18.5c-1.43,1.55-1.05,3.41.55,5.47l4.6,5.75a7.12,7.12,0,0,0,5.4,2.65L21.9,32a3,3,0,0,0,3-2.39l.85-4.47a5.48,5.48,0,0,0-.83-3.45l-2.2-3.28a5.44,5.44,0,0,0-3.08-2.27Zm3.44,4.89,2.88,1.12a2.19,2.19,0,0,1,1.24.92l.89,1.32a2.19,2.19,0,0,1,.33,1.39l-.34,1.81a1.2,1.2,0,0,1-1.2,1l-2.46.17a2.89,2.89,0,0,1-2.18-1.07L13.22,22.5c-.65-.83-.8-1.58-.22-2.21l1.52-1.87a1.35,1.35,0,0,1,1.39-.22M33.34,8.1a1.21,1.21,0,0,0-.46-.68L31.25,6.28a1.28,1.28,0,0,0-1-.26l-.94.18c-.42.11-.53.36-.44.7l.57,1.65a1.38,1.38,0,0,0,.73.94l1.47,1a.75.75,0,0,0,1,0l.72-.62a.68.68,0,0,0,.24-.7Z" fill="#e52a1b" fill-rule="evenodd"/><path d="M41.9,29.33l.78,4q.28,2.06-1,2.7l-4.31,1.8A4.34,4.34,0,0,1,33,36.77l-3.85-3.42a4.45,4.45,0,0,1-1.62-4l.34-3.08a2.46,2.46,0,0,1,2-2.51l4.11-.87a2.21,2.21,0,0,1,1.7.38l4.6,3.19a3.87,3.87,0,0,1,1.68,2.82m.22-13.44a2.8,2.8,0,0,0-1.4-1.34l-3.11-1.64a1.47,1.47,0,0,0-1.83.18L34.1,14.66A1.83,1.83,0,0,0,33.83,17l1.47,3.56a3.48,3.48,0,0,0,1.3,1.8l3.5,2.39a1.65,1.65,0,0,0,2.41-.15l1.65-1.82a2.25,2.25,0,0,0,.19-2.5ZM40.7,17l1,2a.88.88,0,0,1-.07,1l-.64.71a.65.65,0,0,1-.94.06l-1.54-1.24a1.37,1.37,0,0,1-.51-.7l-.57-1.39a.71.71,0,0,1,.1-.91l.66-.62a.58.58,0,0,1,.72-.07l1.22.64a1.09,1.09,0,0,1,.55.52M38.78,29A1.75,1.75,0,0,0,38,27.72l-2.08-1.44a1,1,0,0,0-.77-.17l-1.86.39a1.11,1.11,0,0,0-.89,1.14L32.26,29A2,2,0,0,0,33,30.82l1.74,1.55a2,2,0,0,0,2,.48l2-.81c.39-.19.54-.6.45-1.22Z" fill="#0079b2" fill-rule="evenodd"/><path d="M32.12,39.62l-3.75-3.37a5.69,5.69,0,0,0-4.5-1.12l-7,.89a13,13,0,0,1-3.26.15,8.65,8.65,0,0,1-5-2.79l-2.21-2.6c-.11-.12-.25-.07-.09.13L7.47,32.6a13.32,13.32,0,0,0,2.63,3.11,7.19,7.19,0,0,0,1.37.86,7,7,0,0,0,4.06.67l8-1a6.78,6.78,0,0,1,4.71.9L32,39.79q.34.12.12-.17M27.45,12.37,31,14.56a2.36,2.36,0,0,1,1.46,1.5l1.67,4.16q.51,1.35-.56,1.56l-4.51.83a1.71,1.71,0,0,1-2-.77l-2.71-4.31a1.62,1.62,0,0,1,0-2l1.7-2.75a1,1,0,0,1,1.39-.42m1.45,2.82a.45.45,0,0,0-.65.2l-.81,1.3a.76.76,0,0,0,0,.94l1.28,2a.81.81,0,0,0,1,.36l2.13-.39q.51-.1.27-.74l-.79-2a1.12,1.12,0,0,0-.69-.71ZM6.17,2.52a2,2,0,0,0,0,1.2c.19.64,1.11,4.11,1.21,4.42a3.69,3.69,0,0,1-.65,3.58c-1.19,1.44-5.13,5.85-5.42,6.42a3.14,3.14,0,0,0-.36,3c.15.35.51,1.07.83,1.74.2.35.08.54-.17.14s-.63-.92-.86-1.25a5.24,5.24,0,0,1-.37-.61,3.54,3.54,0,0,1,.31-3.58l4.71-5.64c.33-.4.69-1,.8-1.13a5,5,0,0,0,.15-3.47c-.26-1.26-.56-3-.65-3.26A2,2,0,0,1,6,2.28a2.69,2.69,0,0,1,.78-.59c.1-.06.16,0,.08,0a2.32,2.32,0,0,0-.41.34,1.17,1.17,0,0,0-.27.46" fill="#030504" fill-rule="evenodd"/></svg>