<svg width="48" height="48" viewBox="0 0 48 48" fill="#0000" xmlns="http://www.w3.org/2000/svg"><circle cx="24" cy="24" r="24" fill="#fff" stroke="rgba(255,255,255,.01)" stroke-width="20"/><g clip-path="url(#clip0)" fill="#0091EA"><path d="M32.7177 14.8256H27.2392C26.9872 14.8256 26.7827 15.0301 26.7827 15.2821C26.7827 15.5341 26.9872 15.7387 27.2392 15.7387H32.7177C32.9697 15.7387 33.1742 15.5341 33.1742 15.2821C33.1742 15.0301 32.9697 14.8256 32.7177 14.8256Z"/><path d="M33.0408 14.9597L31.2147 13.1335C31.0366 12.9555 30.7471 12.9555 30.5691 13.1335C30.391 13.3116 30.391 13.601 30.5691 13.7791L32.072 15.282L30.5682 16.7859C30.3901 16.9639 30.3901 17.2534 30.5682 17.4314C30.6577 17.52 30.7745 17.5647 30.8914 17.5647C31.0083 17.5647 31.1252 17.52 31.2147 17.4314L33.0408 15.6053C33.2189 15.4272 33.2189 15.1377 33.0408 14.9597Z"/><path d="M20.8479 14.8256H15.3695C15.1174 14.8256 14.9129 15.0301 14.9129 15.2821C14.9129 15.5341 15.1174 15.7387 15.3695 15.7387H20.8479C21.0999 15.7387 21.3044 15.5341 21.3044 15.2821C21.3044 15.0301 21.0999 14.8256 20.8479 14.8256Z"/><path d="M16.0149 15.2819L17.5179 13.779C17.6959 13.6009 17.6959 13.3115 17.5179 13.1334C17.3398 12.9554 17.0503 12.9554 16.8723 13.1334L15.0462 14.9596C14.8681 15.1377 14.8681 15.4271 15.0462 15.6052L16.8723 17.4313C16.9618 17.5199 17.0787 17.5647 17.1956 17.5647C17.3125 17.5647 17.4293 17.5199 17.5179 17.4304C17.6959 17.2524 17.6959 16.9629 17.5179 16.7849L16.0149 15.2819Z"/><path d="M32.2612 22.1301C31.8859 22.1301 31.5362 22.2443 31.2458 22.4388C30.9957 21.7284 30.3173 21.2171 29.522 21.2171C29.1467 21.2171 28.797 21.3312 28.5066 21.5257C28.2565 20.8154 27.578 20.304 26.7828 20.304C26.4504 20.304 26.1381 20.3935 25.8697 20.5497V17.5648C25.8697 16.5577 25.0507 15.7386 24.0435 15.7386C23.0364 15.7386 22.2174 16.5577 22.2174 17.5648V25.3259L20.6305 24.1362C19.69 23.4304 18.3514 23.5244 17.5178 24.3572C16.9837 24.8913 16.9837 25.7597 17.5178 26.2938L24.0198 32.7967C24.7959 33.5728 25.8286 34.0001 26.9261 34.0001H29.0655C31.8339 34.0001 34.0874 31.7476 34.0874 28.9782V23.9563C34.0874 22.9492 33.2683 22.1301 32.2612 22.1301ZM33.1743 28.9782C33.1743 31.2435 31.3308 33.087 29.0655 33.087H26.9261C26.0715 33.087 25.2689 32.7547 24.6654 32.1511L18.1634 25.6482C17.9853 25.4702 17.9853 25.1807 18.1634 25.0027C18.4464 24.7205 18.8244 24.5754 19.2043 24.5754C19.5129 24.5754 19.8234 24.6712 20.0836 24.8666L22.4001 26.6042C22.5389 26.7083 22.7251 26.7238 22.8785 26.6471C23.0328 26.5695 23.1305 26.4115 23.1305 26.239V17.5648C23.1305 17.0617 23.5396 16.6517 24.0436 16.6517C24.5476 16.6517 24.9566 17.0617 24.9566 17.5648V24.4129C24.9566 24.6649 25.1612 24.8694 25.4132 24.8694C25.6652 24.8694 25.8697 24.6649 25.8697 24.4129V22.1302C25.8697 21.6271 26.2788 21.2171 26.7828 21.2171C27.2868 21.2171 27.6959 21.6271 27.6959 22.1302V24.4129C27.6959 24.6649 27.9004 24.8694 28.1524 24.8694C28.4044 24.8694 28.609 24.6649 28.609 24.4129V23.0432C28.609 22.5401 29.018 22.1302 29.522 22.1302C30.026 22.1302 30.4351 22.5402 30.4351 23.0432V24.4129C30.4351 24.6649 30.6396 24.8694 30.8916 24.8694C31.1436 24.8694 31.3482 24.6649 31.3482 24.4129V23.9563C31.3482 23.4532 31.7572 23.0432 32.2612 23.0432C32.7653 23.0432 33.1743 23.4532 33.1743 23.9563V28.9782Z"/></g><defs><clipPath id="clip0"><path fill="#fff" transform="translate(14 13)" stroke="rgba(255,255,255,.01)" stroke-width="20" d="M0 0H21V21H0z"/></clipPath></defs></svg>