<svg width="56" height="64" viewBox="0 0 56 64" fill="none" xmlns="http://www.w3.org/2000/svg"><path fill-rule="evenodd" clip-rule="evenodd" d="M5.3335 55.3334C5.3335 57.1744 6.82588 58.6667 8.66683 58.6667H17.0002V55.3334H8.66683V30.3334H12.8335V27.0001H8.66683C6.82588 27.0001 5.3335 28.4925 5.3335 30.3334V55.3334ZM47.0002 55.3334H38.6668V58.6667H47.0002C48.8411 58.6667 50.3335 57.1744 50.3335 55.3334V30.3334C50.3335 28.4925 48.8411 27.0001 47.0002 27.0001H42.8335V30.3334H47.0002V55.3334Z" fill="#0091EA"/><path d="M12 47.8334C12 56.5779 19.0888 63.6667 27.8333 63.6667C36.5778 63.6667 43.6667 56.5779 43.6667 47.8334V30.3334C43.6667 26.6515 40.6819 23.6667 37 23.6667H18.6667C14.9848 23.6667 12 26.6515 12 30.3334V47.8334Z" fill="#E1EAEE"/><path fill-rule="evenodd" clip-rule="evenodd" d="M40.3333 30.3334V47.8334C40.3333 54.737 34.7369 60.3334 27.8333 60.3334C20.9298 60.3334 15.3333 54.737 15.3333 47.8334V30.3334C15.3333 28.4925 16.8257 27.0001 18.6667 27.0001H37C38.8409 27.0001 40.3333 28.4925 40.3333 30.3334ZM27.8333 63.6667C19.0888 63.6667 12 56.5779 12 47.8334V30.3334C12 26.6515 14.9848 23.6667 18.6667 23.6667H37C40.6819 23.6667 43.6667 26.6515 43.6667 30.3334V47.8334C43.6667 56.5779 36.5778 63.6667 27.8333 63.6667Z" fill="#0091EA"/><path d="M23.6667 31.1666C23.6667 31.6268 23.2936 31.9999 22.8333 31.9999C22.3731 31.9999 22 31.6268 22 31.1666C22 30.7063 22.3731 30.3333 22.8333 30.3333C23.2936 30.3333 23.6667 30.7063 23.6667 31.1666Z" fill="#0091EA"/><path d="M27.0002 31.1666C27.0002 31.6268 26.6271 31.9999 26.1668 31.9999C25.7066 31.9999 25.3335 31.6268 25.3335 31.1666C25.3335 30.7063 25.7066 30.3333 26.1668 30.3333C26.6271 30.3333 27.0002 30.7063 27.0002 31.1666Z" fill="#0091EA"/><path d="M30.3332 31.1666C30.3332 31.6268 29.9601 31.9999 29.4998 31.9999C29.0396 31.9999 28.6665 31.6268 28.6665 31.1666C28.6665 30.7063 29.0396 30.3333 29.4998 30.3333C29.9601 30.3333 30.3332 30.7063 30.3332 31.1666Z" fill="#0091EA"/><path d="M33.6667 31.1666C33.6667 31.6268 33.2936 31.9999 32.8333 31.9999C32.3731 31.9999 32 31.6268 32 31.1666C32 30.7063 32.3731 30.3333 32.8333 30.3333C33.2936 30.3333 33.6667 30.7063 33.6667 31.1666Z" fill="#0091EA"/><path d="M37.0002 31.1666C37.0002 31.6268 36.6271 31.9999 36.1668 31.9999C35.7066 31.9999 35.3335 31.6268 35.3335 31.1666C35.3335 30.7063 35.7066 30.3333 36.1668 30.3333C36.6271 30.3333 37.0002 30.7063 37.0002 31.1666Z" fill="#0091EA"/><path d="M20.3332 31.1666C20.3332 31.6268 19.9601 31.9999 19.4998 31.9999C19.0396 31.9999 18.6665 31.6268 18.6665 31.1666C18.6665 30.7063 19.0396 30.3333 19.4998 30.3333C19.9601 30.3333 20.3332 30.7063 20.3332 31.1666Z" fill="#0091EA"/><path fill-rule="evenodd" clip-rule="evenodd" d="M20.7269 23.6667L22.3935 20.3333L31.6066 20.3333L33.2733 23.6667H20.7269ZM18.0301 27C16.7912 27 15.9853 25.6961 16.5394 24.588L19.4121 18.8426C19.9768 17.7133 21.131 17 22.3935 17H31.6066C32.8692 17 34.0234 17.7133 34.5881 18.8426L37.4607 24.588C38.0148 25.6961 37.209 27 35.97 27H18.0301Z" fill="#0091EA"/><path fill-rule="evenodd" clip-rule="evenodd" d="M52.0002 6.99992H3.66683V3.66659H52.0002V6.99992ZM3.66683 10.3333C1.82588 10.3333 0.333496 8.84087 0.333496 6.99992V3.66659C0.333496 1.82564 1.82588 0.333252 3.66683 0.333252H52.0002C53.8411 0.333252 55.3335 1.82564 55.3335 3.66659V6.99992C55.3335 8.84087 53.8411 10.3333 52.0002 10.3333H3.66683Z" fill="#0091EA"/><path fill-rule="evenodd" clip-rule="evenodd" d="M28.6667 16.9999H25.3333L25.3333 10.3333H28.6667V16.9999ZM25.3333 20.3333C23.4924 20.3333 22 18.8409 22 16.9999V10.3333C22 8.4923 23.4924 6.99992 25.3333 6.99992H28.6667C30.5076 6.99992 32 8.4923 32 10.3333V16.9999C32 18.8409 30.5076 20.3333 28.6667 20.3333H25.3333Z" fill="#0091EA"/><path d="M0.333496 60.3334C0.333496 62.1744 1.82588 63.6667 3.66683 63.6667H5.3335C7.17445 63.6667 8.66683 62.1744 8.66683 60.3334V25.3334C8.66683 23.4925 7.17445 22.0001 5.3335 22.0001H3.66683C1.82588 22.0001 0.333496 23.4925 0.333496 25.3334V60.3334Z" fill="#E1EAEE"/><path fill-rule="evenodd" clip-rule="evenodd" d="M5.3335 60.3334H3.66683L3.66683 25.3334H5.3335V60.3334ZM3.66683 63.6667C1.82588 63.6667 0.333496 62.1744 0.333496 60.3334V25.3334C0.333496 23.4925 1.82588 22.0001 3.66683 22.0001H5.3335C7.17445 22.0001 8.66683 23.4925 8.66683 25.3334V60.3334C8.66683 62.1744 7.17445 63.6667 5.3335 63.6667H3.66683Z" fill="#0091EA"/><path d="M47 60.3334C47 62.1744 48.4924 63.6667 50.3333 63.6667H52C53.8409 63.6667 55.3333 62.1744 55.3333 60.3334V25.3334C55.3333 23.4925 53.8409 22.0001 52 22.0001H50.3333C48.4924 22.0001 47 23.4925 47 25.3334V60.3334Z" fill="#E1EAEE"/><path fill-rule="evenodd" clip-rule="evenodd" d="M52 60.3334H50.3333L50.3333 25.3334H52V60.3334ZM50.3333 63.6667C48.4924 63.6667 47 62.1744 47 60.3334V25.3334C47 23.4925 48.4924 22.0001 50.3333 22.0001H52C53.8409 22.0001 55.3333 23.4925 55.3333 25.3334V60.3334C55.3333 62.1744 53.8409 63.6667 52 63.6667H50.3333Z" fill="#0091EA"/></svg>