<svg width="74" height="59" viewBox="0 0 74 59" fill="none" xmlns="http://www.w3.org/2000/svg"><path fill-rule="evenodd" clip-rule="evenodd" d="M63.6667 14H10.3333V55.6667H63.6667V14ZM10.3333 10.6667C8.49238 10.6667 7 12.159 7 14V55.6667C7 57.5076 8.49239 59 10.3333 59H63.6667C65.5076 59 67 57.5076 67 55.6667V14C67 12.159 65.5076 10.6667 63.6667 10.6667H10.3333Z" fill="#0091EA"/><path d="M63.6665 21.9189C63.6665 19.663 65.8766 18.07 68.0167 18.7834C71.3907 19.9081 73.6665 23.0656 73.6665 26.6221V43.0446C73.6665 46.6011 71.3907 49.7586 68.0167 50.8833C65.8766 51.5966 63.6665 50.0037 63.6665 47.7478V21.9189Z" fill="#E1EAEE"/><path fill-rule="evenodd" clip-rule="evenodd" d="M70.3332 43.0446V26.6221C70.3332 24.5134 68.9922 22.6399 66.9998 21.9583V47.7084C68.9922 47.0268 70.3332 45.1532 70.3332 43.0446ZM68.0167 18.7834C65.8766 18.07 63.6665 19.663 63.6665 21.9189V47.7478C63.6665 50.0037 65.8766 51.5966 68.0167 50.8833C71.3907 49.7586 73.6665 46.6011 73.6665 43.0446V26.6221C73.6665 23.0656 71.3907 19.9081 68.0167 18.7834Z" fill="#0091EA"/><path d="M10.3335 21.9189C10.3335 19.663 8.12341 18.07 5.98328 18.7834C2.60928 19.9081 0.333496 23.0656 0.333496 26.6221V43.0446C0.333496 46.6011 2.60928 49.7586 5.98328 50.8833C8.12341 51.5966 10.3335 50.0037 10.3335 47.7478V21.9189Z" fill="#E1EAEE"/><path fill-rule="evenodd" clip-rule="evenodd" d="M3.66683 43.0446V26.6221C3.66683 24.5134 5.0078 22.6399 7.00016 21.9583V47.7084C5.0078 47.0268 3.66683 45.1532 3.66683 43.0446ZM5.98328 18.7834C8.12341 18.07 10.3335 19.663 10.3335 21.9189V47.7478C10.3335 50.0037 8.12341 51.5966 5.98328 50.8833C2.60928 49.7586 0.333496 46.6011 0.333496 43.0446V26.6221C0.333496 23.0656 2.60928 19.9081 5.98328 18.7834Z" fill="#0091EA"/><path d="M7 32.3333C7 34.1743 8.49238 35.6667 10.3333 35.6667H63.6667C65.5076 35.6667 67 34.1743 67 32.3333V19C67 17.159 65.5076 15.6667 63.6667 15.6667H10.3333C8.49239 15.6667 7 17.159 7 19V32.3333Z" fill="#E1EAEE"/><path fill-rule="evenodd" clip-rule="evenodd" d="M63.6667 32.3333H10.3333V19H63.6667V32.3333ZM10.3333 35.6667C8.49238 35.6667 7 34.1743 7 32.3333V19C7 17.159 8.49239 15.6667 10.3333 15.6667H63.6667C65.5076 15.6667 67 17.159 67 19V32.3333C67 34.1743 65.5076 35.6667 63.6667 35.6667H10.3333Z" fill="#0091EA"/><path fill-rule="evenodd" clip-rule="evenodd" d="M63.6667 35.6667H10.3333V50.6667H63.6667V35.6667ZM10.3333 32.3333C8.49238 32.3333 7 33.8257 7 35.6667V50.6667C7 52.5076 8.49239 54 10.3333 54H63.6667C65.5076 54 67 52.5076 67 50.6667V35.6667C67 33.8257 65.5076 32.3333 63.6667 32.3333H10.3333Z" fill="#0091EA"/><path fill-rule="evenodd" clip-rule="evenodd" d="M45.3335 10.6667H28.6668L28.6668 9H45.3335V10.6667ZM25.3335 14V9C25.3335 7.15905 26.8259 5.66667 28.6668 5.66667H45.3335C47.1744 5.66667 48.6668 7.15905 48.6668 9V14H25.3335Z" fill="#0091EA"/><path fill-rule="evenodd" clip-rule="evenodd" d="M25.3335 9L29.3625 2.28501C29.9649 1.281 31.0499 0.666666 32.2208 0.666666H41.7795C42.9504 0.666666 44.0354 1.281 44.6378 2.28501L48.6668 9H25.3335ZM31.2208 5.66667L32.2208 4H41.7795L42.7795 5.66667H31.2208Z" fill="#0091EA"/><path fill-rule="evenodd" clip-rule="evenodd" d="M28.1294 24.7357L27.6113 25.0573L27.5919 25.6667L27.6113 26.2761L28.1294 26.5976L28.6668 26.8854L29.2043 26.5976L29.7223 26.2761L29.7418 25.6667L29.7223 25.0573L29.2043 24.7357L28.6668 24.4479L28.1294 24.7357ZM24.3367 28.1667L26.4618 29.4858L28.6668 30.6667L30.8718 29.4858L32.997 28.1667L33.0768 25.6667L32.997 23.1667L30.8718 21.8475L28.6668 20.6667L26.4618 21.8475L24.3367 23.1667L24.2568 25.6667L24.3367 28.1667Z" fill="#0091EA"/><path fill-rule="evenodd" clip-rule="evenodd" d="M44.7959 24.7357L44.2778 25.0573L44.2584 25.6667L44.2778 26.2761L44.7959 26.5976L45.3333 26.8854L45.8708 26.5976L46.3888 26.2761L46.4083 25.6667L46.3888 25.0573L45.8708 24.7357L45.3333 24.4479L44.7959 24.7357ZM41.0032 28.1667L43.1283 29.4858L45.3333 30.6667L47.5383 29.4858L49.6635 28.1667L49.7433 25.6667L49.6635 23.1667L47.5383 21.8475L45.3333 20.6667L43.1283 21.8475L41.0032 23.1667L40.9233 25.6667L41.0032 28.1667Z" fill="#0091EA"/><path fill-rule="evenodd" clip-rule="evenodd" d="M32.8335 42.3333C32.3733 42.3333 32.0002 42.7064 32.0002 43.1667C32.0002 43.6269 32.3733 44 32.8335 44C33.2937 44 33.6668 43.6269 33.6668 43.1667C33.6668 42.7064 33.2937 42.3333 32.8335 42.3333ZM32.8335 45.6667C34.2142 45.6667 35.3335 44.5474 35.3335 43.1667C35.3335 41.786 34.2142 40.6667 32.8335 40.6667C31.4528 40.6667 30.3335 41.786 30.3335 43.1667C30.3335 44.5474 31.4528 45.6667 32.8335 45.6667Z" fill="#0091EA"/><path fill-rule="evenodd" clip-rule="evenodd" d="M41.1665 42.3333C40.7063 42.3333 40.3332 42.7064 40.3332 43.1667C40.3332 43.6269 40.7063 44 41.1665 44C41.6267 44 41.9998 43.6269 41.9998 43.1667C41.9998 42.7064 41.6267 42.3333 41.1665 42.3333ZM41.1665 45.6667C42.5472 45.6667 43.6665 44.5474 43.6665 43.1667C43.6665 41.786 42.5472 40.6667 41.1665 40.6667C39.7858 40.6667 38.6665 41.786 38.6665 43.1667C38.6665 44.5474 39.7858 45.6667 41.1665 45.6667Z" fill="#0091EA"/><path d="M33.6667 38.1667C33.6667 38.6269 33.2936 39 32.8333 39C32.3731 39 32 38.6269 32 38.1667C32 37.7064 32.3731 37.3333 32.8333 37.3333C33.2936 37.3333 33.6667 37.7064 33.6667 38.1667Z" fill="#1976D2"/><path d="M30.3332 38.1667C30.3332 38.6269 29.9601 39 29.4998 39C29.0396 39 28.6665 38.6269 28.6665 38.1667C28.6665 37.7064 29.0396 37.3333 29.4998 37.3333C29.9601 37.3333 30.3332 37.7064 30.3332 38.1667Z" fill="#1976D2"/><path d="M45.3332 48.1667C45.3332 48.6269 44.9601 49 44.4998 49C44.0396 49 43.6665 48.6269 43.6665 48.1667C43.6665 47.7064 44.0396 47.3333 44.4998 47.3333C44.9601 47.3333 45.3332 47.7064 45.3332 48.1667Z" fill="#1976D2"/><path d="M42.0002 48.1667C42.0002 48.6269 41.6271 49 41.1668 49C40.7066 49 40.3335 48.6269 40.3335 48.1667C40.3335 47.7064 40.7066 47.3333 41.1668 47.3333C41.6271 47.3333 42.0002 47.7064 42.0002 48.1667Z" fill="#1976D2"/></svg>